M48
; DRILL file {KiCad 8.0.7} date 2025-01-02T11:10:59+0900
; FORMAT={-:-/ absolute / inch / decimal}
; #@! TF.CreationDate,2025-01-02T11:10:59+09:00
; #@! TF.GenerationSoftware,Kicad,Pcbnew,8.0.7
; #@! TF.FileFunction,Plated,1,2,PTH
FMAT,2
INCH
; #@! TA.AperFunction,Plated,PTH,ViaDrill
T1C0.0118
; #@! TA.AperFunction,Plated,PTH,ComponentDrill
T2C0.0236
; #@! TA.AperFunction,Plated,PTH,ComponentDrill
T3C0.0276
; #@! TA.AperFunction,Plated,PTH,ComponentDrill
T4C0.0354
; #@! TA.AperFunction,Plated,PTH,ComponentDrill
T5C0.0394
; #@! TA.AperFunction,Plated,PTH,ComponentDrill
T6C0.0433
; #@! TA.AperFunction,Plated,PTH,ComponentDrill
T7C0.0512
%
G90
G05
T1
X5.4921Y-3.3315
X5.4921Y-4.1142
X6.2795Y-3.2323
X6.2795Y-3.3315
X6.2795Y-3.5315
X6.2795Y-3.6315
T2
X6.121Y-4.6457
X6.1997Y-4.6457
T3
X5.2165Y-3.9961
X5.2165Y-4.2961
T4
X5.1665Y-3.8189
X5.2665Y-3.8189
T5
X4.9803Y-3.6945
X4.9803Y-3.7945
X4.9803Y-3.8945
X4.9803Y-3.9945
X4.9803Y-4.0945
X4.9803Y-4.1945
X4.9803Y-4.4502
X4.9803Y-4.5502
X4.9803Y-4.6502
X4.9803Y-4.7502
X4.9803Y-4.8502
X6.1116Y-4.8868
X6.2116Y-4.8868
T6
X6.378Y-4.1732
X6.378Y-4.4291
X6.5551Y-4.1732
X6.5551Y-4.4291
T7
X5.4134Y-4.5904
X5.4134Y-4.7872
X5.8071Y-4.6888
M30
