%TF.GenerationSoftware,KiCad,Pcbnew,8.0.7*%
%TF.CreationDate,2025-02-03T11:19:23+09:00*%
%TF.ProjectId,rusty-hangulclock,72757374-792d-4686-916e-67756c636c6f,rev?*%
%TF.SameCoordinates,Original*%
%TF.FileFunction,Legend,Top*%
%TF.FilePolarity,Positive*%
%FSLAX46Y46*%
G04 Gerber Fmt 4.6, Leading zero omitted, Abs format (unit mm)*
G04 Created by KiCad (PCBNEW 8.0.7) date 2025-02-03 11:19:23*
%MOMM*%
%LPD*%
G01*
G04 APERTURE LIST*
%ADD10C,0.100000*%
%ADD11C,0.150000*%
%ADD12C,0.120000*%
%ADD13C,0.000000*%
G04 APERTURE END LIST*
D10*
X121748884Y-112947419D02*
X121748884Y-111947419D01*
X121748884Y-111947419D02*
X122129836Y-111947419D01*
X122129836Y-111947419D02*
X122225074Y-111995038D01*
X122225074Y-111995038D02*
X122272693Y-112042657D01*
X122272693Y-112042657D02*
X122320312Y-112137895D01*
X122320312Y-112137895D02*
X122320312Y-112280752D01*
X122320312Y-112280752D02*
X122272693Y-112375990D01*
X122272693Y-112375990D02*
X122225074Y-112423609D01*
X122225074Y-112423609D02*
X122129836Y-112471228D01*
X122129836Y-112471228D02*
X121748884Y-112471228D01*
X123177455Y-111947419D02*
X122986979Y-111947419D01*
X122986979Y-111947419D02*
X122891741Y-111995038D01*
X122891741Y-111995038D02*
X122844122Y-112042657D01*
X122844122Y-112042657D02*
X122748884Y-112185514D01*
X122748884Y-112185514D02*
X122701265Y-112375990D01*
X122701265Y-112375990D02*
X122701265Y-112756942D01*
X122701265Y-112756942D02*
X122748884Y-112852180D01*
X122748884Y-112852180D02*
X122796503Y-112899800D01*
X122796503Y-112899800D02*
X122891741Y-112947419D01*
X122891741Y-112947419D02*
X123082217Y-112947419D01*
X123082217Y-112947419D02*
X123177455Y-112899800D01*
X123177455Y-112899800D02*
X123225074Y-112852180D01*
X123225074Y-112852180D02*
X123272693Y-112756942D01*
X123272693Y-112756942D02*
X123272693Y-112518847D01*
X123272693Y-112518847D02*
X123225074Y-112423609D01*
X123225074Y-112423609D02*
X123177455Y-112375990D01*
X123177455Y-112375990D02*
X123082217Y-112328371D01*
X123082217Y-112328371D02*
X122891741Y-112328371D01*
X122891741Y-112328371D02*
X122796503Y-112375990D01*
X122796503Y-112375990D02*
X122748884Y-112423609D01*
X122748884Y-112423609D02*
X122701265Y-112518847D01*
X123701265Y-112947419D02*
X123701265Y-111947419D01*
X123701265Y-111947419D02*
X124034598Y-112661704D01*
X124034598Y-112661704D02*
X124367931Y-111947419D01*
X124367931Y-111947419D02*
X124367931Y-112947419D01*
X125034598Y-111947419D02*
X125225074Y-111947419D01*
X125225074Y-111947419D02*
X125320312Y-111995038D01*
X125320312Y-111995038D02*
X125415550Y-112090276D01*
X125415550Y-112090276D02*
X125463169Y-112280752D01*
X125463169Y-112280752D02*
X125463169Y-112614085D01*
X125463169Y-112614085D02*
X125415550Y-112804561D01*
X125415550Y-112804561D02*
X125320312Y-112899800D01*
X125320312Y-112899800D02*
X125225074Y-112947419D01*
X125225074Y-112947419D02*
X125034598Y-112947419D01*
X125034598Y-112947419D02*
X124939360Y-112899800D01*
X124939360Y-112899800D02*
X124844122Y-112804561D01*
X124844122Y-112804561D02*
X124796503Y-112614085D01*
X124796503Y-112614085D02*
X124796503Y-112280752D01*
X124796503Y-112280752D02*
X124844122Y-112090276D01*
X124844122Y-112090276D02*
X124939360Y-111995038D01*
X124939360Y-111995038D02*
X125034598Y-111947419D01*
X125844122Y-112899800D02*
X125986979Y-112947419D01*
X125986979Y-112947419D02*
X126225074Y-112947419D01*
X126225074Y-112947419D02*
X126320312Y-112899800D01*
X126320312Y-112899800D02*
X126367931Y-112852180D01*
X126367931Y-112852180D02*
X126415550Y-112756942D01*
X126415550Y-112756942D02*
X126415550Y-112661704D01*
X126415550Y-112661704D02*
X126367931Y-112566466D01*
X126367931Y-112566466D02*
X126320312Y-112518847D01*
X126320312Y-112518847D02*
X126225074Y-112471228D01*
X126225074Y-112471228D02*
X126034598Y-112423609D01*
X126034598Y-112423609D02*
X125939360Y-112375990D01*
X125939360Y-112375990D02*
X125891741Y-112328371D01*
X125891741Y-112328371D02*
X125844122Y-112233133D01*
X125844122Y-112233133D02*
X125844122Y-112137895D01*
X125844122Y-112137895D02*
X125891741Y-112042657D01*
X125891741Y-112042657D02*
X125939360Y-111995038D01*
X125939360Y-111995038D02*
X126034598Y-111947419D01*
X126034598Y-111947419D02*
X126272693Y-111947419D01*
X126272693Y-111947419D02*
X126415550Y-111995038D01*
X126844122Y-112947419D02*
X126844122Y-111947419D01*
X122077693Y-114420038D02*
X121982455Y-114372419D01*
X121982455Y-114372419D02*
X121839598Y-114372419D01*
X121839598Y-114372419D02*
X121696741Y-114420038D01*
X121696741Y-114420038D02*
X121601503Y-114515276D01*
X121601503Y-114515276D02*
X121553884Y-114610514D01*
X121553884Y-114610514D02*
X121506265Y-114800990D01*
X121506265Y-114800990D02*
X121506265Y-114943847D01*
X121506265Y-114943847D02*
X121553884Y-115134323D01*
X121553884Y-115134323D02*
X121601503Y-115229561D01*
X121601503Y-115229561D02*
X121696741Y-115324800D01*
X121696741Y-115324800D02*
X121839598Y-115372419D01*
X121839598Y-115372419D02*
X121934836Y-115372419D01*
X121934836Y-115372419D02*
X122077693Y-115324800D01*
X122077693Y-115324800D02*
X122125312Y-115277180D01*
X122125312Y-115277180D02*
X122125312Y-114943847D01*
X122125312Y-114943847D02*
X121934836Y-114943847D01*
X122553884Y-115372419D02*
X122553884Y-114372419D01*
X122553884Y-114372419D02*
X123125312Y-115372419D01*
X123125312Y-115372419D02*
X123125312Y-114372419D01*
X123601503Y-115372419D02*
X123601503Y-114372419D01*
X123601503Y-114372419D02*
X123839598Y-114372419D01*
X123839598Y-114372419D02*
X123982455Y-114420038D01*
X123982455Y-114420038D02*
X124077693Y-114515276D01*
X124077693Y-114515276D02*
X124125312Y-114610514D01*
X124125312Y-114610514D02*
X124172931Y-114800990D01*
X124172931Y-114800990D02*
X124172931Y-114943847D01*
X124172931Y-114943847D02*
X124125312Y-115134323D01*
X124125312Y-115134323D02*
X124077693Y-115229561D01*
X124077693Y-115229561D02*
X123982455Y-115324800D01*
X123982455Y-115324800D02*
X123839598Y-115372419D01*
X123839598Y-115372419D02*
X123601503Y-115372419D01*
X159077693Y-113170038D02*
X158982455Y-113122419D01*
X158982455Y-113122419D02*
X158839598Y-113122419D01*
X158839598Y-113122419D02*
X158696741Y-113170038D01*
X158696741Y-113170038D02*
X158601503Y-113265276D01*
X158601503Y-113265276D02*
X158553884Y-113360514D01*
X158553884Y-113360514D02*
X158506265Y-113550990D01*
X158506265Y-113550990D02*
X158506265Y-113693847D01*
X158506265Y-113693847D02*
X158553884Y-113884323D01*
X158553884Y-113884323D02*
X158601503Y-113979561D01*
X158601503Y-113979561D02*
X158696741Y-114074800D01*
X158696741Y-114074800D02*
X158839598Y-114122419D01*
X158839598Y-114122419D02*
X158934836Y-114122419D01*
X158934836Y-114122419D02*
X159077693Y-114074800D01*
X159077693Y-114074800D02*
X159125312Y-114027180D01*
X159125312Y-114027180D02*
X159125312Y-113693847D01*
X159125312Y-113693847D02*
X158934836Y-113693847D01*
X159553884Y-114122419D02*
X159553884Y-113122419D01*
X159553884Y-113122419D02*
X160125312Y-114122419D01*
X160125312Y-114122419D02*
X160125312Y-113122419D01*
X160601503Y-114122419D02*
X160601503Y-113122419D01*
X160601503Y-113122419D02*
X160839598Y-113122419D01*
X160839598Y-113122419D02*
X160982455Y-113170038D01*
X160982455Y-113170038D02*
X161077693Y-113265276D01*
X161077693Y-113265276D02*
X161125312Y-113360514D01*
X161125312Y-113360514D02*
X161172931Y-113550990D01*
X161172931Y-113550990D02*
X161172931Y-113693847D01*
X161172931Y-113693847D02*
X161125312Y-113884323D01*
X161125312Y-113884323D02*
X161077693Y-113979561D01*
X161077693Y-113979561D02*
X160982455Y-114074800D01*
X160982455Y-114074800D02*
X160839598Y-114122419D01*
X160839598Y-114122419D02*
X160601503Y-114122419D01*
X158506265Y-111574800D02*
X158649122Y-111622419D01*
X158649122Y-111622419D02*
X158887217Y-111622419D01*
X158887217Y-111622419D02*
X158982455Y-111574800D01*
X158982455Y-111574800D02*
X159030074Y-111527180D01*
X159030074Y-111527180D02*
X159077693Y-111431942D01*
X159077693Y-111431942D02*
X159077693Y-111336704D01*
X159077693Y-111336704D02*
X159030074Y-111241466D01*
X159030074Y-111241466D02*
X158982455Y-111193847D01*
X158982455Y-111193847D02*
X158887217Y-111146228D01*
X158887217Y-111146228D02*
X158696741Y-111098609D01*
X158696741Y-111098609D02*
X158601503Y-111050990D01*
X158601503Y-111050990D02*
X158553884Y-111003371D01*
X158553884Y-111003371D02*
X158506265Y-110908133D01*
X158506265Y-110908133D02*
X158506265Y-110812895D01*
X158506265Y-110812895D02*
X158553884Y-110717657D01*
X158553884Y-110717657D02*
X158601503Y-110670038D01*
X158601503Y-110670038D02*
X158696741Y-110622419D01*
X158696741Y-110622419D02*
X158934836Y-110622419D01*
X158934836Y-110622419D02*
X159077693Y-110670038D01*
X160077693Y-111527180D02*
X160030074Y-111574800D01*
X160030074Y-111574800D02*
X159887217Y-111622419D01*
X159887217Y-111622419D02*
X159791979Y-111622419D01*
X159791979Y-111622419D02*
X159649122Y-111574800D01*
X159649122Y-111574800D02*
X159553884Y-111479561D01*
X159553884Y-111479561D02*
X159506265Y-111384323D01*
X159506265Y-111384323D02*
X159458646Y-111193847D01*
X159458646Y-111193847D02*
X159458646Y-111050990D01*
X159458646Y-111050990D02*
X159506265Y-110860514D01*
X159506265Y-110860514D02*
X159553884Y-110765276D01*
X159553884Y-110765276D02*
X159649122Y-110670038D01*
X159649122Y-110670038D02*
X159791979Y-110622419D01*
X159791979Y-110622419D02*
X159887217Y-110622419D01*
X159887217Y-110622419D02*
X160030074Y-110670038D01*
X160030074Y-110670038D02*
X160077693Y-110717657D01*
X160982455Y-111622419D02*
X160506265Y-111622419D01*
X160506265Y-111622419D02*
X160506265Y-110622419D01*
X121748884Y-110407419D02*
X121748884Y-109407419D01*
X121748884Y-109407419D02*
X122129836Y-109407419D01*
X122129836Y-109407419D02*
X122225074Y-109455038D01*
X122225074Y-109455038D02*
X122272693Y-109502657D01*
X122272693Y-109502657D02*
X122320312Y-109597895D01*
X122320312Y-109597895D02*
X122320312Y-109740752D01*
X122320312Y-109740752D02*
X122272693Y-109835990D01*
X122272693Y-109835990D02*
X122225074Y-109883609D01*
X122225074Y-109883609D02*
X122129836Y-109931228D01*
X122129836Y-109931228D02*
X121748884Y-109931228D01*
X123177455Y-109740752D02*
X123177455Y-110407419D01*
X122939360Y-109359800D02*
X122701265Y-110074085D01*
X122701265Y-110074085D02*
X123320312Y-110074085D01*
X123653646Y-110359800D02*
X123796503Y-110407419D01*
X123796503Y-110407419D02*
X124034598Y-110407419D01*
X124034598Y-110407419D02*
X124129836Y-110359800D01*
X124129836Y-110359800D02*
X124177455Y-110312180D01*
X124177455Y-110312180D02*
X124225074Y-110216942D01*
X124225074Y-110216942D02*
X124225074Y-110121704D01*
X124225074Y-110121704D02*
X124177455Y-110026466D01*
X124177455Y-110026466D02*
X124129836Y-109978847D01*
X124129836Y-109978847D02*
X124034598Y-109931228D01*
X124034598Y-109931228D02*
X123844122Y-109883609D01*
X123844122Y-109883609D02*
X123748884Y-109835990D01*
X123748884Y-109835990D02*
X123701265Y-109788371D01*
X123701265Y-109788371D02*
X123653646Y-109693133D01*
X123653646Y-109693133D02*
X123653646Y-109597895D01*
X123653646Y-109597895D02*
X123701265Y-109502657D01*
X123701265Y-109502657D02*
X123748884Y-109455038D01*
X123748884Y-109455038D02*
X123844122Y-109407419D01*
X123844122Y-109407419D02*
X124082217Y-109407419D01*
X124082217Y-109407419D02*
X124225074Y-109455038D01*
X125225074Y-110312180D02*
X125177455Y-110359800D01*
X125177455Y-110359800D02*
X125034598Y-110407419D01*
X125034598Y-110407419D02*
X124939360Y-110407419D01*
X124939360Y-110407419D02*
X124796503Y-110359800D01*
X124796503Y-110359800D02*
X124701265Y-110264561D01*
X124701265Y-110264561D02*
X124653646Y-110169323D01*
X124653646Y-110169323D02*
X124606027Y-109978847D01*
X124606027Y-109978847D02*
X124606027Y-109835990D01*
X124606027Y-109835990D02*
X124653646Y-109645514D01*
X124653646Y-109645514D02*
X124701265Y-109550276D01*
X124701265Y-109550276D02*
X124796503Y-109455038D01*
X124796503Y-109455038D02*
X124939360Y-109407419D01*
X124939360Y-109407419D02*
X125034598Y-109407419D01*
X125034598Y-109407419D02*
X125177455Y-109455038D01*
X125177455Y-109455038D02*
X125225074Y-109502657D01*
X125653646Y-110407419D02*
X125653646Y-109407419D01*
X126225074Y-110407419D02*
X125796503Y-109835990D01*
X126225074Y-109407419D02*
X125653646Y-109978847D01*
X122030074Y-116912419D02*
X121553884Y-116912419D01*
X121553884Y-116912419D02*
X121506265Y-117388609D01*
X121506265Y-117388609D02*
X121553884Y-117340990D01*
X121553884Y-117340990D02*
X121649122Y-117293371D01*
X121649122Y-117293371D02*
X121887217Y-117293371D01*
X121887217Y-117293371D02*
X121982455Y-117340990D01*
X121982455Y-117340990D02*
X122030074Y-117388609D01*
X122030074Y-117388609D02*
X122077693Y-117483847D01*
X122077693Y-117483847D02*
X122077693Y-117721942D01*
X122077693Y-117721942D02*
X122030074Y-117817180D01*
X122030074Y-117817180D02*
X121982455Y-117864800D01*
X121982455Y-117864800D02*
X121887217Y-117912419D01*
X121887217Y-117912419D02*
X121649122Y-117912419D01*
X121649122Y-117912419D02*
X121553884Y-117864800D01*
X121553884Y-117864800D02*
X121506265Y-117817180D01*
X122363408Y-116912419D02*
X122696741Y-117912419D01*
X122696741Y-117912419D02*
X123030074Y-116912419D01*
X137125312Y-105682643D02*
X136791979Y-105206452D01*
X136553884Y-105682643D02*
X136553884Y-104682643D01*
X136553884Y-104682643D02*
X136934836Y-104682643D01*
X136934836Y-104682643D02*
X137030074Y-104730262D01*
X137030074Y-104730262D02*
X137077693Y-104777881D01*
X137077693Y-104777881D02*
X137125312Y-104873119D01*
X137125312Y-104873119D02*
X137125312Y-105015976D01*
X137125312Y-105015976D02*
X137077693Y-105111214D01*
X137077693Y-105111214D02*
X137030074Y-105158833D01*
X137030074Y-105158833D02*
X136934836Y-105206452D01*
X136934836Y-105206452D02*
X136553884Y-105206452D01*
X137982455Y-105015976D02*
X137982455Y-105682643D01*
X137553884Y-105015976D02*
X137553884Y-105539785D01*
X137553884Y-105539785D02*
X137601503Y-105635024D01*
X137601503Y-105635024D02*
X137696741Y-105682643D01*
X137696741Y-105682643D02*
X137839598Y-105682643D01*
X137839598Y-105682643D02*
X137934836Y-105635024D01*
X137934836Y-105635024D02*
X137982455Y-105587404D01*
X138411027Y-105635024D02*
X138506265Y-105682643D01*
X138506265Y-105682643D02*
X138696741Y-105682643D01*
X138696741Y-105682643D02*
X138791979Y-105635024D01*
X138791979Y-105635024D02*
X138839598Y-105539785D01*
X138839598Y-105539785D02*
X138839598Y-105492166D01*
X138839598Y-105492166D02*
X138791979Y-105396928D01*
X138791979Y-105396928D02*
X138696741Y-105349309D01*
X138696741Y-105349309D02*
X138553884Y-105349309D01*
X138553884Y-105349309D02*
X138458646Y-105301690D01*
X138458646Y-105301690D02*
X138411027Y-105206452D01*
X138411027Y-105206452D02*
X138411027Y-105158833D01*
X138411027Y-105158833D02*
X138458646Y-105063595D01*
X138458646Y-105063595D02*
X138553884Y-105015976D01*
X138553884Y-105015976D02*
X138696741Y-105015976D01*
X138696741Y-105015976D02*
X138791979Y-105063595D01*
X139125313Y-105015976D02*
X139506265Y-105015976D01*
X139268170Y-104682643D02*
X139268170Y-105539785D01*
X139268170Y-105539785D02*
X139315789Y-105635024D01*
X139315789Y-105635024D02*
X139411027Y-105682643D01*
X139411027Y-105682643D02*
X139506265Y-105682643D01*
X139744361Y-105015976D02*
X139982456Y-105682643D01*
X140220551Y-105015976D02*
X139982456Y-105682643D01*
X139982456Y-105682643D02*
X139887218Y-105920738D01*
X139887218Y-105920738D02*
X139839599Y-105968357D01*
X139839599Y-105968357D02*
X139744361Y-106015976D01*
X141363409Y-105682643D02*
X141363409Y-104682643D01*
X141363409Y-105158833D02*
X141934837Y-105158833D01*
X141934837Y-105682643D02*
X141934837Y-104682643D01*
X142839599Y-105682643D02*
X142839599Y-105158833D01*
X142839599Y-105158833D02*
X142791980Y-105063595D01*
X142791980Y-105063595D02*
X142696742Y-105015976D01*
X142696742Y-105015976D02*
X142506266Y-105015976D01*
X142506266Y-105015976D02*
X142411028Y-105063595D01*
X142839599Y-105635024D02*
X142744361Y-105682643D01*
X142744361Y-105682643D02*
X142506266Y-105682643D01*
X142506266Y-105682643D02*
X142411028Y-105635024D01*
X142411028Y-105635024D02*
X142363409Y-105539785D01*
X142363409Y-105539785D02*
X142363409Y-105444547D01*
X142363409Y-105444547D02*
X142411028Y-105349309D01*
X142411028Y-105349309D02*
X142506266Y-105301690D01*
X142506266Y-105301690D02*
X142744361Y-105301690D01*
X142744361Y-105301690D02*
X142839599Y-105254071D01*
X143315790Y-105015976D02*
X143315790Y-105682643D01*
X143315790Y-105111214D02*
X143363409Y-105063595D01*
X143363409Y-105063595D02*
X143458647Y-105015976D01*
X143458647Y-105015976D02*
X143601504Y-105015976D01*
X143601504Y-105015976D02*
X143696742Y-105063595D01*
X143696742Y-105063595D02*
X143744361Y-105158833D01*
X143744361Y-105158833D02*
X143744361Y-105682643D01*
X144649123Y-105015976D02*
X144649123Y-105825500D01*
X144649123Y-105825500D02*
X144601504Y-105920738D01*
X144601504Y-105920738D02*
X144553885Y-105968357D01*
X144553885Y-105968357D02*
X144458647Y-106015976D01*
X144458647Y-106015976D02*
X144315790Y-106015976D01*
X144315790Y-106015976D02*
X144220552Y-105968357D01*
X144649123Y-105635024D02*
X144553885Y-105682643D01*
X144553885Y-105682643D02*
X144363409Y-105682643D01*
X144363409Y-105682643D02*
X144268171Y-105635024D01*
X144268171Y-105635024D02*
X144220552Y-105587404D01*
X144220552Y-105587404D02*
X144172933Y-105492166D01*
X144172933Y-105492166D02*
X144172933Y-105206452D01*
X144172933Y-105206452D02*
X144220552Y-105111214D01*
X144220552Y-105111214D02*
X144268171Y-105063595D01*
X144268171Y-105063595D02*
X144363409Y-105015976D01*
X144363409Y-105015976D02*
X144553885Y-105015976D01*
X144553885Y-105015976D02*
X144649123Y-105063595D01*
X145553885Y-105015976D02*
X145553885Y-105682643D01*
X145125314Y-105015976D02*
X145125314Y-105539785D01*
X145125314Y-105539785D02*
X145172933Y-105635024D01*
X145172933Y-105635024D02*
X145268171Y-105682643D01*
X145268171Y-105682643D02*
X145411028Y-105682643D01*
X145411028Y-105682643D02*
X145506266Y-105635024D01*
X145506266Y-105635024D02*
X145553885Y-105587404D01*
X146172933Y-105682643D02*
X146077695Y-105635024D01*
X146077695Y-105635024D02*
X146030076Y-105539785D01*
X146030076Y-105539785D02*
X146030076Y-104682643D01*
X147125314Y-105587404D02*
X147077695Y-105635024D01*
X147077695Y-105635024D02*
X146934838Y-105682643D01*
X146934838Y-105682643D02*
X146839600Y-105682643D01*
X146839600Y-105682643D02*
X146696743Y-105635024D01*
X146696743Y-105635024D02*
X146601505Y-105539785D01*
X146601505Y-105539785D02*
X146553886Y-105444547D01*
X146553886Y-105444547D02*
X146506267Y-105254071D01*
X146506267Y-105254071D02*
X146506267Y-105111214D01*
X146506267Y-105111214D02*
X146553886Y-104920738D01*
X146553886Y-104920738D02*
X146601505Y-104825500D01*
X146601505Y-104825500D02*
X146696743Y-104730262D01*
X146696743Y-104730262D02*
X146839600Y-104682643D01*
X146839600Y-104682643D02*
X146934838Y-104682643D01*
X146934838Y-104682643D02*
X147077695Y-104730262D01*
X147077695Y-104730262D02*
X147125314Y-104777881D01*
X147696743Y-105682643D02*
X147601505Y-105635024D01*
X147601505Y-105635024D02*
X147553886Y-105539785D01*
X147553886Y-105539785D02*
X147553886Y-104682643D01*
X148220553Y-105682643D02*
X148125315Y-105635024D01*
X148125315Y-105635024D02*
X148077696Y-105587404D01*
X148077696Y-105587404D02*
X148030077Y-105492166D01*
X148030077Y-105492166D02*
X148030077Y-105206452D01*
X148030077Y-105206452D02*
X148077696Y-105111214D01*
X148077696Y-105111214D02*
X148125315Y-105063595D01*
X148125315Y-105063595D02*
X148220553Y-105015976D01*
X148220553Y-105015976D02*
X148363410Y-105015976D01*
X148363410Y-105015976D02*
X148458648Y-105063595D01*
X148458648Y-105063595D02*
X148506267Y-105111214D01*
X148506267Y-105111214D02*
X148553886Y-105206452D01*
X148553886Y-105206452D02*
X148553886Y-105492166D01*
X148553886Y-105492166D02*
X148506267Y-105587404D01*
X148506267Y-105587404D02*
X148458648Y-105635024D01*
X148458648Y-105635024D02*
X148363410Y-105682643D01*
X148363410Y-105682643D02*
X148220553Y-105682643D01*
X149411029Y-105635024D02*
X149315791Y-105682643D01*
X149315791Y-105682643D02*
X149125315Y-105682643D01*
X149125315Y-105682643D02*
X149030077Y-105635024D01*
X149030077Y-105635024D02*
X148982458Y-105587404D01*
X148982458Y-105587404D02*
X148934839Y-105492166D01*
X148934839Y-105492166D02*
X148934839Y-105206452D01*
X148934839Y-105206452D02*
X148982458Y-105111214D01*
X148982458Y-105111214D02*
X149030077Y-105063595D01*
X149030077Y-105063595D02*
X149125315Y-105015976D01*
X149125315Y-105015976D02*
X149315791Y-105015976D01*
X149315791Y-105015976D02*
X149411029Y-105063595D01*
X149839601Y-105682643D02*
X149839601Y-104682643D01*
X149934839Y-105301690D02*
X150220553Y-105682643D01*
X150220553Y-105015976D02*
X149839601Y-105396928D01*
X136887217Y-106768777D02*
X137030074Y-106816396D01*
X137030074Y-106816396D02*
X137077693Y-106864015D01*
X137077693Y-106864015D02*
X137125312Y-106959253D01*
X137125312Y-106959253D02*
X137125312Y-107102110D01*
X137125312Y-107102110D02*
X137077693Y-107197348D01*
X137077693Y-107197348D02*
X137030074Y-107244968D01*
X137030074Y-107244968D02*
X136934836Y-107292587D01*
X136934836Y-107292587D02*
X136553884Y-107292587D01*
X136553884Y-107292587D02*
X136553884Y-106292587D01*
X136553884Y-106292587D02*
X136887217Y-106292587D01*
X136887217Y-106292587D02*
X136982455Y-106340206D01*
X136982455Y-106340206D02*
X137030074Y-106387825D01*
X137030074Y-106387825D02*
X137077693Y-106483063D01*
X137077693Y-106483063D02*
X137077693Y-106578301D01*
X137077693Y-106578301D02*
X137030074Y-106673539D01*
X137030074Y-106673539D02*
X136982455Y-106721158D01*
X136982455Y-106721158D02*
X136887217Y-106768777D01*
X136887217Y-106768777D02*
X136553884Y-106768777D01*
X137458646Y-106625920D02*
X137696741Y-107292587D01*
X137934836Y-106625920D02*
X137696741Y-107292587D01*
X137696741Y-107292587D02*
X137601503Y-107530682D01*
X137601503Y-107530682D02*
X137553884Y-107578301D01*
X137553884Y-107578301D02*
X137458646Y-107625920D01*
X139077694Y-107292587D02*
X139077694Y-106292587D01*
X139077694Y-106768777D02*
X139649122Y-106768777D01*
X139649122Y-107292587D02*
X139649122Y-106292587D01*
X140268170Y-107292587D02*
X140172932Y-107244968D01*
X140172932Y-107244968D02*
X140125313Y-107197348D01*
X140125313Y-107197348D02*
X140077694Y-107102110D01*
X140077694Y-107102110D02*
X140077694Y-106816396D01*
X140077694Y-106816396D02*
X140125313Y-106721158D01*
X140125313Y-106721158D02*
X140172932Y-106673539D01*
X140172932Y-106673539D02*
X140268170Y-106625920D01*
X140268170Y-106625920D02*
X140411027Y-106625920D01*
X140411027Y-106625920D02*
X140506265Y-106673539D01*
X140506265Y-106673539D02*
X140553884Y-106721158D01*
X140553884Y-106721158D02*
X140601503Y-106816396D01*
X140601503Y-106816396D02*
X140601503Y-107102110D01*
X140601503Y-107102110D02*
X140553884Y-107197348D01*
X140553884Y-107197348D02*
X140506265Y-107244968D01*
X140506265Y-107244968D02*
X140411027Y-107292587D01*
X140411027Y-107292587D02*
X140268170Y-107292587D01*
X141030075Y-107292587D02*
X141030075Y-106625920D01*
X141030075Y-106721158D02*
X141077694Y-106673539D01*
X141077694Y-106673539D02*
X141172932Y-106625920D01*
X141172932Y-106625920D02*
X141315789Y-106625920D01*
X141315789Y-106625920D02*
X141411027Y-106673539D01*
X141411027Y-106673539D02*
X141458646Y-106768777D01*
X141458646Y-106768777D02*
X141458646Y-107292587D01*
X141458646Y-106768777D02*
X141506265Y-106673539D01*
X141506265Y-106673539D02*
X141601503Y-106625920D01*
X141601503Y-106625920D02*
X141744360Y-106625920D01*
X141744360Y-106625920D02*
X141839599Y-106673539D01*
X141839599Y-106673539D02*
X141887218Y-106768777D01*
X141887218Y-106768777D02*
X141887218Y-107292587D01*
X142363408Y-107292587D02*
X142363408Y-106625920D01*
X142363408Y-106292587D02*
X142315789Y-106340206D01*
X142315789Y-106340206D02*
X142363408Y-106387825D01*
X142363408Y-106387825D02*
X142411027Y-106340206D01*
X142411027Y-106340206D02*
X142363408Y-106292587D01*
X142363408Y-106292587D02*
X142363408Y-106387825D01*
X142839598Y-106625920D02*
X142839598Y-107292587D01*
X142839598Y-106721158D02*
X142887217Y-106673539D01*
X142887217Y-106673539D02*
X142982455Y-106625920D01*
X142982455Y-106625920D02*
X143125312Y-106625920D01*
X143125312Y-106625920D02*
X143220550Y-106673539D01*
X143220550Y-106673539D02*
X143268169Y-106768777D01*
X143268169Y-106768777D02*
X143268169Y-107292587D01*
X144982455Y-107292587D02*
X144506265Y-107292587D01*
X144506265Y-107292587D02*
X144506265Y-106292587D01*
X145696741Y-107244968D02*
X145601503Y-107292587D01*
X145601503Y-107292587D02*
X145411027Y-107292587D01*
X145411027Y-107292587D02*
X145315789Y-107244968D01*
X145315789Y-107244968D02*
X145268170Y-107149729D01*
X145268170Y-107149729D02*
X145268170Y-106768777D01*
X145268170Y-106768777D02*
X145315789Y-106673539D01*
X145315789Y-106673539D02*
X145411027Y-106625920D01*
X145411027Y-106625920D02*
X145601503Y-106625920D01*
X145601503Y-106625920D02*
X145696741Y-106673539D01*
X145696741Y-106673539D02*
X145744360Y-106768777D01*
X145744360Y-106768777D02*
X145744360Y-106864015D01*
X145744360Y-106864015D02*
X145268170Y-106959253D01*
X146553884Y-107244968D02*
X146458646Y-107292587D01*
X146458646Y-107292587D02*
X146268170Y-107292587D01*
X146268170Y-107292587D02*
X146172932Y-107244968D01*
X146172932Y-107244968D02*
X146125313Y-107149729D01*
X146125313Y-107149729D02*
X146125313Y-106768777D01*
X146125313Y-106768777D02*
X146172932Y-106673539D01*
X146172932Y-106673539D02*
X146268170Y-106625920D01*
X146268170Y-106625920D02*
X146458646Y-106625920D01*
X146458646Y-106625920D02*
X146553884Y-106673539D01*
X146553884Y-106673539D02*
X146601503Y-106768777D01*
X146601503Y-106768777D02*
X146601503Y-106864015D01*
X146601503Y-106864015D02*
X146125313Y-106959253D01*
X136887217Y-108378721D02*
X136553884Y-108378721D01*
X136553884Y-108902531D02*
X136553884Y-107902531D01*
X136553884Y-107902531D02*
X137030074Y-107902531D01*
X137791979Y-108854912D02*
X137696741Y-108902531D01*
X137696741Y-108902531D02*
X137506265Y-108902531D01*
X137506265Y-108902531D02*
X137411027Y-108854912D01*
X137411027Y-108854912D02*
X137363408Y-108759673D01*
X137363408Y-108759673D02*
X137363408Y-108378721D01*
X137363408Y-108378721D02*
X137411027Y-108283483D01*
X137411027Y-108283483D02*
X137506265Y-108235864D01*
X137506265Y-108235864D02*
X137696741Y-108235864D01*
X137696741Y-108235864D02*
X137791979Y-108283483D01*
X137791979Y-108283483D02*
X137839598Y-108378721D01*
X137839598Y-108378721D02*
X137839598Y-108473959D01*
X137839598Y-108473959D02*
X137363408Y-108569197D01*
X138268170Y-108902531D02*
X138268170Y-107902531D01*
X138268170Y-108283483D02*
X138363408Y-108235864D01*
X138363408Y-108235864D02*
X138553884Y-108235864D01*
X138553884Y-108235864D02*
X138649122Y-108283483D01*
X138649122Y-108283483D02*
X138696741Y-108331102D01*
X138696741Y-108331102D02*
X138744360Y-108426340D01*
X138744360Y-108426340D02*
X138744360Y-108712054D01*
X138744360Y-108712054D02*
X138696741Y-108807292D01*
X138696741Y-108807292D02*
X138649122Y-108854912D01*
X138649122Y-108854912D02*
X138553884Y-108902531D01*
X138553884Y-108902531D02*
X138363408Y-108902531D01*
X138363408Y-108902531D02*
X138268170Y-108854912D01*
X139887218Y-107997769D02*
X139934837Y-107950150D01*
X139934837Y-107950150D02*
X140030075Y-107902531D01*
X140030075Y-107902531D02*
X140268170Y-107902531D01*
X140268170Y-107902531D02*
X140363408Y-107950150D01*
X140363408Y-107950150D02*
X140411027Y-107997769D01*
X140411027Y-107997769D02*
X140458646Y-108093007D01*
X140458646Y-108093007D02*
X140458646Y-108188245D01*
X140458646Y-108188245D02*
X140411027Y-108331102D01*
X140411027Y-108331102D02*
X139839599Y-108902531D01*
X139839599Y-108902531D02*
X140458646Y-108902531D01*
X141077694Y-107902531D02*
X141172932Y-107902531D01*
X141172932Y-107902531D02*
X141268170Y-107950150D01*
X141268170Y-107950150D02*
X141315789Y-107997769D01*
X141315789Y-107997769D02*
X141363408Y-108093007D01*
X141363408Y-108093007D02*
X141411027Y-108283483D01*
X141411027Y-108283483D02*
X141411027Y-108521578D01*
X141411027Y-108521578D02*
X141363408Y-108712054D01*
X141363408Y-108712054D02*
X141315789Y-108807292D01*
X141315789Y-108807292D02*
X141268170Y-108854912D01*
X141268170Y-108854912D02*
X141172932Y-108902531D01*
X141172932Y-108902531D02*
X141077694Y-108902531D01*
X141077694Y-108902531D02*
X140982456Y-108854912D01*
X140982456Y-108854912D02*
X140934837Y-108807292D01*
X140934837Y-108807292D02*
X140887218Y-108712054D01*
X140887218Y-108712054D02*
X140839599Y-108521578D01*
X140839599Y-108521578D02*
X140839599Y-108283483D01*
X140839599Y-108283483D02*
X140887218Y-108093007D01*
X140887218Y-108093007D02*
X140934837Y-107997769D01*
X140934837Y-107997769D02*
X140982456Y-107950150D01*
X140982456Y-107950150D02*
X141077694Y-107902531D01*
X141791980Y-107997769D02*
X141839599Y-107950150D01*
X141839599Y-107950150D02*
X141934837Y-107902531D01*
X141934837Y-107902531D02*
X142172932Y-107902531D01*
X142172932Y-107902531D02*
X142268170Y-107950150D01*
X142268170Y-107950150D02*
X142315789Y-107997769D01*
X142315789Y-107997769D02*
X142363408Y-108093007D01*
X142363408Y-108093007D02*
X142363408Y-108188245D01*
X142363408Y-108188245D02*
X142315789Y-108331102D01*
X142315789Y-108331102D02*
X141744361Y-108902531D01*
X141744361Y-108902531D02*
X142363408Y-108902531D01*
X143268170Y-107902531D02*
X142791980Y-107902531D01*
X142791980Y-107902531D02*
X142744361Y-108378721D01*
X142744361Y-108378721D02*
X142791980Y-108331102D01*
X142791980Y-108331102D02*
X142887218Y-108283483D01*
X142887218Y-108283483D02*
X143125313Y-108283483D01*
X143125313Y-108283483D02*
X143220551Y-108331102D01*
X143220551Y-108331102D02*
X143268170Y-108378721D01*
X143268170Y-108378721D02*
X143315789Y-108473959D01*
X143315789Y-108473959D02*
X143315789Y-108712054D01*
X143315789Y-108712054D02*
X143268170Y-108807292D01*
X143268170Y-108807292D02*
X143220551Y-108854912D01*
X143220551Y-108854912D02*
X143125313Y-108902531D01*
X143125313Y-108902531D02*
X142887218Y-108902531D01*
X142887218Y-108902531D02*
X142791980Y-108854912D01*
X142791980Y-108854912D02*
X142744361Y-108807292D01*
X136553884Y-110512475D02*
X136553884Y-109512475D01*
X136982455Y-110512475D02*
X136982455Y-109988665D01*
X136982455Y-109988665D02*
X136934836Y-109893427D01*
X136934836Y-109893427D02*
X136839598Y-109845808D01*
X136839598Y-109845808D02*
X136696741Y-109845808D01*
X136696741Y-109845808D02*
X136601503Y-109893427D01*
X136601503Y-109893427D02*
X136553884Y-109941046D01*
X137315789Y-109845808D02*
X137696741Y-109845808D01*
X137458646Y-109512475D02*
X137458646Y-110369617D01*
X137458646Y-110369617D02*
X137506265Y-110464856D01*
X137506265Y-110464856D02*
X137601503Y-110512475D01*
X137601503Y-110512475D02*
X137696741Y-110512475D01*
X137887218Y-109845808D02*
X138268170Y-109845808D01*
X138030075Y-109512475D02*
X138030075Y-110369617D01*
X138030075Y-110369617D02*
X138077694Y-110464856D01*
X138077694Y-110464856D02*
X138172932Y-110512475D01*
X138172932Y-110512475D02*
X138268170Y-110512475D01*
X138601504Y-109845808D02*
X138601504Y-110845808D01*
X138601504Y-109893427D02*
X138696742Y-109845808D01*
X138696742Y-109845808D02*
X138887218Y-109845808D01*
X138887218Y-109845808D02*
X138982456Y-109893427D01*
X138982456Y-109893427D02*
X139030075Y-109941046D01*
X139030075Y-109941046D02*
X139077694Y-110036284D01*
X139077694Y-110036284D02*
X139077694Y-110321998D01*
X139077694Y-110321998D02*
X139030075Y-110417236D01*
X139030075Y-110417236D02*
X138982456Y-110464856D01*
X138982456Y-110464856D02*
X138887218Y-110512475D01*
X138887218Y-110512475D02*
X138696742Y-110512475D01*
X138696742Y-110512475D02*
X138601504Y-110464856D01*
X139458647Y-110464856D02*
X139553885Y-110512475D01*
X139553885Y-110512475D02*
X139744361Y-110512475D01*
X139744361Y-110512475D02*
X139839599Y-110464856D01*
X139839599Y-110464856D02*
X139887218Y-110369617D01*
X139887218Y-110369617D02*
X139887218Y-110321998D01*
X139887218Y-110321998D02*
X139839599Y-110226760D01*
X139839599Y-110226760D02*
X139744361Y-110179141D01*
X139744361Y-110179141D02*
X139601504Y-110179141D01*
X139601504Y-110179141D02*
X139506266Y-110131522D01*
X139506266Y-110131522D02*
X139458647Y-110036284D01*
X139458647Y-110036284D02*
X139458647Y-109988665D01*
X139458647Y-109988665D02*
X139506266Y-109893427D01*
X139506266Y-109893427D02*
X139601504Y-109845808D01*
X139601504Y-109845808D02*
X139744361Y-109845808D01*
X139744361Y-109845808D02*
X139839599Y-109893427D01*
X140315790Y-110417236D02*
X140363409Y-110464856D01*
X140363409Y-110464856D02*
X140315790Y-110512475D01*
X140315790Y-110512475D02*
X140268171Y-110464856D01*
X140268171Y-110464856D02*
X140315790Y-110417236D01*
X140315790Y-110417236D02*
X140315790Y-110512475D01*
X140315790Y-109893427D02*
X140363409Y-109941046D01*
X140363409Y-109941046D02*
X140315790Y-109988665D01*
X140315790Y-109988665D02*
X140268171Y-109941046D01*
X140268171Y-109941046D02*
X140315790Y-109893427D01*
X140315790Y-109893427D02*
X140315790Y-109988665D01*
X141506265Y-109464856D02*
X140649123Y-110750570D01*
X142553884Y-109464856D02*
X141696742Y-110750570D01*
X143315789Y-109845808D02*
X143315789Y-110655332D01*
X143315789Y-110655332D02*
X143268170Y-110750570D01*
X143268170Y-110750570D02*
X143220551Y-110798189D01*
X143220551Y-110798189D02*
X143125313Y-110845808D01*
X143125313Y-110845808D02*
X142982456Y-110845808D01*
X142982456Y-110845808D02*
X142887218Y-110798189D01*
X143315789Y-110464856D02*
X143220551Y-110512475D01*
X143220551Y-110512475D02*
X143030075Y-110512475D01*
X143030075Y-110512475D02*
X142934837Y-110464856D01*
X142934837Y-110464856D02*
X142887218Y-110417236D01*
X142887218Y-110417236D02*
X142839599Y-110321998D01*
X142839599Y-110321998D02*
X142839599Y-110036284D01*
X142839599Y-110036284D02*
X142887218Y-109941046D01*
X142887218Y-109941046D02*
X142934837Y-109893427D01*
X142934837Y-109893427D02*
X143030075Y-109845808D01*
X143030075Y-109845808D02*
X143220551Y-109845808D01*
X143220551Y-109845808D02*
X143315789Y-109893427D01*
X143791980Y-110512475D02*
X143791980Y-109845808D01*
X143791980Y-109512475D02*
X143744361Y-109560094D01*
X143744361Y-109560094D02*
X143791980Y-109607713D01*
X143791980Y-109607713D02*
X143839599Y-109560094D01*
X143839599Y-109560094D02*
X143791980Y-109512475D01*
X143791980Y-109512475D02*
X143791980Y-109607713D01*
X144125313Y-109845808D02*
X144506265Y-109845808D01*
X144268170Y-109512475D02*
X144268170Y-110369617D01*
X144268170Y-110369617D02*
X144315789Y-110464856D01*
X144315789Y-110464856D02*
X144411027Y-110512475D01*
X144411027Y-110512475D02*
X144506265Y-110512475D01*
X144839599Y-110512475D02*
X144839599Y-109512475D01*
X145268170Y-110512475D02*
X145268170Y-109988665D01*
X145268170Y-109988665D02*
X145220551Y-109893427D01*
X145220551Y-109893427D02*
X145125313Y-109845808D01*
X145125313Y-109845808D02*
X144982456Y-109845808D01*
X144982456Y-109845808D02*
X144887218Y-109893427D01*
X144887218Y-109893427D02*
X144839599Y-109941046D01*
X146172932Y-109845808D02*
X146172932Y-110512475D01*
X145744361Y-109845808D02*
X145744361Y-110369617D01*
X145744361Y-110369617D02*
X145791980Y-110464856D01*
X145791980Y-110464856D02*
X145887218Y-110512475D01*
X145887218Y-110512475D02*
X146030075Y-110512475D01*
X146030075Y-110512475D02*
X146125313Y-110464856D01*
X146125313Y-110464856D02*
X146172932Y-110417236D01*
X146649123Y-110512475D02*
X146649123Y-109512475D01*
X146649123Y-109893427D02*
X146744361Y-109845808D01*
X146744361Y-109845808D02*
X146934837Y-109845808D01*
X146934837Y-109845808D02*
X147030075Y-109893427D01*
X147030075Y-109893427D02*
X147077694Y-109941046D01*
X147077694Y-109941046D02*
X147125313Y-110036284D01*
X147125313Y-110036284D02*
X147125313Y-110321998D01*
X147125313Y-110321998D02*
X147077694Y-110417236D01*
X147077694Y-110417236D02*
X147030075Y-110464856D01*
X147030075Y-110464856D02*
X146934837Y-110512475D01*
X146934837Y-110512475D02*
X146744361Y-110512475D01*
X146744361Y-110512475D02*
X146649123Y-110464856D01*
X147553885Y-110417236D02*
X147601504Y-110464856D01*
X147601504Y-110464856D02*
X147553885Y-110512475D01*
X147553885Y-110512475D02*
X147506266Y-110464856D01*
X147506266Y-110464856D02*
X147553885Y-110417236D01*
X147553885Y-110417236D02*
X147553885Y-110512475D01*
X148458646Y-110464856D02*
X148363408Y-110512475D01*
X148363408Y-110512475D02*
X148172932Y-110512475D01*
X148172932Y-110512475D02*
X148077694Y-110464856D01*
X148077694Y-110464856D02*
X148030075Y-110417236D01*
X148030075Y-110417236D02*
X147982456Y-110321998D01*
X147982456Y-110321998D02*
X147982456Y-110036284D01*
X147982456Y-110036284D02*
X148030075Y-109941046D01*
X148030075Y-109941046D02*
X148077694Y-109893427D01*
X148077694Y-109893427D02*
X148172932Y-109845808D01*
X148172932Y-109845808D02*
X148363408Y-109845808D01*
X148363408Y-109845808D02*
X148458646Y-109893427D01*
X149030075Y-110512475D02*
X148934837Y-110464856D01*
X148934837Y-110464856D02*
X148887218Y-110417236D01*
X148887218Y-110417236D02*
X148839599Y-110321998D01*
X148839599Y-110321998D02*
X148839599Y-110036284D01*
X148839599Y-110036284D02*
X148887218Y-109941046D01*
X148887218Y-109941046D02*
X148934837Y-109893427D01*
X148934837Y-109893427D02*
X149030075Y-109845808D01*
X149030075Y-109845808D02*
X149172932Y-109845808D01*
X149172932Y-109845808D02*
X149268170Y-109893427D01*
X149268170Y-109893427D02*
X149315789Y-109941046D01*
X149315789Y-109941046D02*
X149363408Y-110036284D01*
X149363408Y-110036284D02*
X149363408Y-110321998D01*
X149363408Y-110321998D02*
X149315789Y-110417236D01*
X149315789Y-110417236D02*
X149268170Y-110464856D01*
X149268170Y-110464856D02*
X149172932Y-110512475D01*
X149172932Y-110512475D02*
X149030075Y-110512475D01*
X149791980Y-110512475D02*
X149791980Y-109845808D01*
X149791980Y-109941046D02*
X149839599Y-109893427D01*
X149839599Y-109893427D02*
X149934837Y-109845808D01*
X149934837Y-109845808D02*
X150077694Y-109845808D01*
X150077694Y-109845808D02*
X150172932Y-109893427D01*
X150172932Y-109893427D02*
X150220551Y-109988665D01*
X150220551Y-109988665D02*
X150220551Y-110512475D01*
X150220551Y-109988665D02*
X150268170Y-109893427D01*
X150268170Y-109893427D02*
X150363408Y-109845808D01*
X150363408Y-109845808D02*
X150506265Y-109845808D01*
X150506265Y-109845808D02*
X150601504Y-109893427D01*
X150601504Y-109893427D02*
X150649123Y-109988665D01*
X150649123Y-109988665D02*
X150649123Y-110512475D01*
X151839598Y-109464856D02*
X150982456Y-110750570D01*
X140268169Y-112074800D02*
X140363407Y-112122419D01*
X140363407Y-112122419D02*
X140553883Y-112122419D01*
X140553883Y-112122419D02*
X140649121Y-112074800D01*
X140649121Y-112074800D02*
X140696740Y-111979561D01*
X140696740Y-111979561D02*
X140696740Y-111931942D01*
X140696740Y-111931942D02*
X140649121Y-111836704D01*
X140649121Y-111836704D02*
X140553883Y-111789085D01*
X140553883Y-111789085D02*
X140411026Y-111789085D01*
X140411026Y-111789085D02*
X140315788Y-111741466D01*
X140315788Y-111741466D02*
X140268169Y-111646228D01*
X140268169Y-111646228D02*
X140268169Y-111598609D01*
X140268169Y-111598609D02*
X140315788Y-111503371D01*
X140315788Y-111503371D02*
X140411026Y-111455752D01*
X140411026Y-111455752D02*
X140553883Y-111455752D01*
X140553883Y-111455752D02*
X140649121Y-111503371D01*
X141553883Y-111455752D02*
X141553883Y-112122419D01*
X141125312Y-111455752D02*
X141125312Y-111979561D01*
X141125312Y-111979561D02*
X141172931Y-112074800D01*
X141172931Y-112074800D02*
X141268169Y-112122419D01*
X141268169Y-112122419D02*
X141411026Y-112122419D01*
X141411026Y-112122419D02*
X141506264Y-112074800D01*
X141506264Y-112074800D02*
X141553883Y-112027180D01*
X142458645Y-112122419D02*
X142458645Y-111598609D01*
X142458645Y-111598609D02*
X142411026Y-111503371D01*
X142411026Y-111503371D02*
X142315788Y-111455752D01*
X142315788Y-111455752D02*
X142125312Y-111455752D01*
X142125312Y-111455752D02*
X142030074Y-111503371D01*
X142458645Y-112074800D02*
X142363407Y-112122419D01*
X142363407Y-112122419D02*
X142125312Y-112122419D01*
X142125312Y-112122419D02*
X142030074Y-112074800D01*
X142030074Y-112074800D02*
X141982455Y-111979561D01*
X141982455Y-111979561D02*
X141982455Y-111884323D01*
X141982455Y-111884323D02*
X142030074Y-111789085D01*
X142030074Y-111789085D02*
X142125312Y-111741466D01*
X142125312Y-111741466D02*
X142363407Y-111741466D01*
X142363407Y-111741466D02*
X142458645Y-111693847D01*
X142934836Y-111455752D02*
X142934836Y-112455752D01*
X142934836Y-111503371D02*
X143030074Y-111455752D01*
X143030074Y-111455752D02*
X143220550Y-111455752D01*
X143220550Y-111455752D02*
X143315788Y-111503371D01*
X143315788Y-111503371D02*
X143363407Y-111550990D01*
X143363407Y-111550990D02*
X143411026Y-111646228D01*
X143411026Y-111646228D02*
X143411026Y-111931942D01*
X143411026Y-111931942D02*
X143363407Y-112027180D01*
X143363407Y-112027180D02*
X143315788Y-112074800D01*
X143315788Y-112074800D02*
X143220550Y-112122419D01*
X143220550Y-112122419D02*
X143030074Y-112122419D01*
X143030074Y-112122419D02*
X142934836Y-112074800D01*
X144268169Y-112122419D02*
X144268169Y-111598609D01*
X144268169Y-111598609D02*
X144220550Y-111503371D01*
X144220550Y-111503371D02*
X144125312Y-111455752D01*
X144125312Y-111455752D02*
X143934836Y-111455752D01*
X143934836Y-111455752D02*
X143839598Y-111503371D01*
X144268169Y-112074800D02*
X144172931Y-112122419D01*
X144172931Y-112122419D02*
X143934836Y-112122419D01*
X143934836Y-112122419D02*
X143839598Y-112074800D01*
X143839598Y-112074800D02*
X143791979Y-111979561D01*
X143791979Y-111979561D02*
X143791979Y-111884323D01*
X143791979Y-111884323D02*
X143839598Y-111789085D01*
X143839598Y-111789085D02*
X143934836Y-111741466D01*
X143934836Y-111741466D02*
X144172931Y-111741466D01*
X144172931Y-111741466D02*
X144268169Y-111693847D01*
X144744360Y-111455752D02*
X144744360Y-112455752D01*
X144744360Y-111503371D02*
X144839598Y-111455752D01*
X144839598Y-111455752D02*
X145030074Y-111455752D01*
X145030074Y-111455752D02*
X145125312Y-111503371D01*
X145125312Y-111503371D02*
X145172931Y-111550990D01*
X145172931Y-111550990D02*
X145220550Y-111646228D01*
X145220550Y-111646228D02*
X145220550Y-111931942D01*
X145220550Y-111931942D02*
X145172931Y-112027180D01*
X145172931Y-112027180D02*
X145125312Y-112074800D01*
X145125312Y-112074800D02*
X145030074Y-112122419D01*
X145030074Y-112122419D02*
X144839598Y-112122419D01*
X144839598Y-112122419D02*
X144744360Y-112074800D01*
X146077693Y-112122419D02*
X146077693Y-111598609D01*
X146077693Y-111598609D02*
X146030074Y-111503371D01*
X146030074Y-111503371D02*
X145934836Y-111455752D01*
X145934836Y-111455752D02*
X145744360Y-111455752D01*
X145744360Y-111455752D02*
X145649122Y-111503371D01*
X146077693Y-112074800D02*
X145982455Y-112122419D01*
X145982455Y-112122419D02*
X145744360Y-112122419D01*
X145744360Y-112122419D02*
X145649122Y-112074800D01*
X145649122Y-112074800D02*
X145601503Y-111979561D01*
X145601503Y-111979561D02*
X145601503Y-111884323D01*
X145601503Y-111884323D02*
X145649122Y-111789085D01*
X145649122Y-111789085D02*
X145744360Y-111741466D01*
X145744360Y-111741466D02*
X145982455Y-111741466D01*
X145982455Y-111741466D02*
X146077693Y-111693847D01*
X147268169Y-111074800D02*
X146411027Y-112360514D01*
X147601503Y-112122419D02*
X147601503Y-111122419D01*
X147601503Y-111598609D02*
X148172931Y-111598609D01*
X148172931Y-112122419D02*
X148172931Y-111122419D01*
X149077693Y-112122419D02*
X149077693Y-111598609D01*
X149077693Y-111598609D02*
X149030074Y-111503371D01*
X149030074Y-111503371D02*
X148934836Y-111455752D01*
X148934836Y-111455752D02*
X148744360Y-111455752D01*
X148744360Y-111455752D02*
X148649122Y-111503371D01*
X149077693Y-112074800D02*
X148982455Y-112122419D01*
X148982455Y-112122419D02*
X148744360Y-112122419D01*
X148744360Y-112122419D02*
X148649122Y-112074800D01*
X148649122Y-112074800D02*
X148601503Y-111979561D01*
X148601503Y-111979561D02*
X148601503Y-111884323D01*
X148601503Y-111884323D02*
X148649122Y-111789085D01*
X148649122Y-111789085D02*
X148744360Y-111741466D01*
X148744360Y-111741466D02*
X148982455Y-111741466D01*
X148982455Y-111741466D02*
X149077693Y-111693847D01*
X149553884Y-111455752D02*
X149553884Y-112122419D01*
X149553884Y-111550990D02*
X149601503Y-111503371D01*
X149601503Y-111503371D02*
X149696741Y-111455752D01*
X149696741Y-111455752D02*
X149839598Y-111455752D01*
X149839598Y-111455752D02*
X149934836Y-111503371D01*
X149934836Y-111503371D02*
X149982455Y-111598609D01*
X149982455Y-111598609D02*
X149982455Y-112122419D01*
X150887217Y-111455752D02*
X150887217Y-112265276D01*
X150887217Y-112265276D02*
X150839598Y-112360514D01*
X150839598Y-112360514D02*
X150791979Y-112408133D01*
X150791979Y-112408133D02*
X150696741Y-112455752D01*
X150696741Y-112455752D02*
X150553884Y-112455752D01*
X150553884Y-112455752D02*
X150458646Y-112408133D01*
X150887217Y-112074800D02*
X150791979Y-112122419D01*
X150791979Y-112122419D02*
X150601503Y-112122419D01*
X150601503Y-112122419D02*
X150506265Y-112074800D01*
X150506265Y-112074800D02*
X150458646Y-112027180D01*
X150458646Y-112027180D02*
X150411027Y-111931942D01*
X150411027Y-111931942D02*
X150411027Y-111646228D01*
X150411027Y-111646228D02*
X150458646Y-111550990D01*
X150458646Y-111550990D02*
X150506265Y-111503371D01*
X150506265Y-111503371D02*
X150601503Y-111455752D01*
X150601503Y-111455752D02*
X150791979Y-111455752D01*
X150791979Y-111455752D02*
X150887217Y-111503371D01*
X151791979Y-111455752D02*
X151791979Y-112122419D01*
X151363408Y-111455752D02*
X151363408Y-111979561D01*
X151363408Y-111979561D02*
X151411027Y-112074800D01*
X151411027Y-112074800D02*
X151506265Y-112122419D01*
X151506265Y-112122419D02*
X151649122Y-112122419D01*
X151649122Y-112122419D02*
X151744360Y-112074800D01*
X151744360Y-112074800D02*
X151791979Y-112027180D01*
X152411027Y-112122419D02*
X152315789Y-112074800D01*
X152315789Y-112074800D02*
X152268170Y-111979561D01*
X152268170Y-111979561D02*
X152268170Y-111122419D01*
X153363408Y-112027180D02*
X153315789Y-112074800D01*
X153315789Y-112074800D02*
X153172932Y-112122419D01*
X153172932Y-112122419D02*
X153077694Y-112122419D01*
X153077694Y-112122419D02*
X152934837Y-112074800D01*
X152934837Y-112074800D02*
X152839599Y-111979561D01*
X152839599Y-111979561D02*
X152791980Y-111884323D01*
X152791980Y-111884323D02*
X152744361Y-111693847D01*
X152744361Y-111693847D02*
X152744361Y-111550990D01*
X152744361Y-111550990D02*
X152791980Y-111360514D01*
X152791980Y-111360514D02*
X152839599Y-111265276D01*
X152839599Y-111265276D02*
X152934837Y-111170038D01*
X152934837Y-111170038D02*
X153077694Y-111122419D01*
X153077694Y-111122419D02*
X153172932Y-111122419D01*
X153172932Y-111122419D02*
X153315789Y-111170038D01*
X153315789Y-111170038D02*
X153363408Y-111217657D01*
X153934837Y-112122419D02*
X153839599Y-112074800D01*
X153839599Y-112074800D02*
X153791980Y-111979561D01*
X153791980Y-111979561D02*
X153791980Y-111122419D01*
X154458647Y-112122419D02*
X154363409Y-112074800D01*
X154363409Y-112074800D02*
X154315790Y-112027180D01*
X154315790Y-112027180D02*
X154268171Y-111931942D01*
X154268171Y-111931942D02*
X154268171Y-111646228D01*
X154268171Y-111646228D02*
X154315790Y-111550990D01*
X154315790Y-111550990D02*
X154363409Y-111503371D01*
X154363409Y-111503371D02*
X154458647Y-111455752D01*
X154458647Y-111455752D02*
X154601504Y-111455752D01*
X154601504Y-111455752D02*
X154696742Y-111503371D01*
X154696742Y-111503371D02*
X154744361Y-111550990D01*
X154744361Y-111550990D02*
X154791980Y-111646228D01*
X154791980Y-111646228D02*
X154791980Y-111931942D01*
X154791980Y-111931942D02*
X154744361Y-112027180D01*
X154744361Y-112027180D02*
X154696742Y-112074800D01*
X154696742Y-112074800D02*
X154601504Y-112122419D01*
X154601504Y-112122419D02*
X154458647Y-112122419D01*
X155649123Y-112074800D02*
X155553885Y-112122419D01*
X155553885Y-112122419D02*
X155363409Y-112122419D01*
X155363409Y-112122419D02*
X155268171Y-112074800D01*
X155268171Y-112074800D02*
X155220552Y-112027180D01*
X155220552Y-112027180D02*
X155172933Y-111931942D01*
X155172933Y-111931942D02*
X155172933Y-111646228D01*
X155172933Y-111646228D02*
X155220552Y-111550990D01*
X155220552Y-111550990D02*
X155268171Y-111503371D01*
X155268171Y-111503371D02*
X155363409Y-111455752D01*
X155363409Y-111455752D02*
X155553885Y-111455752D01*
X155553885Y-111455752D02*
X155649123Y-111503371D01*
X156077695Y-112122419D02*
X156077695Y-111122419D01*
X156172933Y-111741466D02*
X156458647Y-112122419D01*
X156458647Y-111455752D02*
X156077695Y-111836704D01*
X158506265Y-109074800D02*
X158649122Y-109122419D01*
X158649122Y-109122419D02*
X158887217Y-109122419D01*
X158887217Y-109122419D02*
X158982455Y-109074800D01*
X158982455Y-109074800D02*
X159030074Y-109027180D01*
X159030074Y-109027180D02*
X159077693Y-108931942D01*
X159077693Y-108931942D02*
X159077693Y-108836704D01*
X159077693Y-108836704D02*
X159030074Y-108741466D01*
X159030074Y-108741466D02*
X158982455Y-108693847D01*
X158982455Y-108693847D02*
X158887217Y-108646228D01*
X158887217Y-108646228D02*
X158696741Y-108598609D01*
X158696741Y-108598609D02*
X158601503Y-108550990D01*
X158601503Y-108550990D02*
X158553884Y-108503371D01*
X158553884Y-108503371D02*
X158506265Y-108408133D01*
X158506265Y-108408133D02*
X158506265Y-108312895D01*
X158506265Y-108312895D02*
X158553884Y-108217657D01*
X158553884Y-108217657D02*
X158601503Y-108170038D01*
X158601503Y-108170038D02*
X158696741Y-108122419D01*
X158696741Y-108122419D02*
X158934836Y-108122419D01*
X158934836Y-108122419D02*
X159077693Y-108170038D01*
X159506265Y-109122419D02*
X159506265Y-108122419D01*
X159506265Y-108122419D02*
X159744360Y-108122419D01*
X159744360Y-108122419D02*
X159887217Y-108170038D01*
X159887217Y-108170038D02*
X159982455Y-108265276D01*
X159982455Y-108265276D02*
X160030074Y-108360514D01*
X160030074Y-108360514D02*
X160077693Y-108550990D01*
X160077693Y-108550990D02*
X160077693Y-108693847D01*
X160077693Y-108693847D02*
X160030074Y-108884323D01*
X160030074Y-108884323D02*
X159982455Y-108979561D01*
X159982455Y-108979561D02*
X159887217Y-109074800D01*
X159887217Y-109074800D02*
X159744360Y-109122419D01*
X159744360Y-109122419D02*
X159506265Y-109122419D01*
X160458646Y-108836704D02*
X160934836Y-108836704D01*
X160363408Y-109122419D02*
X160696741Y-108122419D01*
X160696741Y-108122419D02*
X161030074Y-109122419D01*
X158458646Y-115622419D02*
X159077693Y-115622419D01*
X159077693Y-115622419D02*
X158744360Y-116003371D01*
X158744360Y-116003371D02*
X158887217Y-116003371D01*
X158887217Y-116003371D02*
X158982455Y-116050990D01*
X158982455Y-116050990D02*
X159030074Y-116098609D01*
X159030074Y-116098609D02*
X159077693Y-116193847D01*
X159077693Y-116193847D02*
X159077693Y-116431942D01*
X159077693Y-116431942D02*
X159030074Y-116527180D01*
X159030074Y-116527180D02*
X158982455Y-116574800D01*
X158982455Y-116574800D02*
X158887217Y-116622419D01*
X158887217Y-116622419D02*
X158601503Y-116622419D01*
X158601503Y-116622419D02*
X158506265Y-116574800D01*
X158506265Y-116574800D02*
X158458646Y-116527180D01*
X159363408Y-115622419D02*
X159696741Y-116622419D01*
X159696741Y-116622419D02*
X160030074Y-115622419D01*
X160268170Y-115622419D02*
X160887217Y-115622419D01*
X160887217Y-115622419D02*
X160553884Y-116003371D01*
X160553884Y-116003371D02*
X160696741Y-116003371D01*
X160696741Y-116003371D02*
X160791979Y-116050990D01*
X160791979Y-116050990D02*
X160839598Y-116098609D01*
X160839598Y-116098609D02*
X160887217Y-116193847D01*
X160887217Y-116193847D02*
X160887217Y-116431942D01*
X160887217Y-116431942D02*
X160839598Y-116527180D01*
X160839598Y-116527180D02*
X160791979Y-116574800D01*
X160791979Y-116574800D02*
X160696741Y-116622419D01*
X160696741Y-116622419D02*
X160411027Y-116622419D01*
X160411027Y-116622419D02*
X160315789Y-116574800D01*
X160315789Y-116574800D02*
X160268170Y-116527180D01*
D11*
X162916666Y-117784819D02*
X162916666Y-118499104D01*
X162916666Y-118499104D02*
X162869047Y-118641961D01*
X162869047Y-118641961D02*
X162773809Y-118737200D01*
X162773809Y-118737200D02*
X162630952Y-118784819D01*
X162630952Y-118784819D02*
X162535714Y-118784819D01*
X163916666Y-118784819D02*
X163345238Y-118784819D01*
X163630952Y-118784819D02*
X163630952Y-117784819D01*
X163630952Y-117784819D02*
X163535714Y-117927676D01*
X163535714Y-117927676D02*
X163440476Y-118022914D01*
X163440476Y-118022914D02*
X163345238Y-118070533D01*
X161738095Y-93154819D02*
X161738095Y-92154819D01*
X161738095Y-92631009D02*
X162309523Y-92631009D01*
X162309523Y-93154819D02*
X162309523Y-92154819D01*
X163309523Y-93154819D02*
X162738095Y-93154819D01*
X163023809Y-93154819D02*
X163023809Y-92154819D01*
X163023809Y-92154819D02*
X162928571Y-92297676D01*
X162928571Y-92297676D02*
X162833333Y-92392914D01*
X162833333Y-92392914D02*
X162738095Y-92440533D01*
X135139819Y-137059019D02*
X135854104Y-137059019D01*
X135854104Y-137059019D02*
X135996961Y-137106638D01*
X135996961Y-137106638D02*
X136092200Y-137201876D01*
X136092200Y-137201876D02*
X136139819Y-137344733D01*
X136139819Y-137344733D02*
X136139819Y-137439971D01*
X135139819Y-136678066D02*
X135139819Y-136059019D01*
X135139819Y-136059019D02*
X135520771Y-136392352D01*
X135520771Y-136392352D02*
X135520771Y-136249495D01*
X135520771Y-136249495D02*
X135568390Y-136154257D01*
X135568390Y-136154257D02*
X135616009Y-136106638D01*
X135616009Y-136106638D02*
X135711247Y-136059019D01*
X135711247Y-136059019D02*
X135949342Y-136059019D01*
X135949342Y-136059019D02*
X136044580Y-136106638D01*
X136044580Y-136106638D02*
X136092200Y-136154257D01*
X136092200Y-136154257D02*
X136139819Y-136249495D01*
X136139819Y-136249495D02*
X136139819Y-136535209D01*
X136139819Y-136535209D02*
X136092200Y-136630447D01*
X136092200Y-136630447D02*
X136044580Y-136678066D01*
X123738095Y-131454819D02*
X123738095Y-130454819D01*
X123738095Y-130931009D02*
X124309523Y-130931009D01*
X124309523Y-131454819D02*
X124309523Y-130454819D01*
X124690476Y-130454819D02*
X125309523Y-130454819D01*
X125309523Y-130454819D02*
X124976190Y-130835771D01*
X124976190Y-130835771D02*
X125119047Y-130835771D01*
X125119047Y-130835771D02*
X125214285Y-130883390D01*
X125214285Y-130883390D02*
X125261904Y-130931009D01*
X125261904Y-130931009D02*
X125309523Y-131026247D01*
X125309523Y-131026247D02*
X125309523Y-131264342D01*
X125309523Y-131264342D02*
X125261904Y-131359580D01*
X125261904Y-131359580D02*
X125214285Y-131407200D01*
X125214285Y-131407200D02*
X125119047Y-131454819D01*
X125119047Y-131454819D02*
X124833333Y-131454819D01*
X124833333Y-131454819D02*
X124738095Y-131407200D01*
X124738095Y-131407200D02*
X124690476Y-131359580D01*
D10*
X147566390Y-119445714D02*
X147566390Y-119779047D01*
X147042580Y-119921904D02*
X147042580Y-119445714D01*
X147042580Y-119445714D02*
X148042580Y-119445714D01*
X148042580Y-119445714D02*
X148042580Y-119921904D01*
X147090200Y-120302857D02*
X147042580Y-120445714D01*
X147042580Y-120445714D02*
X147042580Y-120683809D01*
X147042580Y-120683809D02*
X147090200Y-120779047D01*
X147090200Y-120779047D02*
X147137819Y-120826666D01*
X147137819Y-120826666D02*
X147233057Y-120874285D01*
X147233057Y-120874285D02*
X147328295Y-120874285D01*
X147328295Y-120874285D02*
X147423533Y-120826666D01*
X147423533Y-120826666D02*
X147471152Y-120779047D01*
X147471152Y-120779047D02*
X147518771Y-120683809D01*
X147518771Y-120683809D02*
X147566390Y-120493333D01*
X147566390Y-120493333D02*
X147614009Y-120398095D01*
X147614009Y-120398095D02*
X147661628Y-120350476D01*
X147661628Y-120350476D02*
X147756866Y-120302857D01*
X147756866Y-120302857D02*
X147852104Y-120302857D01*
X147852104Y-120302857D02*
X147947342Y-120350476D01*
X147947342Y-120350476D02*
X147994961Y-120398095D01*
X147994961Y-120398095D02*
X148042580Y-120493333D01*
X148042580Y-120493333D02*
X148042580Y-120731428D01*
X148042580Y-120731428D02*
X147994961Y-120874285D01*
X147042580Y-121302857D02*
X148042580Y-121302857D01*
X148042580Y-121302857D02*
X148042580Y-121683809D01*
X148042580Y-121683809D02*
X147994961Y-121779047D01*
X147994961Y-121779047D02*
X147947342Y-121826666D01*
X147947342Y-121826666D02*
X147852104Y-121874285D01*
X147852104Y-121874285D02*
X147709247Y-121874285D01*
X147709247Y-121874285D02*
X147614009Y-121826666D01*
X147614009Y-121826666D02*
X147566390Y-121779047D01*
X147566390Y-121779047D02*
X147518771Y-121683809D01*
X147518771Y-121683809D02*
X147518771Y-121302857D01*
X148042580Y-122207619D02*
X148042580Y-122826666D01*
X148042580Y-122826666D02*
X147661628Y-122493333D01*
X147661628Y-122493333D02*
X147661628Y-122636190D01*
X147661628Y-122636190D02*
X147614009Y-122731428D01*
X147614009Y-122731428D02*
X147566390Y-122779047D01*
X147566390Y-122779047D02*
X147471152Y-122826666D01*
X147471152Y-122826666D02*
X147233057Y-122826666D01*
X147233057Y-122826666D02*
X147137819Y-122779047D01*
X147137819Y-122779047D02*
X147090200Y-122731428D01*
X147090200Y-122731428D02*
X147042580Y-122636190D01*
X147042580Y-122636190D02*
X147042580Y-122350476D01*
X147042580Y-122350476D02*
X147090200Y-122255238D01*
X147090200Y-122255238D02*
X147137819Y-122207619D01*
X147947342Y-123207619D02*
X147994961Y-123255238D01*
X147994961Y-123255238D02*
X148042580Y-123350476D01*
X148042580Y-123350476D02*
X148042580Y-123588571D01*
X148042580Y-123588571D02*
X147994961Y-123683809D01*
X147994961Y-123683809D02*
X147947342Y-123731428D01*
X147947342Y-123731428D02*
X147852104Y-123779047D01*
X147852104Y-123779047D02*
X147756866Y-123779047D01*
X147756866Y-123779047D02*
X147614009Y-123731428D01*
X147614009Y-123731428D02*
X147042580Y-123160000D01*
X147042580Y-123160000D02*
X147042580Y-123779047D01*
X147423533Y-124207619D02*
X147423533Y-124969524D01*
X147137819Y-126017142D02*
X147090200Y-125969523D01*
X147090200Y-125969523D02*
X147042580Y-125826666D01*
X147042580Y-125826666D02*
X147042580Y-125731428D01*
X147042580Y-125731428D02*
X147090200Y-125588571D01*
X147090200Y-125588571D02*
X147185438Y-125493333D01*
X147185438Y-125493333D02*
X147280676Y-125445714D01*
X147280676Y-125445714D02*
X147471152Y-125398095D01*
X147471152Y-125398095D02*
X147614009Y-125398095D01*
X147614009Y-125398095D02*
X147804485Y-125445714D01*
X147804485Y-125445714D02*
X147899723Y-125493333D01*
X147899723Y-125493333D02*
X147994961Y-125588571D01*
X147994961Y-125588571D02*
X148042580Y-125731428D01*
X148042580Y-125731428D02*
X148042580Y-125826666D01*
X148042580Y-125826666D02*
X147994961Y-125969523D01*
X147994961Y-125969523D02*
X147947342Y-126017142D01*
X148042580Y-126350476D02*
X148042580Y-126969523D01*
X148042580Y-126969523D02*
X147661628Y-126636190D01*
X147661628Y-126636190D02*
X147661628Y-126779047D01*
X147661628Y-126779047D02*
X147614009Y-126874285D01*
X147614009Y-126874285D02*
X147566390Y-126921904D01*
X147566390Y-126921904D02*
X147471152Y-126969523D01*
X147471152Y-126969523D02*
X147233057Y-126969523D01*
X147233057Y-126969523D02*
X147137819Y-126921904D01*
X147137819Y-126921904D02*
X147090200Y-126874285D01*
X147090200Y-126874285D02*
X147042580Y-126779047D01*
X147042580Y-126779047D02*
X147042580Y-126493333D01*
X147042580Y-126493333D02*
X147090200Y-126398095D01*
X147090200Y-126398095D02*
X147137819Y-126350476D01*
X146947342Y-127160000D02*
X146947342Y-127921904D01*
X147090200Y-128112381D02*
X147042580Y-128255238D01*
X147042580Y-128255238D02*
X147042580Y-128493333D01*
X147042580Y-128493333D02*
X147090200Y-128588571D01*
X147090200Y-128588571D02*
X147137819Y-128636190D01*
X147137819Y-128636190D02*
X147233057Y-128683809D01*
X147233057Y-128683809D02*
X147328295Y-128683809D01*
X147328295Y-128683809D02*
X147423533Y-128636190D01*
X147423533Y-128636190D02*
X147471152Y-128588571D01*
X147471152Y-128588571D02*
X147518771Y-128493333D01*
X147518771Y-128493333D02*
X147566390Y-128302857D01*
X147566390Y-128302857D02*
X147614009Y-128207619D01*
X147614009Y-128207619D02*
X147661628Y-128160000D01*
X147661628Y-128160000D02*
X147756866Y-128112381D01*
X147756866Y-128112381D02*
X147852104Y-128112381D01*
X147852104Y-128112381D02*
X147947342Y-128160000D01*
X147947342Y-128160000D02*
X147994961Y-128207619D01*
X147994961Y-128207619D02*
X148042580Y-128302857D01*
X148042580Y-128302857D02*
X148042580Y-128540952D01*
X148042580Y-128540952D02*
X147994961Y-128683809D01*
X147709247Y-129540952D02*
X147042580Y-129540952D01*
X147709247Y-129112381D02*
X147185438Y-129112381D01*
X147185438Y-129112381D02*
X147090200Y-129160000D01*
X147090200Y-129160000D02*
X147042580Y-129255238D01*
X147042580Y-129255238D02*
X147042580Y-129398095D01*
X147042580Y-129398095D02*
X147090200Y-129493333D01*
X147090200Y-129493333D02*
X147137819Y-129540952D01*
X147709247Y-130017143D02*
X146709247Y-130017143D01*
X147661628Y-130017143D02*
X147709247Y-130112381D01*
X147709247Y-130112381D02*
X147709247Y-130302857D01*
X147709247Y-130302857D02*
X147661628Y-130398095D01*
X147661628Y-130398095D02*
X147614009Y-130445714D01*
X147614009Y-130445714D02*
X147518771Y-130493333D01*
X147518771Y-130493333D02*
X147233057Y-130493333D01*
X147233057Y-130493333D02*
X147137819Y-130445714D01*
X147137819Y-130445714D02*
X147090200Y-130398095D01*
X147090200Y-130398095D02*
X147042580Y-130302857D01*
X147042580Y-130302857D02*
X147042580Y-130112381D01*
X147042580Y-130112381D02*
X147090200Y-130017143D01*
X147090200Y-131302857D02*
X147042580Y-131207619D01*
X147042580Y-131207619D02*
X147042580Y-131017143D01*
X147042580Y-131017143D02*
X147090200Y-130921905D01*
X147090200Y-130921905D02*
X147185438Y-130874286D01*
X147185438Y-130874286D02*
X147566390Y-130874286D01*
X147566390Y-130874286D02*
X147661628Y-130921905D01*
X147661628Y-130921905D02*
X147709247Y-131017143D01*
X147709247Y-131017143D02*
X147709247Y-131207619D01*
X147709247Y-131207619D02*
X147661628Y-131302857D01*
X147661628Y-131302857D02*
X147566390Y-131350476D01*
X147566390Y-131350476D02*
X147471152Y-131350476D01*
X147471152Y-131350476D02*
X147375914Y-130874286D01*
X147042580Y-131779048D02*
X147709247Y-131779048D01*
X147518771Y-131779048D02*
X147614009Y-131826667D01*
X147614009Y-131826667D02*
X147661628Y-131874286D01*
X147661628Y-131874286D02*
X147709247Y-131969524D01*
X147709247Y-131969524D02*
X147709247Y-132064762D01*
X147042580Y-132398096D02*
X148042580Y-132398096D01*
X148042580Y-132398096D02*
X147328295Y-132731429D01*
X147328295Y-132731429D02*
X148042580Y-133064762D01*
X148042580Y-133064762D02*
X147042580Y-133064762D01*
X147042580Y-133540953D02*
X147709247Y-133540953D01*
X148042580Y-133540953D02*
X147994961Y-133493334D01*
X147994961Y-133493334D02*
X147947342Y-133540953D01*
X147947342Y-133540953D02*
X147994961Y-133588572D01*
X147994961Y-133588572D02*
X148042580Y-133540953D01*
X148042580Y-133540953D02*
X147947342Y-133540953D01*
X147709247Y-134017143D02*
X147042580Y-134017143D01*
X147614009Y-134017143D02*
X147661628Y-134064762D01*
X147661628Y-134064762D02*
X147709247Y-134160000D01*
X147709247Y-134160000D02*
X147709247Y-134302857D01*
X147709247Y-134302857D02*
X147661628Y-134398095D01*
X147661628Y-134398095D02*
X147566390Y-134445714D01*
X147566390Y-134445714D02*
X147042580Y-134445714D01*
X147042580Y-134921905D02*
X147709247Y-134921905D01*
X148042580Y-134921905D02*
X147994961Y-134874286D01*
X147994961Y-134874286D02*
X147947342Y-134921905D01*
X147947342Y-134921905D02*
X147994961Y-134969524D01*
X147994961Y-134969524D02*
X148042580Y-134921905D01*
X148042580Y-134921905D02*
X147947342Y-134921905D01*
X147042580Y-135921904D02*
X147042580Y-135350476D01*
X147042580Y-135636190D02*
X148042580Y-135636190D01*
X148042580Y-135636190D02*
X147899723Y-135540952D01*
X147899723Y-135540952D02*
X147804485Y-135445714D01*
X147804485Y-135445714D02*
X147756866Y-135350476D01*
D11*
X132583333Y-91859580D02*
X132535714Y-91907200D01*
X132535714Y-91907200D02*
X132392857Y-91954819D01*
X132392857Y-91954819D02*
X132297619Y-91954819D01*
X132297619Y-91954819D02*
X132154762Y-91907200D01*
X132154762Y-91907200D02*
X132059524Y-91811961D01*
X132059524Y-91811961D02*
X132011905Y-91716723D01*
X132011905Y-91716723D02*
X131964286Y-91526247D01*
X131964286Y-91526247D02*
X131964286Y-91383390D01*
X131964286Y-91383390D02*
X132011905Y-91192914D01*
X132011905Y-91192914D02*
X132059524Y-91097676D01*
X132059524Y-91097676D02*
X132154762Y-91002438D01*
X132154762Y-91002438D02*
X132297619Y-90954819D01*
X132297619Y-90954819D02*
X132392857Y-90954819D01*
X132392857Y-90954819D02*
X132535714Y-91002438D01*
X132535714Y-91002438D02*
X132583333Y-91050057D01*
X133440476Y-91288152D02*
X133440476Y-91954819D01*
X133202381Y-90907200D02*
X132964286Y-91621485D01*
X132964286Y-91621485D02*
X133583333Y-91621485D01*
X141216667Y-86957200D02*
X141359524Y-87004819D01*
X141359524Y-87004819D02*
X141597619Y-87004819D01*
X141597619Y-87004819D02*
X141692857Y-86957200D01*
X141692857Y-86957200D02*
X141740476Y-86909580D01*
X141740476Y-86909580D02*
X141788095Y-86814342D01*
X141788095Y-86814342D02*
X141788095Y-86719104D01*
X141788095Y-86719104D02*
X141740476Y-86623866D01*
X141740476Y-86623866D02*
X141692857Y-86576247D01*
X141692857Y-86576247D02*
X141597619Y-86528628D01*
X141597619Y-86528628D02*
X141407143Y-86481009D01*
X141407143Y-86481009D02*
X141311905Y-86433390D01*
X141311905Y-86433390D02*
X141264286Y-86385771D01*
X141264286Y-86385771D02*
X141216667Y-86290533D01*
X141216667Y-86290533D02*
X141216667Y-86195295D01*
X141216667Y-86195295D02*
X141264286Y-86100057D01*
X141264286Y-86100057D02*
X141311905Y-86052438D01*
X141311905Y-86052438D02*
X141407143Y-86004819D01*
X141407143Y-86004819D02*
X141645238Y-86004819D01*
X141645238Y-86004819D02*
X141788095Y-86052438D01*
X142121429Y-86004819D02*
X142359524Y-87004819D01*
X142359524Y-87004819D02*
X142550000Y-86290533D01*
X142550000Y-86290533D02*
X142740476Y-87004819D01*
X142740476Y-87004819D02*
X142978572Y-86004819D01*
X143883333Y-87004819D02*
X143311905Y-87004819D01*
X143597619Y-87004819D02*
X143597619Y-86004819D01*
X143597619Y-86004819D02*
X143502381Y-86147676D01*
X143502381Y-86147676D02*
X143407143Y-86242914D01*
X143407143Y-86242914D02*
X143311905Y-86290533D01*
X132333333Y-101609580D02*
X132285714Y-101657200D01*
X132285714Y-101657200D02*
X132142857Y-101704819D01*
X132142857Y-101704819D02*
X132047619Y-101704819D01*
X132047619Y-101704819D02*
X131904762Y-101657200D01*
X131904762Y-101657200D02*
X131809524Y-101561961D01*
X131809524Y-101561961D02*
X131761905Y-101466723D01*
X131761905Y-101466723D02*
X131714286Y-101276247D01*
X131714286Y-101276247D02*
X131714286Y-101133390D01*
X131714286Y-101133390D02*
X131761905Y-100942914D01*
X131761905Y-100942914D02*
X131809524Y-100847676D01*
X131809524Y-100847676D02*
X131904762Y-100752438D01*
X131904762Y-100752438D02*
X132047619Y-100704819D01*
X132047619Y-100704819D02*
X132142857Y-100704819D01*
X132142857Y-100704819D02*
X132285714Y-100752438D01*
X132285714Y-100752438D02*
X132333333Y-100800057D01*
X132714286Y-100800057D02*
X132761905Y-100752438D01*
X132761905Y-100752438D02*
X132857143Y-100704819D01*
X132857143Y-100704819D02*
X133095238Y-100704819D01*
X133095238Y-100704819D02*
X133190476Y-100752438D01*
X133190476Y-100752438D02*
X133238095Y-100800057D01*
X133238095Y-100800057D02*
X133285714Y-100895295D01*
X133285714Y-100895295D02*
X133285714Y-100990533D01*
X133285714Y-100990533D02*
X133238095Y-101133390D01*
X133238095Y-101133390D02*
X132666667Y-101704819D01*
X132666667Y-101704819D02*
X133285714Y-101704819D01*
X126781666Y-117724819D02*
X126781666Y-118439104D01*
X126781666Y-118439104D02*
X126734047Y-118581961D01*
X126734047Y-118581961D02*
X126638809Y-118677200D01*
X126638809Y-118677200D02*
X126495952Y-118724819D01*
X126495952Y-118724819D02*
X126400714Y-118724819D01*
X127210238Y-117820057D02*
X127257857Y-117772438D01*
X127257857Y-117772438D02*
X127353095Y-117724819D01*
X127353095Y-117724819D02*
X127591190Y-117724819D01*
X127591190Y-117724819D02*
X127686428Y-117772438D01*
X127686428Y-117772438D02*
X127734047Y-117820057D01*
X127734047Y-117820057D02*
X127781666Y-117915295D01*
X127781666Y-117915295D02*
X127781666Y-118010533D01*
X127781666Y-118010533D02*
X127734047Y-118153390D01*
X127734047Y-118153390D02*
X127162619Y-118724819D01*
X127162619Y-118724819D02*
X127781666Y-118724819D01*
X123738095Y-93154819D02*
X123738095Y-92154819D01*
X123738095Y-92631009D02*
X124309523Y-92631009D01*
X124309523Y-93154819D02*
X124309523Y-92154819D01*
X125214285Y-92488152D02*
X125214285Y-93154819D01*
X124976190Y-92107200D02*
X124738095Y-92821485D01*
X124738095Y-92821485D02*
X125357142Y-92821485D01*
X131833333Y-134609580D02*
X131785714Y-134657200D01*
X131785714Y-134657200D02*
X131642857Y-134704819D01*
X131642857Y-134704819D02*
X131547619Y-134704819D01*
X131547619Y-134704819D02*
X131404762Y-134657200D01*
X131404762Y-134657200D02*
X131309524Y-134561961D01*
X131309524Y-134561961D02*
X131261905Y-134466723D01*
X131261905Y-134466723D02*
X131214286Y-134276247D01*
X131214286Y-134276247D02*
X131214286Y-134133390D01*
X131214286Y-134133390D02*
X131261905Y-133942914D01*
X131261905Y-133942914D02*
X131309524Y-133847676D01*
X131309524Y-133847676D02*
X131404762Y-133752438D01*
X131404762Y-133752438D02*
X131547619Y-133704819D01*
X131547619Y-133704819D02*
X131642857Y-133704819D01*
X131642857Y-133704819D02*
X131785714Y-133752438D01*
X131785714Y-133752438D02*
X131833333Y-133800057D01*
X132785714Y-134704819D02*
X132214286Y-134704819D01*
X132500000Y-134704819D02*
X132500000Y-133704819D01*
X132500000Y-133704819D02*
X132404762Y-133847676D01*
X132404762Y-133847676D02*
X132309524Y-133942914D01*
X132309524Y-133942914D02*
X132214286Y-133990533D01*
X161738095Y-131554819D02*
X161738095Y-130554819D01*
X161738095Y-131031009D02*
X162309523Y-131031009D01*
X162309523Y-131554819D02*
X162309523Y-130554819D01*
X162738095Y-130650057D02*
X162785714Y-130602438D01*
X162785714Y-130602438D02*
X162880952Y-130554819D01*
X162880952Y-130554819D02*
X163119047Y-130554819D01*
X163119047Y-130554819D02*
X163214285Y-130602438D01*
X163214285Y-130602438D02*
X163261904Y-130650057D01*
X163261904Y-130650057D02*
X163309523Y-130745295D01*
X163309523Y-130745295D02*
X163309523Y-130840533D01*
X163309523Y-130840533D02*
X163261904Y-130983390D01*
X163261904Y-130983390D02*
X162690476Y-131554819D01*
X162690476Y-131554819D02*
X163309523Y-131554819D01*
X132583333Y-96859580D02*
X132535714Y-96907200D01*
X132535714Y-96907200D02*
X132392857Y-96954819D01*
X132392857Y-96954819D02*
X132297619Y-96954819D01*
X132297619Y-96954819D02*
X132154762Y-96907200D01*
X132154762Y-96907200D02*
X132059524Y-96811961D01*
X132059524Y-96811961D02*
X132011905Y-96716723D01*
X132011905Y-96716723D02*
X131964286Y-96526247D01*
X131964286Y-96526247D02*
X131964286Y-96383390D01*
X131964286Y-96383390D02*
X132011905Y-96192914D01*
X132011905Y-96192914D02*
X132059524Y-96097676D01*
X132059524Y-96097676D02*
X132154762Y-96002438D01*
X132154762Y-96002438D02*
X132297619Y-95954819D01*
X132297619Y-95954819D02*
X132392857Y-95954819D01*
X132392857Y-95954819D02*
X132535714Y-96002438D01*
X132535714Y-96002438D02*
X132583333Y-96050057D01*
X132916667Y-95954819D02*
X133535714Y-95954819D01*
X133535714Y-95954819D02*
X133202381Y-96335771D01*
X133202381Y-96335771D02*
X133345238Y-96335771D01*
X133345238Y-96335771D02*
X133440476Y-96383390D01*
X133440476Y-96383390D02*
X133488095Y-96431009D01*
X133488095Y-96431009D02*
X133535714Y-96526247D01*
X133535714Y-96526247D02*
X133535714Y-96764342D01*
X133535714Y-96764342D02*
X133488095Y-96859580D01*
X133488095Y-96859580D02*
X133440476Y-96907200D01*
X133440476Y-96907200D02*
X133345238Y-96954819D01*
X133345238Y-96954819D02*
X133059524Y-96954819D01*
X133059524Y-96954819D02*
X132964286Y-96907200D01*
X132964286Y-96907200D02*
X132916667Y-96859580D01*
D12*
%TO.C,J1*%
X161920000Y-114730000D02*
X161920000Y-107050000D01*
X164580000Y-107050000D02*
X161920000Y-107050000D01*
X164580000Y-114730000D02*
X161920000Y-114730000D01*
X164580000Y-114730000D02*
X164580000Y-107050000D01*
X164580000Y-116000000D02*
X164580000Y-117330000D01*
X164580000Y-117330000D02*
X163250000Y-117330000D01*
%TO.C,J3*%
X129485000Y-135395686D02*
X129485000Y-138055686D01*
X132085000Y-135395686D02*
X129485000Y-135395686D01*
X132085000Y-135395686D02*
X132085000Y-138055686D01*
X132085000Y-138055686D02*
X129485000Y-138055686D01*
X133355000Y-135395686D02*
X134685000Y-135395686D01*
X134685000Y-135395686D02*
X134685000Y-136725686D01*
D10*
%TO.C,ESP32-C3_SuperMini1*%
X137340000Y-116484000D02*
X138610000Y-116484000D01*
X138610000Y-116484000D02*
X138610000Y-115214000D01*
X156390000Y-116484000D02*
X156390000Y-115214000D01*
X157660000Y-116484000D02*
X156390000Y-116484000D01*
D12*
%TO.C,C4*%
X130130000Y-87945000D02*
X130130000Y-87630000D01*
X130130000Y-90370000D02*
X130130000Y-90055000D01*
X135370000Y-87630000D02*
X130130000Y-87630000D01*
X135370000Y-87945000D02*
X135370000Y-87630000D01*
X135370000Y-90370000D02*
X130130000Y-90370000D01*
X135370000Y-90370000D02*
X135370000Y-90055000D01*
%TO.C,SW1*%
X139450000Y-89650000D02*
X140050000Y-89650000D01*
X139750000Y-89950000D02*
X139450000Y-89650000D01*
X140050000Y-89650000D02*
X139750000Y-89950000D01*
X141150000Y-87850000D02*
X141150000Y-99650000D01*
X145250000Y-87850000D02*
X141150000Y-87850000D01*
X145250000Y-99650000D02*
X141150000Y-99650000D01*
X146750000Y-93750000D02*
X147750000Y-93750000D01*
X147250000Y-93250000D02*
X147250000Y-94250000D01*
X149250000Y-87850000D02*
X153350000Y-87850000D01*
X153350000Y-87850000D02*
X153350000Y-90250000D01*
X153350000Y-92450000D02*
X153350000Y-95050000D01*
X153350000Y-97250000D02*
X153350000Y-99650000D01*
X153350000Y-99650000D02*
X149250000Y-99650000D01*
X150250000Y-93750000D02*
G75*
G02*
X144250000Y-93750000I-3000000J0D01*
G01*
X144250000Y-93750000D02*
G75*
G02*
X150250000Y-93750000I3000000J0D01*
G01*
%TO.C,C2*%
X130130000Y-97695000D02*
X130130000Y-97380000D01*
X130130000Y-100120000D02*
X130130000Y-99805000D01*
X135370000Y-97380000D02*
X130130000Y-97380000D01*
X135370000Y-97695000D02*
X135370000Y-97380000D01*
X135370000Y-100120000D02*
X130130000Y-100120000D01*
X135370000Y-100120000D02*
X135370000Y-99805000D01*
%TO.C,J2*%
X121400000Y-108000000D02*
X127400000Y-108000000D01*
X121400000Y-108760000D02*
X121400000Y-108000000D01*
X121400000Y-110540000D02*
X127400000Y-110540000D01*
X121400000Y-111300000D02*
X121400000Y-110540000D01*
X121400000Y-113080000D02*
X127400000Y-113080000D01*
X121400000Y-113840000D02*
X121400000Y-113080000D01*
X121400000Y-115620000D02*
X127400000Y-115620000D01*
X121400000Y-116380000D02*
X121400000Y-115620000D01*
X127400000Y-107050000D02*
X127400000Y-117330000D01*
X127400000Y-108760000D02*
X121400000Y-108760000D01*
X127400000Y-111300000D02*
X121400000Y-111300000D01*
X127400000Y-113840000D02*
X121400000Y-113840000D01*
X127400000Y-115720000D02*
X121400000Y-115720000D01*
X127400000Y-115840000D02*
X121400000Y-115840000D01*
X127400000Y-115960000D02*
X121400000Y-115960000D01*
X127400000Y-116080000D02*
X121400000Y-116080000D01*
X127400000Y-116200000D02*
X121400000Y-116200000D01*
X127400000Y-116320000D02*
X121400000Y-116320000D01*
X127400000Y-116380000D02*
X121400000Y-116380000D01*
X127400000Y-117330000D02*
X130060000Y-117330000D01*
X130060000Y-107050000D02*
X127400000Y-107050000D01*
X130060000Y-109650000D02*
X127400000Y-109650000D01*
X130060000Y-112190000D02*
X127400000Y-112190000D01*
X130060000Y-114730000D02*
X127400000Y-114730000D01*
X130060000Y-117330000D02*
X130060000Y-107050000D01*
X130390000Y-115620000D02*
X130060000Y-115620000D01*
X130390000Y-116380000D02*
X130060000Y-116380000D01*
X130457071Y-108000000D02*
X130060000Y-108000000D01*
X130457071Y-108760000D02*
X130060000Y-108760000D01*
X130457071Y-110540000D02*
X130060000Y-110540000D01*
X130457071Y-111300000D02*
X130060000Y-111300000D01*
X130457071Y-113080000D02*
X130060000Y-113080000D01*
X130457071Y-113840000D02*
X130060000Y-113840000D01*
X132770000Y-116000000D02*
X132770000Y-117270000D01*
X132770000Y-117270000D02*
X131500000Y-117270000D01*
%TO.C,C1*%
X129919000Y-131370000D02*
X129919000Y-130630000D01*
X129959000Y-131537000D02*
X129959000Y-130463000D01*
X129999000Y-131664000D02*
X129999000Y-130336000D01*
X130039000Y-131768000D02*
X130039000Y-130232000D01*
X130079000Y-131859000D02*
X130079000Y-130141000D01*
X130119000Y-131940000D02*
X130119000Y-130060000D01*
X130159000Y-132013000D02*
X130159000Y-129987000D01*
X130199000Y-130160000D02*
X130199000Y-129920000D01*
X130199000Y-132080000D02*
X130199000Y-131840000D01*
X130239000Y-130160000D02*
X130239000Y-129858000D01*
X130239000Y-132142000D02*
X130239000Y-131840000D01*
X130279000Y-130160000D02*
X130279000Y-129800000D01*
X130279000Y-132200000D02*
X130279000Y-131840000D01*
X130319000Y-130160000D02*
X130319000Y-129746000D01*
X130319000Y-132254000D02*
X130319000Y-131840000D01*
X130359000Y-130160000D02*
X130359000Y-129696000D01*
X130359000Y-132304000D02*
X130359000Y-131840000D01*
X130399000Y-130160000D02*
X130399000Y-129649000D01*
X130399000Y-132351000D02*
X130399000Y-131840000D01*
X130439000Y-130160000D02*
X130439000Y-129604000D01*
X130439000Y-132396000D02*
X130439000Y-131840000D01*
X130479000Y-130160000D02*
X130479000Y-129562000D01*
X130479000Y-132438000D02*
X130479000Y-131840000D01*
X130519000Y-130160000D02*
X130519000Y-129522000D01*
X130519000Y-132478000D02*
X130519000Y-131840000D01*
X130559000Y-130160000D02*
X130559000Y-129484000D01*
X130559000Y-132516000D02*
X130559000Y-131840000D01*
X130599000Y-130160000D02*
X130599000Y-129448000D01*
X130599000Y-132552000D02*
X130599000Y-131840000D01*
X130639000Y-130160000D02*
X130639000Y-129413000D01*
X130639000Y-132587000D02*
X130639000Y-131840000D01*
X130679000Y-130160000D02*
X130679000Y-129381000D01*
X130679000Y-132619000D02*
X130679000Y-131840000D01*
X130719000Y-130160000D02*
X130719000Y-129350000D01*
X130719000Y-132650000D02*
X130719000Y-131840000D01*
X130759000Y-130160000D02*
X130759000Y-129320000D01*
X130759000Y-132680000D02*
X130759000Y-131840000D01*
X130799000Y-130160000D02*
X130799000Y-129292000D01*
X130799000Y-132708000D02*
X130799000Y-131840000D01*
X130839000Y-130160000D02*
X130839000Y-129265000D01*
X130839000Y-132735000D02*
X130839000Y-131840000D01*
X130879000Y-130160000D02*
X130879000Y-129240000D01*
X130879000Y-132760000D02*
X130879000Y-131840000D01*
X130919000Y-130160000D02*
X130919000Y-129215000D01*
X130919000Y-132785000D02*
X130919000Y-131840000D01*
X130959000Y-130160000D02*
X130959000Y-129192000D01*
X130959000Y-132808000D02*
X130959000Y-131840000D01*
X130999000Y-130160000D02*
X130999000Y-129170000D01*
X130999000Y-132830000D02*
X130999000Y-131840000D01*
X131039000Y-130160000D02*
X131039000Y-129149000D01*
X131039000Y-132851000D02*
X131039000Y-131840000D01*
X131079000Y-130160000D02*
X131079000Y-129130000D01*
X131079000Y-132870000D02*
X131079000Y-131840000D01*
X131119000Y-130160000D02*
X131119000Y-129111000D01*
X131119000Y-132889000D02*
X131119000Y-131840000D01*
X131159000Y-130160000D02*
X131159000Y-129093000D01*
X131159000Y-132907000D02*
X131159000Y-131840000D01*
X131199000Y-130160000D02*
X131199000Y-129076000D01*
X131199000Y-132924000D02*
X131199000Y-131840000D01*
X131239000Y-130160000D02*
X131239000Y-129060000D01*
X131239000Y-132940000D02*
X131239000Y-131840000D01*
X131279000Y-130160000D02*
X131279000Y-129046000D01*
X131279000Y-132954000D02*
X131279000Y-131840000D01*
X131320000Y-130160000D02*
X131320000Y-129032000D01*
X131320000Y-132968000D02*
X131320000Y-131840000D01*
X131360000Y-130160000D02*
X131360000Y-129018000D01*
X131360000Y-132982000D02*
X131360000Y-131840000D01*
X131400000Y-130160000D02*
X131400000Y-129006000D01*
X131400000Y-132994000D02*
X131400000Y-131840000D01*
X131440000Y-130160000D02*
X131440000Y-128995000D01*
X131440000Y-133005000D02*
X131440000Y-131840000D01*
X131480000Y-130160000D02*
X131480000Y-128984000D01*
X131480000Y-133016000D02*
X131480000Y-131840000D01*
X131520000Y-130160000D02*
X131520000Y-128975000D01*
X131520000Y-133025000D02*
X131520000Y-131840000D01*
X131560000Y-130160000D02*
X131560000Y-128966000D01*
X131560000Y-133034000D02*
X131560000Y-131840000D01*
X131600000Y-130160000D02*
X131600000Y-128958000D01*
X131600000Y-133042000D02*
X131600000Y-131840000D01*
X131640000Y-130160000D02*
X131640000Y-128950000D01*
X131640000Y-133050000D02*
X131640000Y-131840000D01*
X131680000Y-130160000D02*
X131680000Y-128944000D01*
X131680000Y-133056000D02*
X131680000Y-131840000D01*
X131720000Y-130160000D02*
X131720000Y-128938000D01*
X131720000Y-133062000D02*
X131720000Y-131840000D01*
X131760000Y-130160000D02*
X131760000Y-128933000D01*
X131760000Y-133067000D02*
X131760000Y-131840000D01*
X131800000Y-130160000D02*
X131800000Y-128929000D01*
X131800000Y-133071000D02*
X131800000Y-131840000D01*
X131840000Y-133074000D02*
X131840000Y-128926000D01*
X131880000Y-133077000D02*
X131880000Y-128923000D01*
X131920000Y-133079000D02*
X131920000Y-128921000D01*
X131960000Y-133080000D02*
X131960000Y-128920000D01*
X132000000Y-133080000D02*
X132000000Y-128920000D01*
X134069801Y-132395000D02*
X134069801Y-131995000D01*
X134269801Y-132195000D02*
X133869801Y-132195000D01*
X134120000Y-131000000D02*
G75*
G02*
X129880000Y-131000000I-2120000J0D01*
G01*
X129880000Y-131000000D02*
G75*
G02*
X134120000Y-131000000I2120000J0D01*
G01*
D13*
%TO.C,G\u002A\u002A\u002A*%
G36*
X129090726Y-125274851D02*
G01*
X129124820Y-125300602D01*
X129110361Y-125370832D01*
X129067424Y-125477094D01*
X128967732Y-125625326D01*
X128826146Y-125726536D01*
X128667912Y-125770469D01*
X128518275Y-125746874D01*
X128470746Y-125719418D01*
X128434435Y-125682701D01*
X128440224Y-125640528D01*
X128498360Y-125576531D01*
X128619091Y-125474343D01*
X128629484Y-125465879D01*
X128819969Y-125332379D01*
X128969712Y-125273814D01*
X129000852Y-125271234D01*
X129090726Y-125274851D01*
G37*
G36*
X129667215Y-125771814D02*
G01*
X129757882Y-125837528D01*
X129765100Y-125920024D01*
X129688399Y-126028086D01*
X129651543Y-126064381D01*
X129522627Y-126168466D01*
X129343634Y-126292316D01*
X129147233Y-126415029D01*
X128966090Y-126515707D01*
X128888756Y-126552417D01*
X128747100Y-126593367D01*
X128594809Y-126607567D01*
X128461859Y-126595664D01*
X128378223Y-126558308D01*
X128366791Y-126541137D01*
X128355548Y-126484031D01*
X128377555Y-126430720D01*
X128444725Y-126371400D01*
X128568976Y-126296266D01*
X128762223Y-126195515D01*
X128825309Y-126163879D01*
X129023711Y-126060979D01*
X129207907Y-125958657D01*
X129350845Y-125872244D01*
X129402151Y-125836994D01*
X129512611Y-125764900D01*
X129594284Y-125748782D01*
X129667215Y-125771814D01*
G37*
G36*
X128553326Y-120162725D02*
G01*
X128849957Y-120194966D01*
X128864410Y-120197700D01*
X129270891Y-120320424D01*
X129656330Y-120520101D01*
X130002629Y-120783757D01*
X130291691Y-121098415D01*
X130443518Y-121329855D01*
X130572329Y-121560345D01*
X130904767Y-121560345D01*
X131095708Y-121565746D01*
X131233124Y-121588338D01*
X131355373Y-121637707D01*
X131463074Y-121699857D01*
X131704975Y-121894820D01*
X131870266Y-122136327D01*
X131962540Y-122430759D01*
X131983817Y-122624224D01*
X131988342Y-122816981D01*
X131974460Y-122953174D01*
X131936230Y-123067588D01*
X131894165Y-123149153D01*
X131759805Y-123318671D01*
X131548587Y-123494886D01*
X131274178Y-123667029D01*
X131161252Y-123726586D01*
X131056277Y-123780147D01*
X130994912Y-123812797D01*
X130989662Y-123816049D01*
X130977438Y-123861767D01*
X130952082Y-123979526D01*
X130917465Y-124150750D01*
X130882820Y-124328789D01*
X130755955Y-124935740D01*
X130623036Y-125457154D01*
X130481120Y-125899634D01*
X130327263Y-126269787D01*
X130158522Y-126574217D01*
X129971953Y-126819530D01*
X129764612Y-127012332D01*
X129651706Y-127091438D01*
X129343076Y-127236696D01*
X128982648Y-127320337D01*
X128588809Y-127340534D01*
X128179944Y-127295457D01*
X128003539Y-127255404D01*
X127580363Y-127127197D01*
X127155106Y-126962734D01*
X126696305Y-126749716D01*
X126647256Y-126725213D01*
X126212934Y-126507004D01*
X125767560Y-126626687D01*
X125561276Y-126678455D01*
X125373949Y-126718952D01*
X125232824Y-126742585D01*
X125184414Y-126746370D01*
X124920812Y-126703693D01*
X124654837Y-126584900D01*
X124404244Y-126403846D01*
X124186791Y-126174386D01*
X124020232Y-125910376D01*
X123972897Y-125801021D01*
X123902605Y-125514267D01*
X124292650Y-125514267D01*
X124334752Y-125776352D01*
X124451828Y-126005276D01*
X124630028Y-126192595D01*
X124855507Y-126329865D01*
X125114414Y-126408644D01*
X125392904Y-126420486D01*
X125675590Y-126357513D01*
X125787762Y-126300687D01*
X125823004Y-126234236D01*
X125821028Y-126211202D01*
X125787759Y-126107155D01*
X125722413Y-126049633D01*
X125605403Y-126029990D01*
X125429673Y-126038439D01*
X125193005Y-126044016D01*
X125015492Y-126005278D01*
X124885281Y-125911577D01*
X124790520Y-125752264D01*
X124719357Y-125516692D01*
X124690233Y-125374126D01*
X124644970Y-125181946D01*
X124590379Y-125062427D01*
X124532752Y-125004901D01*
X124464329Y-124967715D01*
X124420546Y-124984240D01*
X124376097Y-125068961D01*
X124361794Y-125102786D01*
X124320731Y-125249466D01*
X124295956Y-125431347D01*
X124292650Y-125514267D01*
X123902605Y-125514267D01*
X123896789Y-125490541D01*
X123898508Y-125184296D01*
X123977141Y-124903340D01*
X124015126Y-124827955D01*
X124116249Y-124648911D01*
X123903392Y-124280127D01*
X123735568Y-123962064D01*
X123627314Y-123684686D01*
X123609574Y-123601317D01*
X124140918Y-123601317D01*
X124185062Y-123912466D01*
X124305613Y-124224118D01*
X124490699Y-124510180D01*
X124617528Y-124648911D01*
X124726754Y-124750193D01*
X124791437Y-124793676D01*
X124831552Y-124787425D01*
X124858280Y-124752631D01*
X125168769Y-124752631D01*
X125210761Y-125001459D01*
X125327080Y-125211868D01*
X125505784Y-125377962D01*
X125734931Y-125493845D01*
X126002578Y-125553622D01*
X126296784Y-125551396D01*
X126605607Y-125481272D01*
X126628492Y-125473301D01*
X126794887Y-125402454D01*
X126880016Y-125328668D01*
X126893728Y-125234909D01*
X126845868Y-125104140D01*
X126844036Y-125100388D01*
X126745891Y-124956993D01*
X126616706Y-124832745D01*
X126597709Y-124819322D01*
X126436526Y-124711928D01*
X126405485Y-124863702D01*
X126335957Y-125036653D01*
X126225214Y-125141461D01*
X126092745Y-125179377D01*
X125958034Y-125151654D01*
X125840568Y-125059542D01*
X125759834Y-124904292D01*
X125741640Y-124821068D01*
X125713592Y-124679103D01*
X125679119Y-124572005D01*
X125664130Y-124545190D01*
X125569248Y-124490654D01*
X125443743Y-124494834D01*
X125316190Y-124545764D01*
X125215161Y-124631478D01*
X125169231Y-124740012D01*
X125168769Y-124752631D01*
X124858280Y-124752631D01*
X124862115Y-124747638D01*
X125035236Y-124516151D01*
X125229359Y-124362518D01*
X125463525Y-124276447D01*
X125756773Y-124247648D01*
X125787514Y-124247515D01*
X126105490Y-124277194D01*
X126400257Y-124359005D01*
X126662348Y-124484148D01*
X126882293Y-124643829D01*
X127050623Y-124829248D01*
X127157869Y-125031609D01*
X127194564Y-125242115D01*
X127151237Y-125451969D01*
X127130854Y-125495579D01*
X127024793Y-125617078D01*
X126842698Y-125713104D01*
X126579316Y-125785867D01*
X126352200Y-125823041D01*
X126175609Y-125845522D01*
X126033139Y-125862249D01*
X125950626Y-125870225D01*
X125943198Y-125870508D01*
X125921570Y-125891440D01*
X125968900Y-125948956D01*
X126073400Y-126035134D01*
X126223285Y-126142055D01*
X126406768Y-126261798D01*
X126612062Y-126386441D01*
X126827382Y-126508065D01*
X127040941Y-126618749D01*
X127096741Y-126645716D01*
X127516403Y-126824029D01*
X127900811Y-126939436D01*
X128275930Y-126997969D01*
X128648911Y-127006337D01*
X128916470Y-126990607D01*
X129124718Y-126960375D01*
X129306107Y-126910084D01*
X129385827Y-126880147D01*
X129559911Y-126799481D01*
X129681146Y-126708525D01*
X129786797Y-126577506D01*
X129812214Y-126539486D01*
X129958645Y-126282143D01*
X130107502Y-125960712D01*
X130247652Y-125602296D01*
X130367963Y-125234000D01*
X130408864Y-125086842D01*
X130456140Y-124865936D01*
X130497005Y-124598618D01*
X130529820Y-124306871D01*
X130552944Y-124012675D01*
X130564737Y-123738011D01*
X130563558Y-123504861D01*
X130547767Y-123335207D01*
X130541709Y-123306731D01*
X130521902Y-123241646D01*
X130501706Y-123232865D01*
X130472273Y-123290436D01*
X130424757Y-123424401D01*
X130416454Y-123448949D01*
X130260556Y-123812707D01*
X130058492Y-124104389D01*
X129799375Y-124337100D01*
X129557692Y-124482533D01*
X129431784Y-124540804D01*
X129347449Y-124555770D01*
X129267077Y-124531355D01*
X129236420Y-124516056D01*
X129033257Y-124360088D01*
X128881015Y-124136246D01*
X128853029Y-124072686D01*
X128807478Y-123882198D01*
X128791814Y-123635196D01*
X128797967Y-123480872D01*
X129080515Y-123480872D01*
X129088663Y-123624879D01*
X129110231Y-123782363D01*
X129142801Y-123927865D01*
X129179975Y-124028424D01*
X129259888Y-124152505D01*
X129347110Y-124202584D01*
X129460828Y-124181462D01*
X129619266Y-124092566D01*
X129847472Y-123894668D01*
X130023185Y-123642516D01*
X130140382Y-123355943D01*
X130193040Y-123054782D01*
X130175135Y-122758867D01*
X130096886Y-122519908D01*
X130027385Y-122395546D01*
X129960846Y-122336621D01*
X129871377Y-122321005D01*
X129864107Y-122320962D01*
X129715542Y-122344517D01*
X129571557Y-122404008D01*
X129467122Y-122482671D01*
X129440665Y-122523948D01*
X129455438Y-122585719D01*
X129555971Y-122638645D01*
X129566594Y-122642236D01*
X129741200Y-122736711D01*
X129879221Y-122879334D01*
X129932328Y-122980435D01*
X129934304Y-123105018D01*
X129878598Y-123249054D01*
X129782683Y-123378594D01*
X129692037Y-123447301D01*
X129522887Y-123510489D01*
X129382260Y-123499745D01*
X129258655Y-123427314D01*
X129170027Y-123363590D01*
X129115493Y-123335211D01*
X129114144Y-123335118D01*
X129088203Y-123375799D01*
X129080515Y-123480872D01*
X128797967Y-123480872D01*
X128802962Y-123355579D01*
X128837845Y-123067242D01*
X128893391Y-122794083D01*
X128966523Y-122560000D01*
X129054167Y-122388890D01*
X129072797Y-122364766D01*
X129244550Y-122200348D01*
X129443382Y-122093861D01*
X129689170Y-122037758D01*
X129969756Y-122024121D01*
X130368641Y-122026849D01*
X130368095Y-122025413D01*
X130654174Y-122025413D01*
X130659926Y-122114534D01*
X130691530Y-122169903D01*
X130770506Y-122210896D01*
X130907866Y-122253842D01*
X131110384Y-122339036D01*
X131225830Y-122452634D01*
X131254678Y-122596393D01*
X131197405Y-122772071D01*
X131092105Y-122933890D01*
X130981948Y-123106857D01*
X130929640Y-123254046D01*
X130936238Y-123362948D01*
X131002797Y-123421057D01*
X131050419Y-123427314D01*
X131174941Y-123403805D01*
X131307363Y-123347214D01*
X131308345Y-123346642D01*
X131472294Y-123201168D01*
X131582427Y-123000906D01*
X131637866Y-122766551D01*
X131637734Y-122518798D01*
X131581156Y-122278342D01*
X131467254Y-122065876D01*
X131367224Y-121957072D01*
X131218093Y-121853115D01*
X131069641Y-121815534D01*
X131032879Y-121814513D01*
X130842464Y-121823834D01*
X130726803Y-121856167D01*
X130669504Y-121920642D01*
X130654174Y-122025413D01*
X130368095Y-122025413D01*
X130326382Y-121915700D01*
X130191436Y-121654248D01*
X129992202Y-121386866D01*
X129751497Y-121137843D01*
X129492139Y-120931466D01*
X129294283Y-120816997D01*
X129133782Y-120753813D01*
X128985336Y-120716385D01*
X128871122Y-120708027D01*
X128813314Y-120732055D01*
X128810254Y-120744638D01*
X128841489Y-120791943D01*
X128924142Y-120883394D01*
X129041632Y-121000875D01*
X129066502Y-121024623D01*
X129217238Y-121181739D01*
X129291601Y-121292066D01*
X129293199Y-121354679D01*
X129225635Y-121368656D01*
X129092515Y-121333072D01*
X128897445Y-121247006D01*
X128671960Y-121125658D01*
X128423869Y-120993589D01*
X128197774Y-120892423D01*
X128005636Y-120825745D01*
X127859416Y-120797143D01*
X127771076Y-120810204D01*
X127750000Y-120849202D01*
X127780228Y-120900256D01*
X127862393Y-121001925D01*
X127983710Y-121139159D01*
X128121706Y-121286808D01*
X128303287Y-121485180D01*
X128414835Y-121628739D01*
X128458121Y-121720497D01*
X128434916Y-121763472D01*
X128404176Y-121767703D01*
X128355949Y-121741682D01*
X128251905Y-121671706D01*
X128109488Y-121569794D01*
X128008984Y-121495404D01*
X127733143Y-121309409D01*
X127490522Y-121187883D01*
X127288930Y-121134041D01*
X127155555Y-121143930D01*
X127079861Y-121180533D01*
X127061140Y-121206192D01*
X127097042Y-121246851D01*
X127189117Y-121324390D01*
X127318105Y-121422679D01*
X127329847Y-121431250D01*
X127494830Y-121567048D01*
X127639929Y-121715179D01*
X127756809Y-121862476D01*
X127837137Y-121995770D01*
X127872576Y-122101892D01*
X127854793Y-122167673D01*
X127805421Y-122182668D01*
X127716391Y-122160816D01*
X127598192Y-122090613D01*
X127441238Y-121965084D01*
X127235945Y-121777255D01*
X127196824Y-121739852D01*
X126991186Y-121561115D01*
X126814036Y-121452340D01*
X126647514Y-121403793D01*
X126571500Y-121399002D01*
X126491287Y-121407628D01*
X126468906Y-121440489D01*
X126508052Y-121508059D01*
X126612422Y-121620812D01*
X126669782Y-121677516D01*
X126807865Y-121825823D01*
X126946988Y-121997861D01*
X127073337Y-122173688D01*
X127173096Y-122333356D01*
X127232450Y-122456920D01*
X127242922Y-122504962D01*
X127207633Y-122606820D01*
X127124106Y-122665691D01*
X127043246Y-122663298D01*
X126979966Y-122609383D01*
X126897418Y-122501824D01*
X126846549Y-122420488D01*
X126679479Y-122154917D01*
X126508100Y-121926507D01*
X126346503Y-121752694D01*
X126237866Y-121667195D01*
X126135202Y-121612918D01*
X126068540Y-121594810D01*
X126060611Y-121597888D01*
X126046203Y-121672757D01*
X126081928Y-121801041D01*
X126160219Y-121964246D01*
X126273509Y-122143880D01*
X126297792Y-122177562D01*
X126465421Y-122419454D01*
X126579298Y-122614651D01*
X126638277Y-122758525D01*
X126641210Y-122846444D01*
X126586950Y-122873780D01*
X126474349Y-122835902D01*
X126458948Y-122827875D01*
X126392460Y-122768095D01*
X126296971Y-122653143D01*
X126191707Y-122506425D01*
X126178378Y-122486344D01*
X126060905Y-122325298D01*
X125949412Y-122202948D01*
X125855596Y-122128608D01*
X125791158Y-122111593D01*
X125767786Y-122159472D01*
X125788557Y-122226074D01*
X125844671Y-122353232D01*
X125926829Y-122520839D01*
X125998276Y-122657872D01*
X126117451Y-122887670D01*
X126190748Y-123049772D01*
X126220318Y-123155183D01*
X126208308Y-123214906D01*
X126156867Y-123239946D01*
X126112505Y-123242922D01*
X126065434Y-123240233D01*
X126023660Y-123224485D01*
X125978049Y-123184159D01*
X125919469Y-123107733D01*
X125838788Y-122983689D01*
X125726872Y-122800505D01*
X125618025Y-122619184D01*
X125529077Y-122496502D01*
X125457840Y-122443832D01*
X125415287Y-122462731D01*
X125412392Y-122554754D01*
X125419536Y-122591054D01*
X125445387Y-122686206D01*
X125492231Y-122843493D01*
X125552369Y-123037434D01*
X125592521Y-123163564D01*
X125659177Y-123381062D01*
X125694971Y-123527563D01*
X125702543Y-123617964D01*
X125684535Y-123667162D01*
X125682227Y-123669606D01*
X125606579Y-123700095D01*
X125550632Y-123676736D01*
X125504263Y-123643433D01*
X125464062Y-123598592D01*
X125420150Y-123524999D01*
X125362646Y-123405439D01*
X125281672Y-123222698D01*
X125255355Y-123162250D01*
X125182536Y-123005533D01*
X125119082Y-122888204D01*
X125076308Y-122830682D01*
X125070144Y-122828040D01*
X125037500Y-122868671D01*
X125028920Y-122976366D01*
X125042153Y-123129830D01*
X125074945Y-123307768D01*
X125125043Y-123488883D01*
X125146483Y-123549706D01*
X125209971Y-123739002D01*
X125229928Y-123856826D01*
X125214361Y-123906981D01*
X125143041Y-123932147D01*
X125057732Y-123875471D01*
X124955830Y-123734280D01*
X124845826Y-123528754D01*
X124730295Y-123304165D01*
X124645950Y-123166271D01*
X124592961Y-123114945D01*
X124571500Y-123150059D01*
X124581740Y-123271485D01*
X124623853Y-123479095D01*
X124668506Y-123660613D01*
X124710970Y-123848210D01*
X124736751Y-124009059D01*
X124742093Y-124117248D01*
X124737896Y-124139392D01*
X124708387Y-124195908D01*
X124667208Y-124186217D01*
X124617091Y-124143422D01*
X124558600Y-124050456D01*
X124495593Y-123879423D01*
X124433056Y-123643965D01*
X124430579Y-123633156D01*
X124363532Y-123378681D01*
X124300303Y-123212374D01*
X124243795Y-123134553D01*
X124196910Y-123145539D01*
X124162550Y-123245649D01*
X124143616Y-123435203D01*
X124140918Y-123601317D01*
X123609574Y-123601317D01*
X123571960Y-123424553D01*
X123562832Y-123158226D01*
X123566388Y-123096147D01*
X123638625Y-122718337D01*
X123798499Y-122366976D01*
X124044471Y-122045110D01*
X124150929Y-121939699D01*
X124485434Y-121662728D01*
X124890649Y-121380615D01*
X125346497Y-121104270D01*
X125832902Y-120844605D01*
X126329786Y-120612529D01*
X126817071Y-120418953D01*
X127150726Y-120309535D01*
X127470637Y-120235588D01*
X127832091Y-120185097D01*
X128203512Y-120160122D01*
X128553326Y-120162725D01*
G37*
D12*
%TO.C,C3*%
X130130000Y-92945000D02*
X130130000Y-92630000D01*
X130130000Y-95370000D02*
X130130000Y-95055000D01*
X135370000Y-92630000D02*
X130130000Y-92630000D01*
X135370000Y-92945000D02*
X135370000Y-92630000D01*
X135370000Y-95370000D02*
X130130000Y-95370000D01*
X135370000Y-95370000D02*
X135370000Y-95055000D01*
%TD*%
M02*
