%TF.GenerationSoftware,KiCad,Pcbnew,8.0.7*%
%TF.CreationDate,2025-02-03T11:19:23+09:00*%
%TF.ProjectId,rusty-hangulclock,72757374-792d-4686-916e-67756c636c6f,rev?*%
%TF.SameCoordinates,Original*%
%TF.FileFunction,Soldermask,Top*%
%TF.FilePolarity,Negative*%
%FSLAX46Y46*%
G04 Gerber Fmt 4.6, Leading zero omitted, Abs format (unit mm)*
G04 Created by KiCad (PCBNEW 8.0.7) date 2025-02-03 11:19:23*
%MOMM*%
%LPD*%
G01*
G04 APERTURE LIST*
G04 Aperture macros list*
%AMRoundRect*
0 Rectangle with rounded corners*
0 $1 Rounding radius*
0 $2 $3 $4 $5 $6 $7 $8 $9 X,Y pos of 4 corners*
0 Add a 4 corners polygon primitive as box body*
4,1,4,$2,$3,$4,$5,$6,$7,$8,$9,$2,$3,0*
0 Add four circle primitives for the rounded corners*
1,1,$1+$1,$2,$3*
1,1,$1+$1,$4,$5*
1,1,$1+$1,$6,$7*
1,1,$1+$1,$8,$9*
0 Add four rect primitives between the rounded corners*
20,1,$1+$1,$2,$3,$4,$5,0*
20,1,$1+$1,$4,$5,$6,$7,0*
20,1,$1+$1,$6,$7,$8,$9,0*
20,1,$1+$1,$8,$9,$2,$3,0*%
G04 Aperture macros list end*
%ADD10R,1.700000X1.700000*%
%ADD11O,1.700000X1.700000*%
%ADD12C,3.200000*%
%ADD13RoundRect,0.381000X1.619000X0.381000X-1.619000X0.381000X-1.619000X-0.381000X1.619000X-0.381000X0*%
%ADD14C,1.600000*%
%ADD15R,2.000000X2.000000*%
%ADD16C,2.000000*%
%ADD17R,3.200000X2.000000*%
%ADD18R,1.200000X1.200000*%
%ADD19C,1.200000*%
G04 APERTURE END LIST*
D10*
%TO.C,J1*%
X163250000Y-116000000D03*
D11*
X163250000Y-113460000D03*
X163250000Y-110920000D03*
X163250000Y-108380000D03*
%TD*%
D12*
%TO.C,H1*%
X162500000Y-88500000D03*
%TD*%
D10*
%TO.C,J3*%
X133355000Y-136725686D03*
D11*
X130815000Y-136725686D03*
%TD*%
D12*
%TO.C,H3*%
X124500000Y-135500000D03*
%TD*%
D13*
%TO.C,ESP32-C3_SuperMini1*%
X138500000Y-119880000D03*
X138500000Y-122420000D03*
X138500000Y-124960000D03*
X138500000Y-127500000D03*
X138500000Y-132580000D03*
X138500000Y-130040000D03*
X156500000Y-137660000D03*
X138500000Y-137640000D03*
X156500000Y-135120000D03*
X156500000Y-132580000D03*
X156500000Y-130040000D03*
X156500000Y-127500000D03*
X156500000Y-124960000D03*
X156500000Y-122420000D03*
X156500000Y-119880000D03*
X138500000Y-135120000D03*
%TD*%
D14*
%TO.C,C4*%
X135250000Y-89000000D03*
X130250000Y-89000000D03*
%TD*%
D15*
%TO.C,SW1*%
X139750000Y-91250000D03*
D16*
X139750000Y-96250000D03*
X139750000Y-93750000D03*
D17*
X147250000Y-88150000D03*
X147250000Y-99350000D03*
D16*
X154250000Y-96250000D03*
X154250000Y-91250000D03*
%TD*%
D14*
%TO.C,C2*%
X135250000Y-98750000D03*
X130250000Y-98750000D03*
%TD*%
D10*
%TO.C,J2*%
X131500000Y-116000000D03*
D11*
X131500000Y-113460000D03*
X131500000Y-110920000D03*
X131500000Y-108380000D03*
%TD*%
D12*
%TO.C,H4*%
X124500000Y-88500000D03*
%TD*%
D18*
%TO.C,C1*%
X133000000Y-131000000D03*
D19*
X131000000Y-131000000D03*
%TD*%
D12*
%TO.C,H2*%
X162500000Y-135500000D03*
%TD*%
D14*
%TO.C,C3*%
X135250000Y-94000000D03*
X130250000Y-94000000D03*
%TD*%
M02*
