M48
; DRILL file {KiCad 8.0.7} date 2025-02-03T11:19:28+0900
; FORMAT={-:-/ absolute / inch / decimal}
; #@! TF.CreationDate,2025-02-03T11:19:28+09:00
; #@! TF.GenerationSoftware,Kicad,Pcbnew,8.0.7
; #@! TF.FileFunction,Plated,1,2,PTH
FMAT,2
INCH
; #@! TA.AperFunction,Plated,PTH,ViaDrill
T1C0.0118
; #@! TA.AperFunction,Plated,PTH,ComponentDrill
T2C0.0236
; #@! TA.AperFunction,Plated,PTH,ComponentDrill
T3C0.0315
; #@! TA.AperFunction,Plated,PTH,ComponentDrill
T4C0.0394
; #@! TA.AperFunction,Plated,PTH,ComponentDrill
T5C0.0591
%
G90
G05
T1
X5.4528Y-5.2197
X5.4528Y-5.3197
X5.6299Y-5.0295
T2
X5.1575Y-5.1575
X5.2362Y-5.1575
T3
X5.128Y-3.5039
X5.128Y-3.7008
X5.128Y-3.8878
X5.3248Y-3.5039
X5.3248Y-3.7008
X5.3248Y-3.8878
T4
X5.1502Y-5.3829
X5.1772Y-4.2669
X5.1772Y-4.3669
X5.1772Y-4.4669
X5.1772Y-4.5669
X5.2502Y-5.3829
X5.502Y-3.5925
X5.502Y-3.6909
X5.502Y-3.7894
X6.0728Y-3.5925
X6.0728Y-3.7894
X6.4272Y-4.2669
X6.4272Y-4.3669
X6.4272Y-4.4669
X6.4272Y-4.5669
T5
G00X5.7717Y-3.4705
M15
G01X5.8228Y-3.4705
M16
G05
G00X5.7717Y-3.9114
M15
G01X5.8228Y-3.9114
M16
G05
M30
