%TF.GenerationSoftware,KiCad,Pcbnew,8.0.7*%
%TF.CreationDate,2025-01-02T11:10:57+09:00*%
%TF.ProjectId,rusty-hangulclock,72757374-792d-4686-916e-67756c636c6f,rev?*%
%TF.SameCoordinates,Original*%
%TF.FileFunction,Legend,Top*%
%TF.FilePolarity,Positive*%
%FSLAX46Y46*%
G04 Gerber Fmt 4.6, Leading zero omitted, Abs format (unit mm)*
G04 Created by KiCad (PCBNEW 8.0.7) date 2025-01-02 11:10:57*
%MOMM*%
%LPD*%
G01*
G04 APERTURE LIST*
%ADD10C,0.100000*%
%ADD11C,0.150000*%
%ADD12C,0.120000*%
G04 APERTURE END LIST*
D10*
X116703884Y-103492419D02*
X116703884Y-102492419D01*
X116703884Y-102492419D02*
X117084836Y-102492419D01*
X117084836Y-102492419D02*
X117180074Y-102540038D01*
X117180074Y-102540038D02*
X117227693Y-102587657D01*
X117227693Y-102587657D02*
X117275312Y-102682895D01*
X117275312Y-102682895D02*
X117275312Y-102825752D01*
X117275312Y-102825752D02*
X117227693Y-102920990D01*
X117227693Y-102920990D02*
X117180074Y-102968609D01*
X117180074Y-102968609D02*
X117084836Y-103016228D01*
X117084836Y-103016228D02*
X116703884Y-103016228D01*
X118132455Y-102492419D02*
X117941979Y-102492419D01*
X117941979Y-102492419D02*
X117846741Y-102540038D01*
X117846741Y-102540038D02*
X117799122Y-102587657D01*
X117799122Y-102587657D02*
X117703884Y-102730514D01*
X117703884Y-102730514D02*
X117656265Y-102920990D01*
X117656265Y-102920990D02*
X117656265Y-103301942D01*
X117656265Y-103301942D02*
X117703884Y-103397180D01*
X117703884Y-103397180D02*
X117751503Y-103444800D01*
X117751503Y-103444800D02*
X117846741Y-103492419D01*
X117846741Y-103492419D02*
X118037217Y-103492419D01*
X118037217Y-103492419D02*
X118132455Y-103444800D01*
X118132455Y-103444800D02*
X118180074Y-103397180D01*
X118180074Y-103397180D02*
X118227693Y-103301942D01*
X118227693Y-103301942D02*
X118227693Y-103063847D01*
X118227693Y-103063847D02*
X118180074Y-102968609D01*
X118180074Y-102968609D02*
X118132455Y-102920990D01*
X118132455Y-102920990D02*
X118037217Y-102873371D01*
X118037217Y-102873371D02*
X117846741Y-102873371D01*
X117846741Y-102873371D02*
X117751503Y-102920990D01*
X117751503Y-102920990D02*
X117703884Y-102968609D01*
X117703884Y-102968609D02*
X117656265Y-103063847D01*
X118656265Y-103492419D02*
X118656265Y-102492419D01*
X118656265Y-102492419D02*
X118989598Y-103206704D01*
X118989598Y-103206704D02*
X119322931Y-102492419D01*
X119322931Y-102492419D02*
X119322931Y-103492419D01*
X119989598Y-102492419D02*
X120180074Y-102492419D01*
X120180074Y-102492419D02*
X120275312Y-102540038D01*
X120275312Y-102540038D02*
X120370550Y-102635276D01*
X120370550Y-102635276D02*
X120418169Y-102825752D01*
X120418169Y-102825752D02*
X120418169Y-103159085D01*
X120418169Y-103159085D02*
X120370550Y-103349561D01*
X120370550Y-103349561D02*
X120275312Y-103444800D01*
X120275312Y-103444800D02*
X120180074Y-103492419D01*
X120180074Y-103492419D02*
X119989598Y-103492419D01*
X119989598Y-103492419D02*
X119894360Y-103444800D01*
X119894360Y-103444800D02*
X119799122Y-103349561D01*
X119799122Y-103349561D02*
X119751503Y-103159085D01*
X119751503Y-103159085D02*
X119751503Y-102825752D01*
X119751503Y-102825752D02*
X119799122Y-102635276D01*
X119799122Y-102635276D02*
X119894360Y-102540038D01*
X119894360Y-102540038D02*
X119989598Y-102492419D01*
X120799122Y-103444800D02*
X120941979Y-103492419D01*
X120941979Y-103492419D02*
X121180074Y-103492419D01*
X121180074Y-103492419D02*
X121275312Y-103444800D01*
X121275312Y-103444800D02*
X121322931Y-103397180D01*
X121322931Y-103397180D02*
X121370550Y-103301942D01*
X121370550Y-103301942D02*
X121370550Y-103206704D01*
X121370550Y-103206704D02*
X121322931Y-103111466D01*
X121322931Y-103111466D02*
X121275312Y-103063847D01*
X121275312Y-103063847D02*
X121180074Y-103016228D01*
X121180074Y-103016228D02*
X120989598Y-102968609D01*
X120989598Y-102968609D02*
X120894360Y-102920990D01*
X120894360Y-102920990D02*
X120846741Y-102873371D01*
X120846741Y-102873371D02*
X120799122Y-102778133D01*
X120799122Y-102778133D02*
X120799122Y-102682895D01*
X120799122Y-102682895D02*
X120846741Y-102587657D01*
X120846741Y-102587657D02*
X120894360Y-102540038D01*
X120894360Y-102540038D02*
X120989598Y-102492419D01*
X120989598Y-102492419D02*
X121227693Y-102492419D01*
X121227693Y-102492419D02*
X121370550Y-102540038D01*
X121799122Y-103492419D02*
X121799122Y-102492419D01*
X116703884Y-98412419D02*
X116703884Y-97412419D01*
X116703884Y-97412419D02*
X117084836Y-97412419D01*
X117084836Y-97412419D02*
X117180074Y-97460038D01*
X117180074Y-97460038D02*
X117227693Y-97507657D01*
X117227693Y-97507657D02*
X117275312Y-97602895D01*
X117275312Y-97602895D02*
X117275312Y-97745752D01*
X117275312Y-97745752D02*
X117227693Y-97840990D01*
X117227693Y-97840990D02*
X117180074Y-97888609D01*
X117180074Y-97888609D02*
X117084836Y-97936228D01*
X117084836Y-97936228D02*
X116703884Y-97936228D01*
X118180074Y-97412419D02*
X117703884Y-97412419D01*
X117703884Y-97412419D02*
X117656265Y-97888609D01*
X117656265Y-97888609D02*
X117703884Y-97840990D01*
X117703884Y-97840990D02*
X117799122Y-97793371D01*
X117799122Y-97793371D02*
X118037217Y-97793371D01*
X118037217Y-97793371D02*
X118132455Y-97840990D01*
X118132455Y-97840990D02*
X118180074Y-97888609D01*
X118180074Y-97888609D02*
X118227693Y-97983847D01*
X118227693Y-97983847D02*
X118227693Y-98221942D01*
X118227693Y-98221942D02*
X118180074Y-98317180D01*
X118180074Y-98317180D02*
X118132455Y-98364800D01*
X118132455Y-98364800D02*
X118037217Y-98412419D01*
X118037217Y-98412419D02*
X117799122Y-98412419D01*
X117799122Y-98412419D02*
X117703884Y-98364800D01*
X117703884Y-98364800D02*
X117656265Y-98317180D01*
X118656265Y-98412419D02*
X118656265Y-97412419D01*
X118656265Y-97412419D02*
X118989598Y-98126704D01*
X118989598Y-98126704D02*
X119322931Y-97412419D01*
X119322931Y-97412419D02*
X119322931Y-98412419D01*
X119799122Y-98412419D02*
X119799122Y-97412419D01*
X120227693Y-98364800D02*
X120370550Y-98412419D01*
X120370550Y-98412419D02*
X120608645Y-98412419D01*
X120608645Y-98412419D02*
X120703883Y-98364800D01*
X120703883Y-98364800D02*
X120751502Y-98317180D01*
X120751502Y-98317180D02*
X120799121Y-98221942D01*
X120799121Y-98221942D02*
X120799121Y-98126704D01*
X120799121Y-98126704D02*
X120751502Y-98031466D01*
X120751502Y-98031466D02*
X120703883Y-97983847D01*
X120703883Y-97983847D02*
X120608645Y-97936228D01*
X120608645Y-97936228D02*
X120418169Y-97888609D01*
X120418169Y-97888609D02*
X120322931Y-97840990D01*
X120322931Y-97840990D02*
X120275312Y-97793371D01*
X120275312Y-97793371D02*
X120227693Y-97698133D01*
X120227693Y-97698133D02*
X120227693Y-97602895D01*
X120227693Y-97602895D02*
X120275312Y-97507657D01*
X120275312Y-97507657D02*
X120322931Y-97460038D01*
X120322931Y-97460038D02*
X120418169Y-97412419D01*
X120418169Y-97412419D02*
X120656264Y-97412419D01*
X120656264Y-97412419D02*
X120799121Y-97460038D01*
X121418169Y-97412419D02*
X121608645Y-97412419D01*
X121608645Y-97412419D02*
X121703883Y-97460038D01*
X121703883Y-97460038D02*
X121799121Y-97555276D01*
X121799121Y-97555276D02*
X121846740Y-97745752D01*
X121846740Y-97745752D02*
X121846740Y-98079085D01*
X121846740Y-98079085D02*
X121799121Y-98269561D01*
X121799121Y-98269561D02*
X121703883Y-98364800D01*
X121703883Y-98364800D02*
X121608645Y-98412419D01*
X121608645Y-98412419D02*
X121418169Y-98412419D01*
X121418169Y-98412419D02*
X121322931Y-98364800D01*
X121322931Y-98364800D02*
X121227693Y-98269561D01*
X121227693Y-98269561D02*
X121180074Y-98079085D01*
X121180074Y-98079085D02*
X121180074Y-97745752D01*
X121180074Y-97745752D02*
X121227693Y-97555276D01*
X121227693Y-97555276D02*
X121322931Y-97460038D01*
X121322931Y-97460038D02*
X121418169Y-97412419D01*
X117032693Y-104965038D02*
X116937455Y-104917419D01*
X116937455Y-104917419D02*
X116794598Y-104917419D01*
X116794598Y-104917419D02*
X116651741Y-104965038D01*
X116651741Y-104965038D02*
X116556503Y-105060276D01*
X116556503Y-105060276D02*
X116508884Y-105155514D01*
X116508884Y-105155514D02*
X116461265Y-105345990D01*
X116461265Y-105345990D02*
X116461265Y-105488847D01*
X116461265Y-105488847D02*
X116508884Y-105679323D01*
X116508884Y-105679323D02*
X116556503Y-105774561D01*
X116556503Y-105774561D02*
X116651741Y-105869800D01*
X116651741Y-105869800D02*
X116794598Y-105917419D01*
X116794598Y-105917419D02*
X116889836Y-105917419D01*
X116889836Y-105917419D02*
X117032693Y-105869800D01*
X117032693Y-105869800D02*
X117080312Y-105822180D01*
X117080312Y-105822180D02*
X117080312Y-105488847D01*
X117080312Y-105488847D02*
X116889836Y-105488847D01*
X117508884Y-105917419D02*
X117508884Y-104917419D01*
X117508884Y-104917419D02*
X118080312Y-105917419D01*
X118080312Y-105917419D02*
X118080312Y-104917419D01*
X118556503Y-105917419D02*
X118556503Y-104917419D01*
X118556503Y-104917419D02*
X118794598Y-104917419D01*
X118794598Y-104917419D02*
X118937455Y-104965038D01*
X118937455Y-104965038D02*
X119032693Y-105060276D01*
X119032693Y-105060276D02*
X119080312Y-105155514D01*
X119080312Y-105155514D02*
X119127931Y-105345990D01*
X119127931Y-105345990D02*
X119127931Y-105488847D01*
X119127931Y-105488847D02*
X119080312Y-105679323D01*
X119080312Y-105679323D02*
X119032693Y-105774561D01*
X119032693Y-105774561D02*
X118937455Y-105869800D01*
X118937455Y-105869800D02*
X118794598Y-105917419D01*
X118794598Y-105917419D02*
X118556503Y-105917419D01*
X117032693Y-121475038D02*
X116937455Y-121427419D01*
X116937455Y-121427419D02*
X116794598Y-121427419D01*
X116794598Y-121427419D02*
X116651741Y-121475038D01*
X116651741Y-121475038D02*
X116556503Y-121570276D01*
X116556503Y-121570276D02*
X116508884Y-121665514D01*
X116508884Y-121665514D02*
X116461265Y-121855990D01*
X116461265Y-121855990D02*
X116461265Y-121998847D01*
X116461265Y-121998847D02*
X116508884Y-122189323D01*
X116508884Y-122189323D02*
X116556503Y-122284561D01*
X116556503Y-122284561D02*
X116651741Y-122379800D01*
X116651741Y-122379800D02*
X116794598Y-122427419D01*
X116794598Y-122427419D02*
X116889836Y-122427419D01*
X116889836Y-122427419D02*
X117032693Y-122379800D01*
X117032693Y-122379800D02*
X117080312Y-122332180D01*
X117080312Y-122332180D02*
X117080312Y-121998847D01*
X117080312Y-121998847D02*
X116889836Y-121998847D01*
X117508884Y-122427419D02*
X117508884Y-121427419D01*
X117508884Y-121427419D02*
X118080312Y-122427419D01*
X118080312Y-122427419D02*
X118080312Y-121427419D01*
X118556503Y-122427419D02*
X118556503Y-121427419D01*
X118556503Y-121427419D02*
X118794598Y-121427419D01*
X118794598Y-121427419D02*
X118937455Y-121475038D01*
X118937455Y-121475038D02*
X119032693Y-121570276D01*
X119032693Y-121570276D02*
X119080312Y-121665514D01*
X119080312Y-121665514D02*
X119127931Y-121855990D01*
X119127931Y-121855990D02*
X119127931Y-121998847D01*
X119127931Y-121998847D02*
X119080312Y-122189323D01*
X119080312Y-122189323D02*
X119032693Y-122284561D01*
X119032693Y-122284561D02*
X118937455Y-122379800D01*
X118937455Y-122379800D02*
X118794598Y-122427419D01*
X118794598Y-122427419D02*
X118556503Y-122427419D01*
X116508884Y-117347419D02*
X116508884Y-116347419D01*
X116508884Y-116347419D02*
X116889836Y-116347419D01*
X116889836Y-116347419D02*
X116985074Y-116395038D01*
X116985074Y-116395038D02*
X117032693Y-116442657D01*
X117032693Y-116442657D02*
X117080312Y-116537895D01*
X117080312Y-116537895D02*
X117080312Y-116680752D01*
X117080312Y-116680752D02*
X117032693Y-116775990D01*
X117032693Y-116775990D02*
X116985074Y-116823609D01*
X116985074Y-116823609D02*
X116889836Y-116871228D01*
X116889836Y-116871228D02*
X116508884Y-116871228D01*
X117556503Y-117347419D02*
X117746979Y-117347419D01*
X117746979Y-117347419D02*
X117842217Y-117299800D01*
X117842217Y-117299800D02*
X117889836Y-117252180D01*
X117889836Y-117252180D02*
X117985074Y-117109323D01*
X117985074Y-117109323D02*
X118032693Y-116918847D01*
X118032693Y-116918847D02*
X118032693Y-116537895D01*
X118032693Y-116537895D02*
X117985074Y-116442657D01*
X117985074Y-116442657D02*
X117937455Y-116395038D01*
X117937455Y-116395038D02*
X117842217Y-116347419D01*
X117842217Y-116347419D02*
X117651741Y-116347419D01*
X117651741Y-116347419D02*
X117556503Y-116395038D01*
X117556503Y-116395038D02*
X117508884Y-116442657D01*
X117508884Y-116442657D02*
X117461265Y-116537895D01*
X117461265Y-116537895D02*
X117461265Y-116775990D01*
X117461265Y-116775990D02*
X117508884Y-116871228D01*
X117508884Y-116871228D02*
X117556503Y-116918847D01*
X117556503Y-116918847D02*
X117651741Y-116966466D01*
X117651741Y-116966466D02*
X117842217Y-116966466D01*
X117842217Y-116966466D02*
X117937455Y-116918847D01*
X117937455Y-116918847D02*
X117985074Y-116871228D01*
X117985074Y-116871228D02*
X118032693Y-116775990D01*
X118413646Y-117299800D02*
X118556503Y-117347419D01*
X118556503Y-117347419D02*
X118794598Y-117347419D01*
X118794598Y-117347419D02*
X118889836Y-117299800D01*
X118889836Y-117299800D02*
X118937455Y-117252180D01*
X118937455Y-117252180D02*
X118985074Y-117156942D01*
X118985074Y-117156942D02*
X118985074Y-117061704D01*
X118985074Y-117061704D02*
X118937455Y-116966466D01*
X118937455Y-116966466D02*
X118889836Y-116918847D01*
X118889836Y-116918847D02*
X118794598Y-116871228D01*
X118794598Y-116871228D02*
X118604122Y-116823609D01*
X118604122Y-116823609D02*
X118508884Y-116775990D01*
X118508884Y-116775990D02*
X118461265Y-116728371D01*
X118461265Y-116728371D02*
X118413646Y-116633133D01*
X118413646Y-116633133D02*
X118413646Y-116537895D01*
X118413646Y-116537895D02*
X118461265Y-116442657D01*
X118461265Y-116442657D02*
X118508884Y-116395038D01*
X118508884Y-116395038D02*
X118604122Y-116347419D01*
X118604122Y-116347419D02*
X118842217Y-116347419D01*
X118842217Y-116347419D02*
X118985074Y-116395038D01*
X119985074Y-117252180D02*
X119937455Y-117299800D01*
X119937455Y-117299800D02*
X119794598Y-117347419D01*
X119794598Y-117347419D02*
X119699360Y-117347419D01*
X119699360Y-117347419D02*
X119556503Y-117299800D01*
X119556503Y-117299800D02*
X119461265Y-117204561D01*
X119461265Y-117204561D02*
X119413646Y-117109323D01*
X119413646Y-117109323D02*
X119366027Y-116918847D01*
X119366027Y-116918847D02*
X119366027Y-116775990D01*
X119366027Y-116775990D02*
X119413646Y-116585514D01*
X119413646Y-116585514D02*
X119461265Y-116490276D01*
X119461265Y-116490276D02*
X119556503Y-116395038D01*
X119556503Y-116395038D02*
X119699360Y-116347419D01*
X119699360Y-116347419D02*
X119794598Y-116347419D01*
X119794598Y-116347419D02*
X119937455Y-116395038D01*
X119937455Y-116395038D02*
X119985074Y-116442657D01*
X120889836Y-117347419D02*
X120413646Y-117347419D01*
X120413646Y-117347419D02*
X120413646Y-116347419D01*
X116508884Y-114807419D02*
X116508884Y-113807419D01*
X116508884Y-113807419D02*
X116889836Y-113807419D01*
X116889836Y-113807419D02*
X116985074Y-113855038D01*
X116985074Y-113855038D02*
X117032693Y-113902657D01*
X117032693Y-113902657D02*
X117080312Y-113997895D01*
X117080312Y-113997895D02*
X117080312Y-114140752D01*
X117080312Y-114140752D02*
X117032693Y-114235990D01*
X117032693Y-114235990D02*
X116985074Y-114283609D01*
X116985074Y-114283609D02*
X116889836Y-114331228D01*
X116889836Y-114331228D02*
X116508884Y-114331228D01*
X118032693Y-114807419D02*
X117461265Y-114807419D01*
X117746979Y-114807419D02*
X117746979Y-113807419D01*
X117746979Y-113807419D02*
X117651741Y-113950276D01*
X117651741Y-113950276D02*
X117556503Y-114045514D01*
X117556503Y-114045514D02*
X117461265Y-114093133D01*
X118651741Y-113807419D02*
X118746979Y-113807419D01*
X118746979Y-113807419D02*
X118842217Y-113855038D01*
X118842217Y-113855038D02*
X118889836Y-113902657D01*
X118889836Y-113902657D02*
X118937455Y-113997895D01*
X118937455Y-113997895D02*
X118985074Y-114188371D01*
X118985074Y-114188371D02*
X118985074Y-114426466D01*
X118985074Y-114426466D02*
X118937455Y-114616942D01*
X118937455Y-114616942D02*
X118889836Y-114712180D01*
X118889836Y-114712180D02*
X118842217Y-114759800D01*
X118842217Y-114759800D02*
X118746979Y-114807419D01*
X118746979Y-114807419D02*
X118651741Y-114807419D01*
X118651741Y-114807419D02*
X118556503Y-114759800D01*
X118556503Y-114759800D02*
X118508884Y-114712180D01*
X118508884Y-114712180D02*
X118461265Y-114616942D01*
X118461265Y-114616942D02*
X118413646Y-114426466D01*
X118413646Y-114426466D02*
X118413646Y-114188371D01*
X118413646Y-114188371D02*
X118461265Y-113997895D01*
X118461265Y-113997895D02*
X118508884Y-113902657D01*
X118508884Y-113902657D02*
X118556503Y-113855038D01*
X118556503Y-113855038D02*
X118651741Y-113807419D01*
X116703884Y-100952419D02*
X116703884Y-99952419D01*
X116703884Y-99952419D02*
X117084836Y-99952419D01*
X117084836Y-99952419D02*
X117180074Y-100000038D01*
X117180074Y-100000038D02*
X117227693Y-100047657D01*
X117227693Y-100047657D02*
X117275312Y-100142895D01*
X117275312Y-100142895D02*
X117275312Y-100285752D01*
X117275312Y-100285752D02*
X117227693Y-100380990D01*
X117227693Y-100380990D02*
X117180074Y-100428609D01*
X117180074Y-100428609D02*
X117084836Y-100476228D01*
X117084836Y-100476228D02*
X116703884Y-100476228D01*
X118132455Y-100285752D02*
X118132455Y-100952419D01*
X117894360Y-99904800D02*
X117656265Y-100619085D01*
X117656265Y-100619085D02*
X118275312Y-100619085D01*
X118608646Y-100904800D02*
X118751503Y-100952419D01*
X118751503Y-100952419D02*
X118989598Y-100952419D01*
X118989598Y-100952419D02*
X119084836Y-100904800D01*
X119084836Y-100904800D02*
X119132455Y-100857180D01*
X119132455Y-100857180D02*
X119180074Y-100761942D01*
X119180074Y-100761942D02*
X119180074Y-100666704D01*
X119180074Y-100666704D02*
X119132455Y-100571466D01*
X119132455Y-100571466D02*
X119084836Y-100523847D01*
X119084836Y-100523847D02*
X118989598Y-100476228D01*
X118989598Y-100476228D02*
X118799122Y-100428609D01*
X118799122Y-100428609D02*
X118703884Y-100380990D01*
X118703884Y-100380990D02*
X118656265Y-100333371D01*
X118656265Y-100333371D02*
X118608646Y-100238133D01*
X118608646Y-100238133D02*
X118608646Y-100142895D01*
X118608646Y-100142895D02*
X118656265Y-100047657D01*
X118656265Y-100047657D02*
X118703884Y-100000038D01*
X118703884Y-100000038D02*
X118799122Y-99952419D01*
X118799122Y-99952419D02*
X119037217Y-99952419D01*
X119037217Y-99952419D02*
X119180074Y-100000038D01*
X120180074Y-100857180D02*
X120132455Y-100904800D01*
X120132455Y-100904800D02*
X119989598Y-100952419D01*
X119989598Y-100952419D02*
X119894360Y-100952419D01*
X119894360Y-100952419D02*
X119751503Y-100904800D01*
X119751503Y-100904800D02*
X119656265Y-100809561D01*
X119656265Y-100809561D02*
X119608646Y-100714323D01*
X119608646Y-100714323D02*
X119561027Y-100523847D01*
X119561027Y-100523847D02*
X119561027Y-100380990D01*
X119561027Y-100380990D02*
X119608646Y-100190514D01*
X119608646Y-100190514D02*
X119656265Y-100095276D01*
X119656265Y-100095276D02*
X119751503Y-100000038D01*
X119751503Y-100000038D02*
X119894360Y-99952419D01*
X119894360Y-99952419D02*
X119989598Y-99952419D01*
X119989598Y-99952419D02*
X120132455Y-100000038D01*
X120132455Y-100000038D02*
X120180074Y-100047657D01*
X120608646Y-100952419D02*
X120608646Y-99952419D01*
X121180074Y-100952419D02*
X120751503Y-100380990D01*
X121180074Y-99952419D02*
X120608646Y-100523847D01*
X116703884Y-95872419D02*
X116703884Y-94872419D01*
X116703884Y-94872419D02*
X117084836Y-94872419D01*
X117084836Y-94872419D02*
X117180074Y-94920038D01*
X117180074Y-94920038D02*
X117227693Y-94967657D01*
X117227693Y-94967657D02*
X117275312Y-95062895D01*
X117275312Y-95062895D02*
X117275312Y-95205752D01*
X117275312Y-95205752D02*
X117227693Y-95300990D01*
X117227693Y-95300990D02*
X117180074Y-95348609D01*
X117180074Y-95348609D02*
X117084836Y-95396228D01*
X117084836Y-95396228D02*
X116703884Y-95396228D01*
X117608646Y-94872419D02*
X118275312Y-94872419D01*
X118275312Y-94872419D02*
X117846741Y-95872419D01*
X118608646Y-95824800D02*
X118751503Y-95872419D01*
X118751503Y-95872419D02*
X118989598Y-95872419D01*
X118989598Y-95872419D02*
X119084836Y-95824800D01*
X119084836Y-95824800D02*
X119132455Y-95777180D01*
X119132455Y-95777180D02*
X119180074Y-95681942D01*
X119180074Y-95681942D02*
X119180074Y-95586704D01*
X119180074Y-95586704D02*
X119132455Y-95491466D01*
X119132455Y-95491466D02*
X119084836Y-95443847D01*
X119084836Y-95443847D02*
X118989598Y-95396228D01*
X118989598Y-95396228D02*
X118799122Y-95348609D01*
X118799122Y-95348609D02*
X118703884Y-95300990D01*
X118703884Y-95300990D02*
X118656265Y-95253371D01*
X118656265Y-95253371D02*
X118608646Y-95158133D01*
X118608646Y-95158133D02*
X118608646Y-95062895D01*
X118608646Y-95062895D02*
X118656265Y-94967657D01*
X118656265Y-94967657D02*
X118703884Y-94920038D01*
X118703884Y-94920038D02*
X118799122Y-94872419D01*
X118799122Y-94872419D02*
X119037217Y-94872419D01*
X119037217Y-94872419D02*
X119180074Y-94920038D01*
X119561027Y-95824800D02*
X119703884Y-95872419D01*
X119703884Y-95872419D02*
X119941979Y-95872419D01*
X119941979Y-95872419D02*
X120037217Y-95824800D01*
X120037217Y-95824800D02*
X120084836Y-95777180D01*
X120084836Y-95777180D02*
X120132455Y-95681942D01*
X120132455Y-95681942D02*
X120132455Y-95586704D01*
X120132455Y-95586704D02*
X120084836Y-95491466D01*
X120084836Y-95491466D02*
X120037217Y-95443847D01*
X120037217Y-95443847D02*
X119941979Y-95396228D01*
X119941979Y-95396228D02*
X119751503Y-95348609D01*
X119751503Y-95348609D02*
X119656265Y-95300990D01*
X119656265Y-95300990D02*
X119608646Y-95253371D01*
X119608646Y-95253371D02*
X119561027Y-95158133D01*
X119561027Y-95158133D02*
X119561027Y-95062895D01*
X119561027Y-95062895D02*
X119608646Y-94967657D01*
X119608646Y-94967657D02*
X119656265Y-94920038D01*
X119656265Y-94920038D02*
X119751503Y-94872419D01*
X119751503Y-94872419D02*
X119989598Y-94872419D01*
X119989598Y-94872419D02*
X120132455Y-94920038D01*
X116985074Y-107457419D02*
X116508884Y-107457419D01*
X116508884Y-107457419D02*
X116461265Y-107933609D01*
X116461265Y-107933609D02*
X116508884Y-107885990D01*
X116508884Y-107885990D02*
X116604122Y-107838371D01*
X116604122Y-107838371D02*
X116842217Y-107838371D01*
X116842217Y-107838371D02*
X116937455Y-107885990D01*
X116937455Y-107885990D02*
X116985074Y-107933609D01*
X116985074Y-107933609D02*
X117032693Y-108028847D01*
X117032693Y-108028847D02*
X117032693Y-108266942D01*
X117032693Y-108266942D02*
X116985074Y-108362180D01*
X116985074Y-108362180D02*
X116937455Y-108409800D01*
X116937455Y-108409800D02*
X116842217Y-108457419D01*
X116842217Y-108457419D02*
X116604122Y-108457419D01*
X116604122Y-108457419D02*
X116508884Y-108409800D01*
X116508884Y-108409800D02*
X116461265Y-108362180D01*
X117318408Y-107457419D02*
X117651741Y-108457419D01*
X117651741Y-108457419D02*
X117985074Y-107457419D01*
X135375312Y-129652531D02*
X135041979Y-129176340D01*
X134803884Y-129652531D02*
X134803884Y-128652531D01*
X134803884Y-128652531D02*
X135184836Y-128652531D01*
X135184836Y-128652531D02*
X135280074Y-128700150D01*
X135280074Y-128700150D02*
X135327693Y-128747769D01*
X135327693Y-128747769D02*
X135375312Y-128843007D01*
X135375312Y-128843007D02*
X135375312Y-128985864D01*
X135375312Y-128985864D02*
X135327693Y-129081102D01*
X135327693Y-129081102D02*
X135280074Y-129128721D01*
X135280074Y-129128721D02*
X135184836Y-129176340D01*
X135184836Y-129176340D02*
X134803884Y-129176340D01*
X136232455Y-128985864D02*
X136232455Y-129652531D01*
X135803884Y-128985864D02*
X135803884Y-129509673D01*
X135803884Y-129509673D02*
X135851503Y-129604912D01*
X135851503Y-129604912D02*
X135946741Y-129652531D01*
X135946741Y-129652531D02*
X136089598Y-129652531D01*
X136089598Y-129652531D02*
X136184836Y-129604912D01*
X136184836Y-129604912D02*
X136232455Y-129557292D01*
X136661027Y-129604912D02*
X136756265Y-129652531D01*
X136756265Y-129652531D02*
X136946741Y-129652531D01*
X136946741Y-129652531D02*
X137041979Y-129604912D01*
X137041979Y-129604912D02*
X137089598Y-129509673D01*
X137089598Y-129509673D02*
X137089598Y-129462054D01*
X137089598Y-129462054D02*
X137041979Y-129366816D01*
X137041979Y-129366816D02*
X136946741Y-129319197D01*
X136946741Y-129319197D02*
X136803884Y-129319197D01*
X136803884Y-129319197D02*
X136708646Y-129271578D01*
X136708646Y-129271578D02*
X136661027Y-129176340D01*
X136661027Y-129176340D02*
X136661027Y-129128721D01*
X136661027Y-129128721D02*
X136708646Y-129033483D01*
X136708646Y-129033483D02*
X136803884Y-128985864D01*
X136803884Y-128985864D02*
X136946741Y-128985864D01*
X136946741Y-128985864D02*
X137041979Y-129033483D01*
X137375313Y-128985864D02*
X137756265Y-128985864D01*
X137518170Y-128652531D02*
X137518170Y-129509673D01*
X137518170Y-129509673D02*
X137565789Y-129604912D01*
X137565789Y-129604912D02*
X137661027Y-129652531D01*
X137661027Y-129652531D02*
X137756265Y-129652531D01*
X137994361Y-128985864D02*
X138232456Y-129652531D01*
X138470551Y-128985864D02*
X138232456Y-129652531D01*
X138232456Y-129652531D02*
X138137218Y-129890626D01*
X138137218Y-129890626D02*
X138089599Y-129938245D01*
X138089599Y-129938245D02*
X137994361Y-129985864D01*
X139613409Y-129652531D02*
X139613409Y-128652531D01*
X139613409Y-129128721D02*
X140184837Y-129128721D01*
X140184837Y-129652531D02*
X140184837Y-128652531D01*
X141089599Y-129652531D02*
X141089599Y-129128721D01*
X141089599Y-129128721D02*
X141041980Y-129033483D01*
X141041980Y-129033483D02*
X140946742Y-128985864D01*
X140946742Y-128985864D02*
X140756266Y-128985864D01*
X140756266Y-128985864D02*
X140661028Y-129033483D01*
X141089599Y-129604912D02*
X140994361Y-129652531D01*
X140994361Y-129652531D02*
X140756266Y-129652531D01*
X140756266Y-129652531D02*
X140661028Y-129604912D01*
X140661028Y-129604912D02*
X140613409Y-129509673D01*
X140613409Y-129509673D02*
X140613409Y-129414435D01*
X140613409Y-129414435D02*
X140661028Y-129319197D01*
X140661028Y-129319197D02*
X140756266Y-129271578D01*
X140756266Y-129271578D02*
X140994361Y-129271578D01*
X140994361Y-129271578D02*
X141089599Y-129223959D01*
X141565790Y-128985864D02*
X141565790Y-129652531D01*
X141565790Y-129081102D02*
X141613409Y-129033483D01*
X141613409Y-129033483D02*
X141708647Y-128985864D01*
X141708647Y-128985864D02*
X141851504Y-128985864D01*
X141851504Y-128985864D02*
X141946742Y-129033483D01*
X141946742Y-129033483D02*
X141994361Y-129128721D01*
X141994361Y-129128721D02*
X141994361Y-129652531D01*
X142899123Y-128985864D02*
X142899123Y-129795388D01*
X142899123Y-129795388D02*
X142851504Y-129890626D01*
X142851504Y-129890626D02*
X142803885Y-129938245D01*
X142803885Y-129938245D02*
X142708647Y-129985864D01*
X142708647Y-129985864D02*
X142565790Y-129985864D01*
X142565790Y-129985864D02*
X142470552Y-129938245D01*
X142899123Y-129604912D02*
X142803885Y-129652531D01*
X142803885Y-129652531D02*
X142613409Y-129652531D01*
X142613409Y-129652531D02*
X142518171Y-129604912D01*
X142518171Y-129604912D02*
X142470552Y-129557292D01*
X142470552Y-129557292D02*
X142422933Y-129462054D01*
X142422933Y-129462054D02*
X142422933Y-129176340D01*
X142422933Y-129176340D02*
X142470552Y-129081102D01*
X142470552Y-129081102D02*
X142518171Y-129033483D01*
X142518171Y-129033483D02*
X142613409Y-128985864D01*
X142613409Y-128985864D02*
X142803885Y-128985864D01*
X142803885Y-128985864D02*
X142899123Y-129033483D01*
X143803885Y-128985864D02*
X143803885Y-129652531D01*
X143375314Y-128985864D02*
X143375314Y-129509673D01*
X143375314Y-129509673D02*
X143422933Y-129604912D01*
X143422933Y-129604912D02*
X143518171Y-129652531D01*
X143518171Y-129652531D02*
X143661028Y-129652531D01*
X143661028Y-129652531D02*
X143756266Y-129604912D01*
X143756266Y-129604912D02*
X143803885Y-129557292D01*
X144422933Y-129652531D02*
X144327695Y-129604912D01*
X144327695Y-129604912D02*
X144280076Y-129509673D01*
X144280076Y-129509673D02*
X144280076Y-128652531D01*
X145375314Y-129557292D02*
X145327695Y-129604912D01*
X145327695Y-129604912D02*
X145184838Y-129652531D01*
X145184838Y-129652531D02*
X145089600Y-129652531D01*
X145089600Y-129652531D02*
X144946743Y-129604912D01*
X144946743Y-129604912D02*
X144851505Y-129509673D01*
X144851505Y-129509673D02*
X144803886Y-129414435D01*
X144803886Y-129414435D02*
X144756267Y-129223959D01*
X144756267Y-129223959D02*
X144756267Y-129081102D01*
X144756267Y-129081102D02*
X144803886Y-128890626D01*
X144803886Y-128890626D02*
X144851505Y-128795388D01*
X144851505Y-128795388D02*
X144946743Y-128700150D01*
X144946743Y-128700150D02*
X145089600Y-128652531D01*
X145089600Y-128652531D02*
X145184838Y-128652531D01*
X145184838Y-128652531D02*
X145327695Y-128700150D01*
X145327695Y-128700150D02*
X145375314Y-128747769D01*
X145946743Y-129652531D02*
X145851505Y-129604912D01*
X145851505Y-129604912D02*
X145803886Y-129509673D01*
X145803886Y-129509673D02*
X145803886Y-128652531D01*
X146470553Y-129652531D02*
X146375315Y-129604912D01*
X146375315Y-129604912D02*
X146327696Y-129557292D01*
X146327696Y-129557292D02*
X146280077Y-129462054D01*
X146280077Y-129462054D02*
X146280077Y-129176340D01*
X146280077Y-129176340D02*
X146327696Y-129081102D01*
X146327696Y-129081102D02*
X146375315Y-129033483D01*
X146375315Y-129033483D02*
X146470553Y-128985864D01*
X146470553Y-128985864D02*
X146613410Y-128985864D01*
X146613410Y-128985864D02*
X146708648Y-129033483D01*
X146708648Y-129033483D02*
X146756267Y-129081102D01*
X146756267Y-129081102D02*
X146803886Y-129176340D01*
X146803886Y-129176340D02*
X146803886Y-129462054D01*
X146803886Y-129462054D02*
X146756267Y-129557292D01*
X146756267Y-129557292D02*
X146708648Y-129604912D01*
X146708648Y-129604912D02*
X146613410Y-129652531D01*
X146613410Y-129652531D02*
X146470553Y-129652531D01*
X147661029Y-129604912D02*
X147565791Y-129652531D01*
X147565791Y-129652531D02*
X147375315Y-129652531D01*
X147375315Y-129652531D02*
X147280077Y-129604912D01*
X147280077Y-129604912D02*
X147232458Y-129557292D01*
X147232458Y-129557292D02*
X147184839Y-129462054D01*
X147184839Y-129462054D02*
X147184839Y-129176340D01*
X147184839Y-129176340D02*
X147232458Y-129081102D01*
X147232458Y-129081102D02*
X147280077Y-129033483D01*
X147280077Y-129033483D02*
X147375315Y-128985864D01*
X147375315Y-128985864D02*
X147565791Y-128985864D01*
X147565791Y-128985864D02*
X147661029Y-129033483D01*
X148089601Y-129652531D02*
X148089601Y-128652531D01*
X148184839Y-129271578D02*
X148470553Y-129652531D01*
X148470553Y-128985864D02*
X148089601Y-129366816D01*
X135137217Y-130738665D02*
X135280074Y-130786284D01*
X135280074Y-130786284D02*
X135327693Y-130833903D01*
X135327693Y-130833903D02*
X135375312Y-130929141D01*
X135375312Y-130929141D02*
X135375312Y-131071998D01*
X135375312Y-131071998D02*
X135327693Y-131167236D01*
X135327693Y-131167236D02*
X135280074Y-131214856D01*
X135280074Y-131214856D02*
X135184836Y-131262475D01*
X135184836Y-131262475D02*
X134803884Y-131262475D01*
X134803884Y-131262475D02*
X134803884Y-130262475D01*
X134803884Y-130262475D02*
X135137217Y-130262475D01*
X135137217Y-130262475D02*
X135232455Y-130310094D01*
X135232455Y-130310094D02*
X135280074Y-130357713D01*
X135280074Y-130357713D02*
X135327693Y-130452951D01*
X135327693Y-130452951D02*
X135327693Y-130548189D01*
X135327693Y-130548189D02*
X135280074Y-130643427D01*
X135280074Y-130643427D02*
X135232455Y-130691046D01*
X135232455Y-130691046D02*
X135137217Y-130738665D01*
X135137217Y-130738665D02*
X134803884Y-130738665D01*
X135708646Y-130595808D02*
X135946741Y-131262475D01*
X136184836Y-130595808D02*
X135946741Y-131262475D01*
X135946741Y-131262475D02*
X135851503Y-131500570D01*
X135851503Y-131500570D02*
X135803884Y-131548189D01*
X135803884Y-131548189D02*
X135708646Y-131595808D01*
X137327694Y-131262475D02*
X137327694Y-130262475D01*
X137327694Y-130738665D02*
X137899122Y-130738665D01*
X137899122Y-131262475D02*
X137899122Y-130262475D01*
X138518170Y-131262475D02*
X138422932Y-131214856D01*
X138422932Y-131214856D02*
X138375313Y-131167236D01*
X138375313Y-131167236D02*
X138327694Y-131071998D01*
X138327694Y-131071998D02*
X138327694Y-130786284D01*
X138327694Y-130786284D02*
X138375313Y-130691046D01*
X138375313Y-130691046D02*
X138422932Y-130643427D01*
X138422932Y-130643427D02*
X138518170Y-130595808D01*
X138518170Y-130595808D02*
X138661027Y-130595808D01*
X138661027Y-130595808D02*
X138756265Y-130643427D01*
X138756265Y-130643427D02*
X138803884Y-130691046D01*
X138803884Y-130691046D02*
X138851503Y-130786284D01*
X138851503Y-130786284D02*
X138851503Y-131071998D01*
X138851503Y-131071998D02*
X138803884Y-131167236D01*
X138803884Y-131167236D02*
X138756265Y-131214856D01*
X138756265Y-131214856D02*
X138661027Y-131262475D01*
X138661027Y-131262475D02*
X138518170Y-131262475D01*
X139280075Y-131262475D02*
X139280075Y-130595808D01*
X139280075Y-130691046D02*
X139327694Y-130643427D01*
X139327694Y-130643427D02*
X139422932Y-130595808D01*
X139422932Y-130595808D02*
X139565789Y-130595808D01*
X139565789Y-130595808D02*
X139661027Y-130643427D01*
X139661027Y-130643427D02*
X139708646Y-130738665D01*
X139708646Y-130738665D02*
X139708646Y-131262475D01*
X139708646Y-130738665D02*
X139756265Y-130643427D01*
X139756265Y-130643427D02*
X139851503Y-130595808D01*
X139851503Y-130595808D02*
X139994360Y-130595808D01*
X139994360Y-130595808D02*
X140089599Y-130643427D01*
X140089599Y-130643427D02*
X140137218Y-130738665D01*
X140137218Y-130738665D02*
X140137218Y-131262475D01*
X140613408Y-131262475D02*
X140613408Y-130595808D01*
X140613408Y-130262475D02*
X140565789Y-130310094D01*
X140565789Y-130310094D02*
X140613408Y-130357713D01*
X140613408Y-130357713D02*
X140661027Y-130310094D01*
X140661027Y-130310094D02*
X140613408Y-130262475D01*
X140613408Y-130262475D02*
X140613408Y-130357713D01*
X141089598Y-130595808D02*
X141089598Y-131262475D01*
X141089598Y-130691046D02*
X141137217Y-130643427D01*
X141137217Y-130643427D02*
X141232455Y-130595808D01*
X141232455Y-130595808D02*
X141375312Y-130595808D01*
X141375312Y-130595808D02*
X141470550Y-130643427D01*
X141470550Y-130643427D02*
X141518169Y-130738665D01*
X141518169Y-130738665D02*
X141518169Y-131262475D01*
X143232455Y-131262475D02*
X142756265Y-131262475D01*
X142756265Y-131262475D02*
X142756265Y-130262475D01*
X143946741Y-131214856D02*
X143851503Y-131262475D01*
X143851503Y-131262475D02*
X143661027Y-131262475D01*
X143661027Y-131262475D02*
X143565789Y-131214856D01*
X143565789Y-131214856D02*
X143518170Y-131119617D01*
X143518170Y-131119617D02*
X143518170Y-130738665D01*
X143518170Y-130738665D02*
X143565789Y-130643427D01*
X143565789Y-130643427D02*
X143661027Y-130595808D01*
X143661027Y-130595808D02*
X143851503Y-130595808D01*
X143851503Y-130595808D02*
X143946741Y-130643427D01*
X143946741Y-130643427D02*
X143994360Y-130738665D01*
X143994360Y-130738665D02*
X143994360Y-130833903D01*
X143994360Y-130833903D02*
X143518170Y-130929141D01*
X144803884Y-131214856D02*
X144708646Y-131262475D01*
X144708646Y-131262475D02*
X144518170Y-131262475D01*
X144518170Y-131262475D02*
X144422932Y-131214856D01*
X144422932Y-131214856D02*
X144375313Y-131119617D01*
X144375313Y-131119617D02*
X144375313Y-130738665D01*
X144375313Y-130738665D02*
X144422932Y-130643427D01*
X144422932Y-130643427D02*
X144518170Y-130595808D01*
X144518170Y-130595808D02*
X144708646Y-130595808D01*
X144708646Y-130595808D02*
X144803884Y-130643427D01*
X144803884Y-130643427D02*
X144851503Y-130738665D01*
X144851503Y-130738665D02*
X144851503Y-130833903D01*
X144851503Y-130833903D02*
X144375313Y-130929141D01*
X135089598Y-131872419D02*
X135089598Y-132586704D01*
X135089598Y-132586704D02*
X135041979Y-132729561D01*
X135041979Y-132729561D02*
X134946741Y-132824800D01*
X134946741Y-132824800D02*
X134803884Y-132872419D01*
X134803884Y-132872419D02*
X134708646Y-132872419D01*
X135994360Y-132872419D02*
X135994360Y-132348609D01*
X135994360Y-132348609D02*
X135946741Y-132253371D01*
X135946741Y-132253371D02*
X135851503Y-132205752D01*
X135851503Y-132205752D02*
X135661027Y-132205752D01*
X135661027Y-132205752D02*
X135565789Y-132253371D01*
X135994360Y-132824800D02*
X135899122Y-132872419D01*
X135899122Y-132872419D02*
X135661027Y-132872419D01*
X135661027Y-132872419D02*
X135565789Y-132824800D01*
X135565789Y-132824800D02*
X135518170Y-132729561D01*
X135518170Y-132729561D02*
X135518170Y-132634323D01*
X135518170Y-132634323D02*
X135565789Y-132539085D01*
X135565789Y-132539085D02*
X135661027Y-132491466D01*
X135661027Y-132491466D02*
X135899122Y-132491466D01*
X135899122Y-132491466D02*
X135994360Y-132443847D01*
X136470551Y-132205752D02*
X136470551Y-132872419D01*
X136470551Y-132300990D02*
X136518170Y-132253371D01*
X136518170Y-132253371D02*
X136613408Y-132205752D01*
X136613408Y-132205752D02*
X136756265Y-132205752D01*
X136756265Y-132205752D02*
X136851503Y-132253371D01*
X136851503Y-132253371D02*
X136899122Y-132348609D01*
X136899122Y-132348609D02*
X136899122Y-132872419D01*
X138089599Y-131967657D02*
X138137218Y-131920038D01*
X138137218Y-131920038D02*
X138232456Y-131872419D01*
X138232456Y-131872419D02*
X138470551Y-131872419D01*
X138470551Y-131872419D02*
X138565789Y-131920038D01*
X138565789Y-131920038D02*
X138613408Y-131967657D01*
X138613408Y-131967657D02*
X138661027Y-132062895D01*
X138661027Y-132062895D02*
X138661027Y-132158133D01*
X138661027Y-132158133D02*
X138613408Y-132300990D01*
X138613408Y-132300990D02*
X138041980Y-132872419D01*
X138041980Y-132872419D02*
X138661027Y-132872419D01*
X139280075Y-131872419D02*
X139375313Y-131872419D01*
X139375313Y-131872419D02*
X139470551Y-131920038D01*
X139470551Y-131920038D02*
X139518170Y-131967657D01*
X139518170Y-131967657D02*
X139565789Y-132062895D01*
X139565789Y-132062895D02*
X139613408Y-132253371D01*
X139613408Y-132253371D02*
X139613408Y-132491466D01*
X139613408Y-132491466D02*
X139565789Y-132681942D01*
X139565789Y-132681942D02*
X139518170Y-132777180D01*
X139518170Y-132777180D02*
X139470551Y-132824800D01*
X139470551Y-132824800D02*
X139375313Y-132872419D01*
X139375313Y-132872419D02*
X139280075Y-132872419D01*
X139280075Y-132872419D02*
X139184837Y-132824800D01*
X139184837Y-132824800D02*
X139137218Y-132777180D01*
X139137218Y-132777180D02*
X139089599Y-132681942D01*
X139089599Y-132681942D02*
X139041980Y-132491466D01*
X139041980Y-132491466D02*
X139041980Y-132253371D01*
X139041980Y-132253371D02*
X139089599Y-132062895D01*
X139089599Y-132062895D02*
X139137218Y-131967657D01*
X139137218Y-131967657D02*
X139184837Y-131920038D01*
X139184837Y-131920038D02*
X139280075Y-131872419D01*
X139994361Y-131967657D02*
X140041980Y-131920038D01*
X140041980Y-131920038D02*
X140137218Y-131872419D01*
X140137218Y-131872419D02*
X140375313Y-131872419D01*
X140375313Y-131872419D02*
X140470551Y-131920038D01*
X140470551Y-131920038D02*
X140518170Y-131967657D01*
X140518170Y-131967657D02*
X140565789Y-132062895D01*
X140565789Y-132062895D02*
X140565789Y-132158133D01*
X140565789Y-132158133D02*
X140518170Y-132300990D01*
X140518170Y-132300990D02*
X139946742Y-132872419D01*
X139946742Y-132872419D02*
X140565789Y-132872419D01*
X141470551Y-131872419D02*
X140994361Y-131872419D01*
X140994361Y-131872419D02*
X140946742Y-132348609D01*
X140946742Y-132348609D02*
X140994361Y-132300990D01*
X140994361Y-132300990D02*
X141089599Y-132253371D01*
X141089599Y-132253371D02*
X141327694Y-132253371D01*
X141327694Y-132253371D02*
X141422932Y-132300990D01*
X141422932Y-132300990D02*
X141470551Y-132348609D01*
X141470551Y-132348609D02*
X141518170Y-132443847D01*
X141518170Y-132443847D02*
X141518170Y-132681942D01*
X141518170Y-132681942D02*
X141470551Y-132777180D01*
X141470551Y-132777180D02*
X141422932Y-132824800D01*
X141422932Y-132824800D02*
X141327694Y-132872419D01*
X141327694Y-132872419D02*
X141089599Y-132872419D01*
X141089599Y-132872419D02*
X140994361Y-132824800D01*
X140994361Y-132824800D02*
X140946742Y-132777180D01*
X116508884Y-119887419D02*
X116508884Y-118887419D01*
X116508884Y-118887419D02*
X116889836Y-118887419D01*
X116889836Y-118887419D02*
X116985074Y-118935038D01*
X116985074Y-118935038D02*
X117032693Y-118982657D01*
X117032693Y-118982657D02*
X117080312Y-119077895D01*
X117080312Y-119077895D02*
X117080312Y-119220752D01*
X117080312Y-119220752D02*
X117032693Y-119315990D01*
X117032693Y-119315990D02*
X116985074Y-119363609D01*
X116985074Y-119363609D02*
X116889836Y-119411228D01*
X116889836Y-119411228D02*
X116508884Y-119411228D01*
X117651741Y-119315990D02*
X117556503Y-119268371D01*
X117556503Y-119268371D02*
X117508884Y-119220752D01*
X117508884Y-119220752D02*
X117461265Y-119125514D01*
X117461265Y-119125514D02*
X117461265Y-119077895D01*
X117461265Y-119077895D02*
X117508884Y-118982657D01*
X117508884Y-118982657D02*
X117556503Y-118935038D01*
X117556503Y-118935038D02*
X117651741Y-118887419D01*
X117651741Y-118887419D02*
X117842217Y-118887419D01*
X117842217Y-118887419D02*
X117937455Y-118935038D01*
X117937455Y-118935038D02*
X117985074Y-118982657D01*
X117985074Y-118982657D02*
X118032693Y-119077895D01*
X118032693Y-119077895D02*
X118032693Y-119125514D01*
X118032693Y-119125514D02*
X117985074Y-119220752D01*
X117985074Y-119220752D02*
X117937455Y-119268371D01*
X117937455Y-119268371D02*
X117842217Y-119315990D01*
X117842217Y-119315990D02*
X117651741Y-119315990D01*
X117651741Y-119315990D02*
X117556503Y-119363609D01*
X117556503Y-119363609D02*
X117508884Y-119411228D01*
X117508884Y-119411228D02*
X117461265Y-119506466D01*
X117461265Y-119506466D02*
X117461265Y-119696942D01*
X117461265Y-119696942D02*
X117508884Y-119792180D01*
X117508884Y-119792180D02*
X117556503Y-119839800D01*
X117556503Y-119839800D02*
X117651741Y-119887419D01*
X117651741Y-119887419D02*
X117842217Y-119887419D01*
X117842217Y-119887419D02*
X117937455Y-119839800D01*
X117937455Y-119839800D02*
X117985074Y-119792180D01*
X117985074Y-119792180D02*
X118032693Y-119696942D01*
X118032693Y-119696942D02*
X118032693Y-119506466D01*
X118032693Y-119506466D02*
X117985074Y-119411228D01*
X117985074Y-119411228D02*
X117937455Y-119363609D01*
X117937455Y-119363609D02*
X117842217Y-119315990D01*
X118413646Y-119839800D02*
X118556503Y-119887419D01*
X118556503Y-119887419D02*
X118794598Y-119887419D01*
X118794598Y-119887419D02*
X118889836Y-119839800D01*
X118889836Y-119839800D02*
X118937455Y-119792180D01*
X118937455Y-119792180D02*
X118985074Y-119696942D01*
X118985074Y-119696942D02*
X118985074Y-119601704D01*
X118985074Y-119601704D02*
X118937455Y-119506466D01*
X118937455Y-119506466D02*
X118889836Y-119458847D01*
X118889836Y-119458847D02*
X118794598Y-119411228D01*
X118794598Y-119411228D02*
X118604122Y-119363609D01*
X118604122Y-119363609D02*
X118508884Y-119315990D01*
X118508884Y-119315990D02*
X118461265Y-119268371D01*
X118461265Y-119268371D02*
X118413646Y-119173133D01*
X118413646Y-119173133D02*
X118413646Y-119077895D01*
X118413646Y-119077895D02*
X118461265Y-118982657D01*
X118461265Y-118982657D02*
X118508884Y-118935038D01*
X118508884Y-118935038D02*
X118604122Y-118887419D01*
X118604122Y-118887419D02*
X118842217Y-118887419D01*
X118842217Y-118887419D02*
X118985074Y-118935038D01*
X119413646Y-119887419D02*
X119413646Y-118887419D01*
X119413646Y-118887419D02*
X119651741Y-118887419D01*
X119651741Y-118887419D02*
X119794598Y-118935038D01*
X119794598Y-118935038D02*
X119889836Y-119030276D01*
X119889836Y-119030276D02*
X119937455Y-119125514D01*
X119937455Y-119125514D02*
X119985074Y-119315990D01*
X119985074Y-119315990D02*
X119985074Y-119458847D01*
X119985074Y-119458847D02*
X119937455Y-119649323D01*
X119937455Y-119649323D02*
X119889836Y-119744561D01*
X119889836Y-119744561D02*
X119794598Y-119839800D01*
X119794598Y-119839800D02*
X119651741Y-119887419D01*
X119651741Y-119887419D02*
X119413646Y-119887419D01*
X120366027Y-119601704D02*
X120842217Y-119601704D01*
X120270789Y-119887419D02*
X120604122Y-118887419D01*
X120604122Y-118887419D02*
X120937455Y-119887419D01*
X116413646Y-123967419D02*
X117032693Y-123967419D01*
X117032693Y-123967419D02*
X116699360Y-124348371D01*
X116699360Y-124348371D02*
X116842217Y-124348371D01*
X116842217Y-124348371D02*
X116937455Y-124395990D01*
X116937455Y-124395990D02*
X116985074Y-124443609D01*
X116985074Y-124443609D02*
X117032693Y-124538847D01*
X117032693Y-124538847D02*
X117032693Y-124776942D01*
X117032693Y-124776942D02*
X116985074Y-124872180D01*
X116985074Y-124872180D02*
X116937455Y-124919800D01*
X116937455Y-124919800D02*
X116842217Y-124967419D01*
X116842217Y-124967419D02*
X116556503Y-124967419D01*
X116556503Y-124967419D02*
X116461265Y-124919800D01*
X116461265Y-124919800D02*
X116413646Y-124872180D01*
X117318408Y-123967419D02*
X117651741Y-124967419D01*
X117651741Y-124967419D02*
X117985074Y-123967419D01*
X118223170Y-123967419D02*
X118842217Y-123967419D01*
X118842217Y-123967419D02*
X118508884Y-124348371D01*
X118508884Y-124348371D02*
X118651741Y-124348371D01*
X118651741Y-124348371D02*
X118746979Y-124395990D01*
X118746979Y-124395990D02*
X118794598Y-124443609D01*
X118794598Y-124443609D02*
X118842217Y-124538847D01*
X118842217Y-124538847D02*
X118842217Y-124776942D01*
X118842217Y-124776942D02*
X118794598Y-124872180D01*
X118794598Y-124872180D02*
X118746979Y-124919800D01*
X118746979Y-124919800D02*
X118651741Y-124967419D01*
X118651741Y-124967419D02*
X118366027Y-124967419D01*
X118366027Y-124967419D02*
X118270789Y-124919800D01*
X118270789Y-124919800D02*
X118223170Y-124872180D01*
D11*
X121781666Y-124919819D02*
X121781666Y-125634104D01*
X121781666Y-125634104D02*
X121734047Y-125776961D01*
X121734047Y-125776961D02*
X121638809Y-125872200D01*
X121638809Y-125872200D02*
X121495952Y-125919819D01*
X121495952Y-125919819D02*
X121400714Y-125919819D01*
X122781666Y-125919819D02*
X122210238Y-125919819D01*
X122495952Y-125919819D02*
X122495952Y-124919819D01*
X122495952Y-124919819D02*
X122400714Y-125062676D01*
X122400714Y-125062676D02*
X122305476Y-125157914D01*
X122305476Y-125157914D02*
X122210238Y-125205533D01*
X141904761Y-113399819D02*
X141571428Y-112923628D01*
X141333333Y-113399819D02*
X141333333Y-112399819D01*
X141333333Y-112399819D02*
X141714285Y-112399819D01*
X141714285Y-112399819D02*
X141809523Y-112447438D01*
X141809523Y-112447438D02*
X141857142Y-112495057D01*
X141857142Y-112495057D02*
X141904761Y-112590295D01*
X141904761Y-112590295D02*
X141904761Y-112733152D01*
X141904761Y-112733152D02*
X141857142Y-112828390D01*
X141857142Y-112828390D02*
X141809523Y-112876009D01*
X141809523Y-112876009D02*
X141714285Y-112923628D01*
X141714285Y-112923628D02*
X141333333Y-112923628D01*
X142190476Y-112399819D02*
X142523809Y-113399819D01*
X142523809Y-113399819D02*
X142857142Y-112399819D01*
X143714285Y-113399819D02*
X143142857Y-113399819D01*
X143428571Y-113399819D02*
X143428571Y-112399819D01*
X143428571Y-112399819D02*
X143333333Y-112542676D01*
X143333333Y-112542676D02*
X143238095Y-112637914D01*
X143238095Y-112637914D02*
X143142857Y-112685533D01*
X131761905Y-94494819D02*
X131761905Y-93494819D01*
X131761905Y-93494819D02*
X132000000Y-93494819D01*
X132000000Y-93494819D02*
X132142857Y-93542438D01*
X132142857Y-93542438D02*
X132238095Y-93637676D01*
X132238095Y-93637676D02*
X132285714Y-93732914D01*
X132285714Y-93732914D02*
X132333333Y-93923390D01*
X132333333Y-93923390D02*
X132333333Y-94066247D01*
X132333333Y-94066247D02*
X132285714Y-94256723D01*
X132285714Y-94256723D02*
X132238095Y-94351961D01*
X132238095Y-94351961D02*
X132142857Y-94447200D01*
X132142857Y-94447200D02*
X132000000Y-94494819D01*
X132000000Y-94494819D02*
X131761905Y-94494819D01*
X133285714Y-94494819D02*
X132714286Y-94494819D01*
X133000000Y-94494819D02*
X133000000Y-93494819D01*
X133000000Y-93494819D02*
X132904762Y-93637676D01*
X132904762Y-93637676D02*
X132809524Y-93732914D01*
X132809524Y-93732914D02*
X132714286Y-93780533D01*
X118738095Y-127254819D02*
X118738095Y-126254819D01*
X118738095Y-126731009D02*
X119309523Y-126731009D01*
X119309523Y-127254819D02*
X119309523Y-126254819D01*
X120214285Y-126588152D02*
X120214285Y-127254819D01*
X119976190Y-126207200D02*
X119738095Y-126921485D01*
X119738095Y-126921485D02*
X120357142Y-126921485D01*
X159499819Y-128843333D02*
X160214104Y-128843333D01*
X160214104Y-128843333D02*
X160356961Y-128890952D01*
X160356961Y-128890952D02*
X160452200Y-128986190D01*
X160452200Y-128986190D02*
X160499819Y-129129047D01*
X160499819Y-129129047D02*
X160499819Y-129224285D01*
X159499819Y-128462380D02*
X159499819Y-127843333D01*
X159499819Y-127843333D02*
X159880771Y-128176666D01*
X159880771Y-128176666D02*
X159880771Y-128033809D01*
X159880771Y-128033809D02*
X159928390Y-127938571D01*
X159928390Y-127938571D02*
X159976009Y-127890952D01*
X159976009Y-127890952D02*
X160071247Y-127843333D01*
X160071247Y-127843333D02*
X160309342Y-127843333D01*
X160309342Y-127843333D02*
X160404580Y-127890952D01*
X160404580Y-127890952D02*
X160452200Y-127938571D01*
X160452200Y-127938571D02*
X160499819Y-128033809D01*
X160499819Y-128033809D02*
X160499819Y-128319523D01*
X160499819Y-128319523D02*
X160452200Y-128414761D01*
X160452200Y-128414761D02*
X160404580Y-128462380D01*
X165238095Y-89454819D02*
X165238095Y-88454819D01*
X165238095Y-88931009D02*
X165809523Y-88931009D01*
X165809523Y-89454819D02*
X165809523Y-88454819D01*
X166238095Y-88550057D02*
X166285714Y-88502438D01*
X166285714Y-88502438D02*
X166380952Y-88454819D01*
X166380952Y-88454819D02*
X166619047Y-88454819D01*
X166619047Y-88454819D02*
X166714285Y-88502438D01*
X166714285Y-88502438D02*
X166761904Y-88550057D01*
X166761904Y-88550057D02*
X166809523Y-88645295D01*
X166809523Y-88645295D02*
X166809523Y-88740533D01*
X166809523Y-88740533D02*
X166761904Y-88883390D01*
X166761904Y-88883390D02*
X166190476Y-89454819D01*
X166190476Y-89454819D02*
X166809523Y-89454819D01*
D10*
X148690476Y-92029419D02*
X148690476Y-91029419D01*
X148690476Y-91029419D02*
X149023809Y-91743704D01*
X149023809Y-91743704D02*
X149357142Y-91029419D01*
X149357142Y-91029419D02*
X149357142Y-92029419D01*
X150357142Y-92029419D02*
X149785714Y-92029419D01*
X150071428Y-92029419D02*
X150071428Y-91029419D01*
X150071428Y-91029419D02*
X149976190Y-91172276D01*
X149976190Y-91172276D02*
X149880952Y-91267514D01*
X149880952Y-91267514D02*
X149785714Y-91315133D01*
D11*
X121781666Y-108264819D02*
X121781666Y-108979104D01*
X121781666Y-108979104D02*
X121734047Y-109121961D01*
X121734047Y-109121961D02*
X121638809Y-109217200D01*
X121638809Y-109217200D02*
X121495952Y-109264819D01*
X121495952Y-109264819D02*
X121400714Y-109264819D01*
X122210238Y-108360057D02*
X122257857Y-108312438D01*
X122257857Y-108312438D02*
X122353095Y-108264819D01*
X122353095Y-108264819D02*
X122591190Y-108264819D01*
X122591190Y-108264819D02*
X122686428Y-108312438D01*
X122686428Y-108312438D02*
X122734047Y-108360057D01*
X122734047Y-108360057D02*
X122781666Y-108455295D01*
X122781666Y-108455295D02*
X122781666Y-108550533D01*
X122781666Y-108550533D02*
X122734047Y-108693390D01*
X122734047Y-108693390D02*
X122162619Y-109264819D01*
X122162619Y-109264819D02*
X122781666Y-109264819D01*
X131034819Y-105476666D02*
X130558628Y-105809999D01*
X131034819Y-106048094D02*
X130034819Y-106048094D01*
X130034819Y-106048094D02*
X130034819Y-105667142D01*
X130034819Y-105667142D02*
X130082438Y-105571904D01*
X130082438Y-105571904D02*
X130130057Y-105524285D01*
X130130057Y-105524285D02*
X130225295Y-105476666D01*
X130225295Y-105476666D02*
X130368152Y-105476666D01*
X130368152Y-105476666D02*
X130463390Y-105524285D01*
X130463390Y-105524285D02*
X130511009Y-105571904D01*
X130511009Y-105571904D02*
X130558628Y-105667142D01*
X130558628Y-105667142D02*
X130558628Y-106048094D01*
X131034819Y-104524285D02*
X131034819Y-105095713D01*
X131034819Y-104809999D02*
X130034819Y-104809999D01*
X130034819Y-104809999D02*
X130177676Y-104905237D01*
X130177676Y-104905237D02*
X130272914Y-105000475D01*
X130272914Y-105000475D02*
X130320533Y-105095713D01*
X165238095Y-127254819D02*
X165238095Y-126254819D01*
X165238095Y-126731009D02*
X165809523Y-126731009D01*
X165809523Y-127254819D02*
X165809523Y-126254819D01*
X166809523Y-127254819D02*
X166238095Y-127254819D01*
X166523809Y-127254819D02*
X166523809Y-126254819D01*
X166523809Y-126254819D02*
X166428571Y-126397676D01*
X166428571Y-126397676D02*
X166333333Y-126492914D01*
X166333333Y-126492914D02*
X166238095Y-126540533D01*
X156305933Y-121609580D02*
X156258314Y-121657200D01*
X156258314Y-121657200D02*
X156115457Y-121704819D01*
X156115457Y-121704819D02*
X156020219Y-121704819D01*
X156020219Y-121704819D02*
X155877362Y-121657200D01*
X155877362Y-121657200D02*
X155782124Y-121561961D01*
X155782124Y-121561961D02*
X155734505Y-121466723D01*
X155734505Y-121466723D02*
X155686886Y-121276247D01*
X155686886Y-121276247D02*
X155686886Y-121133390D01*
X155686886Y-121133390D02*
X155734505Y-120942914D01*
X155734505Y-120942914D02*
X155782124Y-120847676D01*
X155782124Y-120847676D02*
X155877362Y-120752438D01*
X155877362Y-120752438D02*
X156020219Y-120704819D01*
X156020219Y-120704819D02*
X156115457Y-120704819D01*
X156115457Y-120704819D02*
X156258314Y-120752438D01*
X156258314Y-120752438D02*
X156305933Y-120800057D01*
X157258314Y-121704819D02*
X156686886Y-121704819D01*
X156972600Y-121704819D02*
X156972600Y-120704819D01*
X156972600Y-120704819D02*
X156877362Y-120847676D01*
X156877362Y-120847676D02*
X156782124Y-120942914D01*
X156782124Y-120942914D02*
X156686886Y-120990533D01*
X118738095Y-89354819D02*
X118738095Y-88354819D01*
X118738095Y-88831009D02*
X119309523Y-88831009D01*
X119309523Y-89354819D02*
X119309523Y-88354819D01*
X119690476Y-88354819D02*
X120309523Y-88354819D01*
X120309523Y-88354819D02*
X119976190Y-88735771D01*
X119976190Y-88735771D02*
X120119047Y-88735771D01*
X120119047Y-88735771D02*
X120214285Y-88783390D01*
X120214285Y-88783390D02*
X120261904Y-88831009D01*
X120261904Y-88831009D02*
X120309523Y-88926247D01*
X120309523Y-88926247D02*
X120309523Y-89164342D01*
X120309523Y-89164342D02*
X120261904Y-89259580D01*
X120261904Y-89259580D02*
X120214285Y-89307200D01*
X120214285Y-89307200D02*
X120119047Y-89354819D01*
X120119047Y-89354819D02*
X119833333Y-89354819D01*
X119833333Y-89354819D02*
X119738095Y-89307200D01*
X119738095Y-89307200D02*
X119690476Y-89259580D01*
X160407200Y-110583332D02*
X160454819Y-110440475D01*
X160454819Y-110440475D02*
X160454819Y-110202380D01*
X160454819Y-110202380D02*
X160407200Y-110107142D01*
X160407200Y-110107142D02*
X160359580Y-110059523D01*
X160359580Y-110059523D02*
X160264342Y-110011904D01*
X160264342Y-110011904D02*
X160169104Y-110011904D01*
X160169104Y-110011904D02*
X160073866Y-110059523D01*
X160073866Y-110059523D02*
X160026247Y-110107142D01*
X160026247Y-110107142D02*
X159978628Y-110202380D01*
X159978628Y-110202380D02*
X159931009Y-110392856D01*
X159931009Y-110392856D02*
X159883390Y-110488094D01*
X159883390Y-110488094D02*
X159835771Y-110535713D01*
X159835771Y-110535713D02*
X159740533Y-110583332D01*
X159740533Y-110583332D02*
X159645295Y-110583332D01*
X159645295Y-110583332D02*
X159550057Y-110535713D01*
X159550057Y-110535713D02*
X159502438Y-110488094D01*
X159502438Y-110488094D02*
X159454819Y-110392856D01*
X159454819Y-110392856D02*
X159454819Y-110154761D01*
X159454819Y-110154761D02*
X159502438Y-110011904D01*
X159454819Y-109678570D02*
X160454819Y-109440475D01*
X160454819Y-109440475D02*
X159740533Y-109249999D01*
X159740533Y-109249999D02*
X160454819Y-109059523D01*
X160454819Y-109059523D02*
X159454819Y-108821428D01*
X160454819Y-107916666D02*
X160454819Y-108488094D01*
X160454819Y-108202380D02*
X159454819Y-108202380D01*
X159454819Y-108202380D02*
X159597676Y-108297618D01*
X159597676Y-108297618D02*
X159692914Y-108392856D01*
X159692914Y-108392856D02*
X159740533Y-108488094D01*
D12*
%TO.C,J1*%
X116400000Y-112655000D02*
X122400000Y-112655000D01*
X116400000Y-113415000D02*
X116400000Y-112655000D01*
X116400000Y-115195000D02*
X122400000Y-115195000D01*
X116400000Y-115955000D02*
X116400000Y-115195000D01*
X116400000Y-117735000D02*
X122400000Y-117735000D01*
X116400000Y-118495000D02*
X116400000Y-117735000D01*
X116400000Y-120275000D02*
X122400000Y-120275000D01*
X116400000Y-121035000D02*
X116400000Y-120275000D01*
X116400000Y-122815000D02*
X122400000Y-122815000D01*
X116400000Y-123575000D02*
X116400000Y-122815000D01*
X122400000Y-111705000D02*
X122400000Y-124525000D01*
X122400000Y-113415000D02*
X116400000Y-113415000D01*
X122400000Y-115955000D02*
X116400000Y-115955000D01*
X122400000Y-118495000D02*
X116400000Y-118495000D01*
X122400000Y-121035000D02*
X116400000Y-121035000D01*
X122400000Y-122915000D02*
X116400000Y-122915000D01*
X122400000Y-123035000D02*
X116400000Y-123035000D01*
X122400000Y-123155000D02*
X116400000Y-123155000D01*
X122400000Y-123275000D02*
X116400000Y-123275000D01*
X122400000Y-123395000D02*
X116400000Y-123395000D01*
X122400000Y-123515000D02*
X116400000Y-123515000D01*
X122400000Y-123575000D02*
X116400000Y-123575000D01*
X122400000Y-124525000D02*
X125060000Y-124525000D01*
X125060000Y-111705000D02*
X122400000Y-111705000D01*
X125060000Y-114305000D02*
X122400000Y-114305000D01*
X125060000Y-116845000D02*
X122400000Y-116845000D01*
X125060000Y-119385000D02*
X122400000Y-119385000D01*
X125060000Y-121925000D02*
X122400000Y-121925000D01*
X125060000Y-124525000D02*
X125060000Y-111705000D01*
X125390000Y-122815000D02*
X125060000Y-122815000D01*
X125390000Y-123575000D02*
X125060000Y-123575000D01*
X125457071Y-112655000D02*
X125060000Y-112655000D01*
X125457071Y-113415000D02*
X125060000Y-113415000D01*
X125457071Y-115195000D02*
X125060000Y-115195000D01*
X125457071Y-115955000D02*
X125060000Y-115955000D01*
X125457071Y-117735000D02*
X125060000Y-117735000D01*
X125457071Y-118495000D02*
X125060000Y-118495000D01*
X125457071Y-120275000D02*
X125060000Y-120275000D01*
X125457071Y-121035000D02*
X125060000Y-121035000D01*
X127770000Y-123195000D02*
X127770000Y-124465000D01*
X127770000Y-124465000D02*
X126500000Y-124465000D01*
%TO.C,RV1*%
X137380000Y-114074000D02*
X137380000Y-115169000D01*
X137380000Y-114074000D02*
X147620000Y-114074000D01*
X137380000Y-118021000D02*
X137380000Y-120170000D01*
X137380000Y-123020000D02*
X137380000Y-124115000D01*
X137380000Y-124115000D02*
X147620000Y-124115000D01*
X147620000Y-114074000D02*
X147620000Y-117670000D01*
X147620000Y-120520000D02*
X147620000Y-124115000D01*
%TO.C,D1*%
X130940000Y-95764000D02*
X130940000Y-95920000D01*
X130940000Y-98080000D02*
X130940000Y-98236000D01*
X130940000Y-95764484D02*
G75*
G02*
X134171397Y-95919939I1560000J-1235516D01*
G01*
X131459039Y-95920000D02*
G75*
G02*
X133540910Y-95919951I1040961J-1080000D01*
G01*
X133540910Y-98080049D02*
G75*
G02*
X131459039Y-98080000I-1040910J1080049D01*
G01*
X134171397Y-98080061D02*
G75*
G02*
X130940000Y-98235516I-1671397J1080061D01*
G01*
%TO.C,J3*%
X153905000Y-125565000D02*
X153905000Y-128225000D01*
X153905000Y-128225000D02*
X159105000Y-128225000D01*
X154855000Y-125167929D02*
X154855000Y-125565000D01*
X154855000Y-134225000D02*
X154855000Y-128225000D01*
X155615000Y-125167929D02*
X155615000Y-125565000D01*
X155615000Y-128225000D02*
X155615000Y-134225000D01*
X155615000Y-134225000D02*
X154855000Y-134225000D01*
X156505000Y-125565000D02*
X156505000Y-128225000D01*
X157395000Y-125235000D02*
X157395000Y-125565000D01*
X157395000Y-134225000D02*
X157395000Y-128225000D01*
X157495000Y-128225000D02*
X157495000Y-134225000D01*
X157615000Y-128225000D02*
X157615000Y-134225000D01*
X157735000Y-128225000D02*
X157735000Y-134225000D01*
X157775000Y-122855000D02*
X159045000Y-122855000D01*
X157855000Y-128225000D02*
X157855000Y-134225000D01*
X157975000Y-128225000D02*
X157975000Y-134225000D01*
X158095000Y-128225000D02*
X158095000Y-134225000D01*
X158155000Y-125235000D02*
X158155000Y-125565000D01*
X158155000Y-128225000D02*
X158155000Y-134225000D01*
X158155000Y-134225000D02*
X157395000Y-134225000D01*
X159045000Y-122855000D02*
X159045000Y-124125000D01*
X159105000Y-125565000D02*
X153905000Y-125565000D01*
X159105000Y-128225000D02*
X159105000Y-125565000D01*
D10*
%TO.C,M1*%
X139340000Y-103256000D02*
X140610000Y-103256000D01*
X140610000Y-103256000D02*
X140610000Y-104526000D01*
X158390000Y-103256000D02*
X158390000Y-104526000D01*
X159660000Y-103256000D02*
X158390000Y-103256000D01*
D12*
%TO.C,J2*%
X116400000Y-93460000D02*
X122400000Y-93460000D01*
X116400000Y-94220000D02*
X116400000Y-93460000D01*
X116400000Y-96000000D02*
X122400000Y-96000000D01*
X116400000Y-96760000D02*
X116400000Y-96000000D01*
X116400000Y-98540000D02*
X122400000Y-98540000D01*
X116400000Y-99300000D02*
X116400000Y-98540000D01*
X116400000Y-101080000D02*
X122400000Y-101080000D01*
X116400000Y-101840000D02*
X116400000Y-101080000D01*
X116400000Y-103620000D02*
X122400000Y-103620000D01*
X116400000Y-104380000D02*
X116400000Y-103620000D01*
X116400000Y-106160000D02*
X122400000Y-106160000D01*
X116400000Y-106920000D02*
X116400000Y-106160000D01*
X122400000Y-92510000D02*
X122400000Y-107870000D01*
X122400000Y-94220000D02*
X116400000Y-94220000D01*
X122400000Y-96760000D02*
X116400000Y-96760000D01*
X122400000Y-99300000D02*
X116400000Y-99300000D01*
X122400000Y-101840000D02*
X116400000Y-101840000D01*
X122400000Y-104380000D02*
X116400000Y-104380000D01*
X122400000Y-106260000D02*
X116400000Y-106260000D01*
X122400000Y-106380000D02*
X116400000Y-106380000D01*
X122400000Y-106500000D02*
X116400000Y-106500000D01*
X122400000Y-106620000D02*
X116400000Y-106620000D01*
X122400000Y-106740000D02*
X116400000Y-106740000D01*
X122400000Y-106860000D02*
X116400000Y-106860000D01*
X122400000Y-106920000D02*
X116400000Y-106920000D01*
X122400000Y-107870000D02*
X125060000Y-107870000D01*
X125060000Y-92510000D02*
X122400000Y-92510000D01*
X125060000Y-95110000D02*
X122400000Y-95110000D01*
X125060000Y-97650000D02*
X122400000Y-97650000D01*
X125060000Y-100190000D02*
X122400000Y-100190000D01*
X125060000Y-102730000D02*
X122400000Y-102730000D01*
X125060000Y-105270000D02*
X122400000Y-105270000D01*
X125060000Y-107870000D02*
X125060000Y-92510000D01*
X125390000Y-106160000D02*
X125060000Y-106160000D01*
X125390000Y-106920000D02*
X125060000Y-106920000D01*
X125457071Y-93460000D02*
X125060000Y-93460000D01*
X125457071Y-94220000D02*
X125060000Y-94220000D01*
X125457071Y-96000000D02*
X125060000Y-96000000D01*
X125457071Y-96760000D02*
X125060000Y-96760000D01*
X125457071Y-98540000D02*
X125060000Y-98540000D01*
X125457071Y-99300000D02*
X125060000Y-99300000D01*
X125457071Y-101080000D02*
X125060000Y-101080000D01*
X125457071Y-101840000D02*
X125060000Y-101840000D01*
X125457071Y-103620000D02*
X125060000Y-103620000D01*
X125457071Y-104380000D02*
X125060000Y-104380000D01*
X127770000Y-106540000D02*
X127770000Y-107810000D01*
X127770000Y-107810000D02*
X126500000Y-107810000D01*
%TO.C,R1*%
X131580000Y-103390000D02*
X131580000Y-107230000D01*
X131580000Y-107230000D02*
X133420000Y-107230000D01*
X132500000Y-102440000D02*
X132500000Y-103390000D01*
X132500000Y-108180000D02*
X132500000Y-107230000D01*
X133420000Y-103390000D02*
X131580000Y-103390000D01*
X133420000Y-107230000D02*
X133420000Y-103390000D01*
%TO.C,C1*%
X154391600Y-118370000D02*
X154391600Y-117630000D01*
X154431600Y-118537000D02*
X154431600Y-117463000D01*
X154471600Y-118664000D02*
X154471600Y-117336000D01*
X154511600Y-118768000D02*
X154511600Y-117232000D01*
X154551600Y-118859000D02*
X154551600Y-117141000D01*
X154591600Y-118940000D02*
X154591600Y-117060000D01*
X154631600Y-119013000D02*
X154631600Y-116987000D01*
X154671600Y-117160000D02*
X154671600Y-116920000D01*
X154671600Y-119080000D02*
X154671600Y-118840000D01*
X154711600Y-117160000D02*
X154711600Y-116858000D01*
X154711600Y-119142000D02*
X154711600Y-118840000D01*
X154751600Y-117160000D02*
X154751600Y-116800000D01*
X154751600Y-119200000D02*
X154751600Y-118840000D01*
X154791600Y-117160000D02*
X154791600Y-116746000D01*
X154791600Y-119254000D02*
X154791600Y-118840000D01*
X154831600Y-117160000D02*
X154831600Y-116696000D01*
X154831600Y-119304000D02*
X154831600Y-118840000D01*
X154871600Y-117160000D02*
X154871600Y-116649000D01*
X154871600Y-119351000D02*
X154871600Y-118840000D01*
X154911600Y-117160000D02*
X154911600Y-116604000D01*
X154911600Y-119396000D02*
X154911600Y-118840000D01*
X154951600Y-117160000D02*
X154951600Y-116562000D01*
X154951600Y-119438000D02*
X154951600Y-118840000D01*
X154991600Y-117160000D02*
X154991600Y-116522000D01*
X154991600Y-119478000D02*
X154991600Y-118840000D01*
X155031600Y-117160000D02*
X155031600Y-116484000D01*
X155031600Y-119516000D02*
X155031600Y-118840000D01*
X155071600Y-117160000D02*
X155071600Y-116448000D01*
X155071600Y-119552000D02*
X155071600Y-118840000D01*
X155111600Y-117160000D02*
X155111600Y-116413000D01*
X155111600Y-119587000D02*
X155111600Y-118840000D01*
X155151600Y-117160000D02*
X155151600Y-116381000D01*
X155151600Y-119619000D02*
X155151600Y-118840000D01*
X155191600Y-117160000D02*
X155191600Y-116350000D01*
X155191600Y-119650000D02*
X155191600Y-118840000D01*
X155231600Y-117160000D02*
X155231600Y-116320000D01*
X155231600Y-119680000D02*
X155231600Y-118840000D01*
X155271600Y-117160000D02*
X155271600Y-116292000D01*
X155271600Y-119708000D02*
X155271600Y-118840000D01*
X155311600Y-117160000D02*
X155311600Y-116265000D01*
X155311600Y-119735000D02*
X155311600Y-118840000D01*
X155351600Y-117160000D02*
X155351600Y-116240000D01*
X155351600Y-119760000D02*
X155351600Y-118840000D01*
X155391600Y-117160000D02*
X155391600Y-116215000D01*
X155391600Y-119785000D02*
X155391600Y-118840000D01*
X155431600Y-117160000D02*
X155431600Y-116192000D01*
X155431600Y-119808000D02*
X155431600Y-118840000D01*
X155471600Y-117160000D02*
X155471600Y-116170000D01*
X155471600Y-119830000D02*
X155471600Y-118840000D01*
X155511600Y-117160000D02*
X155511600Y-116149000D01*
X155511600Y-119851000D02*
X155511600Y-118840000D01*
X155551600Y-117160000D02*
X155551600Y-116130000D01*
X155551600Y-119870000D02*
X155551600Y-118840000D01*
X155591600Y-117160000D02*
X155591600Y-116111000D01*
X155591600Y-119889000D02*
X155591600Y-118840000D01*
X155631600Y-117160000D02*
X155631600Y-116093000D01*
X155631600Y-119907000D02*
X155631600Y-118840000D01*
X155671600Y-117160000D02*
X155671600Y-116076000D01*
X155671600Y-119924000D02*
X155671600Y-118840000D01*
X155711600Y-117160000D02*
X155711600Y-116060000D01*
X155711600Y-119940000D02*
X155711600Y-118840000D01*
X155751600Y-117160000D02*
X155751600Y-116046000D01*
X155751600Y-119954000D02*
X155751600Y-118840000D01*
X155792600Y-117160000D02*
X155792600Y-116032000D01*
X155792600Y-119968000D02*
X155792600Y-118840000D01*
X155832600Y-117160000D02*
X155832600Y-116018000D01*
X155832600Y-119982000D02*
X155832600Y-118840000D01*
X155872600Y-117160000D02*
X155872600Y-116006000D01*
X155872600Y-119994000D02*
X155872600Y-118840000D01*
X155912600Y-117160000D02*
X155912600Y-115995000D01*
X155912600Y-120005000D02*
X155912600Y-118840000D01*
X155952600Y-117160000D02*
X155952600Y-115984000D01*
X155952600Y-120016000D02*
X155952600Y-118840000D01*
X155992600Y-117160000D02*
X155992600Y-115975000D01*
X155992600Y-120025000D02*
X155992600Y-118840000D01*
X156032600Y-117160000D02*
X156032600Y-115966000D01*
X156032600Y-120034000D02*
X156032600Y-118840000D01*
X156072600Y-117160000D02*
X156072600Y-115958000D01*
X156072600Y-120042000D02*
X156072600Y-118840000D01*
X156112600Y-117160000D02*
X156112600Y-115950000D01*
X156112600Y-120050000D02*
X156112600Y-118840000D01*
X156152600Y-117160000D02*
X156152600Y-115944000D01*
X156152600Y-120056000D02*
X156152600Y-118840000D01*
X156192600Y-117160000D02*
X156192600Y-115938000D01*
X156192600Y-120062000D02*
X156192600Y-118840000D01*
X156232600Y-117160000D02*
X156232600Y-115933000D01*
X156232600Y-120067000D02*
X156232600Y-118840000D01*
X156272600Y-117160000D02*
X156272600Y-115929000D01*
X156272600Y-120071000D02*
X156272600Y-118840000D01*
X156312600Y-120074000D02*
X156312600Y-115926000D01*
X156352600Y-120077000D02*
X156352600Y-115923000D01*
X156392600Y-120079000D02*
X156392600Y-115921000D01*
X156432600Y-120080000D02*
X156432600Y-115920000D01*
X156472600Y-120080000D02*
X156472600Y-115920000D01*
X158542401Y-119395000D02*
X158542401Y-118995000D01*
X158742401Y-119195000D02*
X158342401Y-119195000D01*
X158592600Y-118000000D02*
G75*
G02*
X154352600Y-118000000I-2120000J0D01*
G01*
X154352600Y-118000000D02*
G75*
G02*
X158592600Y-118000000I2120000J0D01*
G01*
%TO.C,SW1*%
X161000000Y-107000000D02*
X161000000Y-111500000D01*
X163500000Y-112750000D02*
X165000000Y-112750000D01*
X165000000Y-105750000D02*
X163500000Y-105750000D01*
X167500000Y-111500000D02*
X167500000Y-107000000D01*
%TD*%
M02*
