%TF.GenerationSoftware,KiCad,Pcbnew,8.0.7*%
%TF.CreationDate,2025-02-03T11:19:23+09:00*%
%TF.ProjectId,rusty-hangulclock,72757374-792d-4686-916e-67756c636c6f,rev?*%
%TF.SameCoordinates,Original*%
%TF.FileFunction,Copper,L1,Top*%
%TF.FilePolarity,Positive*%
%FSLAX46Y46*%
G04 Gerber Fmt 4.6, Leading zero omitted, Abs format (unit mm)*
G04 Created by KiCad (PCBNEW 8.0.7) date 2025-02-03 11:19:23*
%MOMM*%
%LPD*%
G01*
G04 APERTURE LIST*
G04 Aperture macros list*
%AMRoundRect*
0 Rectangle with rounded corners*
0 $1 Rounding radius*
0 $2 $3 $4 $5 $6 $7 $8 $9 X,Y pos of 4 corners*
0 Add a 4 corners polygon primitive as box body*
4,1,4,$2,$3,$4,$5,$6,$7,$8,$9,$2,$3,0*
0 Add four circle primitives for the rounded corners*
1,1,$1+$1,$2,$3*
1,1,$1+$1,$4,$5*
1,1,$1+$1,$6,$7*
1,1,$1+$1,$8,$9*
0 Add four rect primitives between the rounded corners*
20,1,$1+$1,$2,$3,$4,$5,0*
20,1,$1+$1,$4,$5,$6,$7,0*
20,1,$1+$1,$6,$7,$8,$9,0*
20,1,$1+$1,$8,$9,$2,$3,0*%
G04 Aperture macros list end*
%TA.AperFunction,ComponentPad*%
%ADD10R,1.700000X1.700000*%
%TD*%
%TA.AperFunction,ComponentPad*%
%ADD11O,1.700000X1.700000*%
%TD*%
%TA.AperFunction,SMDPad,CuDef*%
%ADD12RoundRect,0.381000X1.619000X0.381000X-1.619000X0.381000X-1.619000X-0.381000X1.619000X-0.381000X0*%
%TD*%
%TA.AperFunction,ComponentPad*%
%ADD13C,1.600000*%
%TD*%
%TA.AperFunction,ComponentPad*%
%ADD14R,2.000000X2.000000*%
%TD*%
%TA.AperFunction,ComponentPad*%
%ADD15C,2.000000*%
%TD*%
%TA.AperFunction,ComponentPad*%
%ADD16R,3.200000X2.000000*%
%TD*%
%TA.AperFunction,ComponentPad*%
%ADD17R,1.200000X1.200000*%
%TD*%
%TA.AperFunction,ComponentPad*%
%ADD18C,1.200000*%
%TD*%
%TA.AperFunction,ViaPad*%
%ADD19C,0.600000*%
%TD*%
%TA.AperFunction,Conductor*%
%ADD20C,0.200000*%
%TD*%
%TA.AperFunction,Conductor*%
%ADD21C,1.000000*%
%TD*%
G04 APERTURE END LIST*
D10*
%TO.P,J1,1,Pin_1*%
%TO.N,+3V3*%
X163250000Y-116000000D03*
D11*
%TO.P,J1,2,Pin_2*%
%TO.N,GND*%
X163250000Y-113460000D03*
%TO.P,J1,3,Pin_3*%
%TO.N,Net-(ESP32-C3_SuperMini1-P9)*%
X163250000Y-110920000D03*
%TO.P,J1,4,Pin_4*%
%TO.N,Net-(ESP32-C3_SuperMini1-P8)*%
X163250000Y-108380000D03*
%TD*%
D10*
%TO.P,J3,1,Pin_1*%
%TO.N,+5V*%
X133355000Y-136725686D03*
D11*
%TO.P,J3,2,Pin_2*%
%TO.N,GND*%
X130815000Y-136725686D03*
%TD*%
D12*
%TO.P,ESP32-C3_SuperMini1,0,P0*%
%TO.N,unconnected-(ESP32-C3_SuperMini1-P0-Pad0)*%
X138500000Y-119880000D03*
%TO.P,ESP32-C3_SuperMini1,1,P1*%
%TO.N,Net-(ESP32-C3_SuperMini1-P1)*%
X138500000Y-122420000D03*
%TO.P,ESP32-C3_SuperMini1,2,P2*%
%TO.N,Net-(ESP32-C3_SuperMini1-P2)*%
X138500000Y-124960000D03*
%TO.P,ESP32-C3_SuperMini1,3,P3*%
%TO.N,Net-(ESP32-C3_SuperMini1-P3)*%
X138500000Y-127500000D03*
%TO.P,ESP32-C3_SuperMini1,3V3,3V3*%
%TO.N,+3V3*%
X138500000Y-132580000D03*
%TO.P,ESP32-C3_SuperMini1,4,P4*%
%TO.N,Net-(ESP32-C3_SuperMini1-P4)*%
X138500000Y-130040000D03*
%TO.P,ESP32-C3_SuperMini1,5,P5*%
%TO.N,unconnected-(ESP32-C3_SuperMini1-P5-Pad5)*%
X156500000Y-137660000D03*
%TO.P,ESP32-C3_SuperMini1,5V,5V*%
%TO.N,+5V*%
X138500000Y-137640000D03*
%TO.P,ESP32-C3_SuperMini1,6,P6*%
%TO.N,Net-(ESP32-C3_SuperMini1-P6)*%
X156500000Y-135120000D03*
%TO.P,ESP32-C3_SuperMini1,7,P7*%
%TO.N,unconnected-(ESP32-C3_SuperMini1-P7-Pad7)*%
X156500000Y-132580000D03*
%TO.P,ESP32-C3_SuperMini1,8,P8*%
%TO.N,Net-(ESP32-C3_SuperMini1-P8)*%
X156500000Y-130040000D03*
%TO.P,ESP32-C3_SuperMini1,9,P9*%
%TO.N,Net-(ESP32-C3_SuperMini1-P9)*%
X156500000Y-127500000D03*
%TO.P,ESP32-C3_SuperMini1,10,P10*%
%TO.N,unconnected-(ESP32-C3_SuperMini1-P10-Pad10)*%
X156500000Y-124960000D03*
%TO.P,ESP32-C3_SuperMini1,20,P20*%
%TO.N,unconnected-(ESP32-C3_SuperMini1-P20-Pad20)*%
X156500000Y-122420000D03*
%TO.P,ESP32-C3_SuperMini1,21,P21*%
%TO.N,unconnected-(ESP32-C3_SuperMini1-P21-Pad21)*%
X156500000Y-119880000D03*
%TO.P,ESP32-C3_SuperMini1,G,GND*%
%TO.N,GND*%
X138500000Y-135120000D03*
%TD*%
D13*
%TO.P,C4,1*%
%TO.N,Net-(ESP32-C3_SuperMini1-P3)*%
X135250000Y-89000000D03*
%TO.P,C4,2*%
%TO.N,GND*%
X130250000Y-89000000D03*
%TD*%
D14*
%TO.P,SW1,A,A*%
%TO.N,Net-(ESP32-C3_SuperMini1-P2)*%
X139750000Y-91250000D03*
D15*
%TO.P,SW1,B,B*%
%TO.N,Net-(ESP32-C3_SuperMini1-P1)*%
X139750000Y-96250000D03*
%TO.P,SW1,C,C*%
%TO.N,GND*%
X139750000Y-93750000D03*
D16*
%TO.P,SW1,MP,MP*%
X147250000Y-88150000D03*
X147250000Y-99350000D03*
D15*
%TO.P,SW1,S1,S1*%
%TO.N,Net-(ESP32-C3_SuperMini1-P3)*%
X154250000Y-96250000D03*
%TO.P,SW1,S2,S2*%
%TO.N,GND*%
X154250000Y-91250000D03*
%TD*%
D13*
%TO.P,C2,1*%
%TO.N,Net-(ESP32-C3_SuperMini1-P1)*%
X135250000Y-98750000D03*
%TO.P,C2,2*%
%TO.N,GND*%
X130250000Y-98750000D03*
%TD*%
D10*
%TO.P,J2,1,Pin_1*%
%TO.N,+5V*%
X131500000Y-116000000D03*
D11*
%TO.P,J2,2,Pin_2*%
%TO.N,GND*%
X131500000Y-113460000D03*
%TO.P,J2,3,Pin_3*%
%TO.N,Net-(ESP32-C3_SuperMini1-P6)*%
X131500000Y-110920000D03*
%TO.P,J2,4,Pin_4*%
%TO.N,Net-(ESP32-C3_SuperMini1-P4)*%
X131500000Y-108380000D03*
%TD*%
D17*
%TO.P,C1,1*%
%TO.N,+5V*%
X133000000Y-131000000D03*
D18*
%TO.P,C1,2*%
%TO.N,GND*%
X131000000Y-131000000D03*
%TD*%
D13*
%TO.P,C3,1*%
%TO.N,Net-(ESP32-C3_SuperMini1-P2)*%
X135250000Y-94000000D03*
%TO.P,C3,2*%
%TO.N,GND*%
X130250000Y-94000000D03*
%TD*%
D19*
%TO.N,GND*%
X138500000Y-135120000D03*
%TO.N,+3V3*%
X138500000Y-132580000D03*
%TO.N,Net-(ESP32-C3_SuperMini1-P6)*%
X143000000Y-127750000D03*
%TD*%
D20*
%TO.N,Net-(ESP32-C3_SuperMini1-P3)*%
X141750000Y-125366116D02*
G75*
G02*
X141124995Y-126874995I-2133900J16D01*
G01*
X144093792Y-90593792D02*
G75*
G03*
X140246036Y-88999989I-3847792J-3847808D01*
G01*
X148159009Y-94659009D02*
G75*
G03*
X152000000Y-96249994I3840991J3841009D01*
G01*
X154250000Y-96750000D02*
G75*
G03*
X153750000Y-96250000I-500000J0D01*
G01*
X154250000Y-96750000D02*
G75*
G02*
X153896445Y-97603552I-1207100J0D01*
G01*
X143343792Y-108156207D02*
G75*
G03*
X141749959Y-112003963I3847708J-3847793D01*
G01*
X141125000Y-126875000D02*
G75*
G02*
X139616116Y-127500007I-1508900J1508900D01*
G01*
%TO.N,Net-(ESP32-C3_SuperMini1-P4)*%
X129000000Y-120286036D02*
G75*
G03*
X130593800Y-124133784I5441600J36D01*
G01*
X129559999Y-108939999D02*
G75*
G03*
X128999953Y-110291959I1351901J-1352001D01*
G01*
X130810000Y-108380000D02*
G75*
G03*
X129632098Y-108867905I0J-1665800D01*
G01*
X135792893Y-129332893D02*
G75*
G03*
X137500000Y-130040004I1707107J1707093D01*
G01*
%TO.N,Net-(ESP32-C3_SuperMini1-P6)*%
X148776207Y-133526207D02*
G75*
G03*
X152623963Y-135120011I3847793J3847807D01*
G01*
%TO.N,Net-(ESP32-C3_SuperMini1-P2)*%
X138875000Y-91250000D02*
G75*
G03*
X137381289Y-91868726I0J-2112400D01*
G01*
X138288460Y-124960000D02*
X138288460Y-124960000D01*
X135738751Y-124238751D02*
G75*
G03*
X137480000Y-124959999I1741249J1741251D01*
G01*
X134375000Y-94875000D02*
G75*
G03*
X133500015Y-96987436I2112400J-2112400D01*
G01*
X133500000Y-119906963D02*
G75*
G03*
X134979989Y-123480011I5053000J-37D01*
G01*
%TO.N,Net-(ESP32-C3_SuperMini1-P9)*%
X162665000Y-110920000D02*
G75*
G03*
X161666346Y-111333661I0J-1412300D01*
G01*
X160250000Y-123659009D02*
G75*
G02*
X159124997Y-126374997I-3841000J9D01*
G01*
X158530330Y-126969669D02*
G75*
G02*
X157250000Y-127499988I-1280330J1280369D01*
G01*
X161165000Y-111835000D02*
G75*
G03*
X160250002Y-114044005I2209000J-2209000D01*
G01*
%TO.N,Net-(ESP32-C3_SuperMini1-P8)*%
X153770000Y-129520000D02*
G75*
G03*
X155025391Y-130040004I1255400J1255400D01*
G01*
X154843792Y-115156207D02*
G75*
G03*
X153249959Y-119003963I3847708J-3847793D01*
G01*
X153250000Y-128264608D02*
G75*
G03*
X153770003Y-129519997I1775400J8D01*
G01*
X162435000Y-108380000D02*
G75*
G03*
X161043704Y-108956289I0J-1967600D01*
G01*
%TO.N,Net-(ESP32-C3_SuperMini1-P1)*%
X135250000Y-120286116D02*
G75*
G03*
X135875005Y-121794995I2133900J16D01*
G01*
X137957106Y-98042893D02*
G75*
G02*
X136250000Y-98750003I-1707106J1707093D01*
G01*
X135875000Y-121795000D02*
G75*
G03*
X137383883Y-122420007I1508900J1508900D01*
G01*
D21*
%TO.N,+5V*%
X133812157Y-137182843D02*
G75*
G03*
X134915831Y-137639987I1103643J1103643D01*
G01*
X134915831Y-137640000D02*
X138500000Y-137640000D01*
X133812157Y-137182843D02*
X133355000Y-136725686D01*
D20*
%TO.N,Net-(ESP32-C3_SuperMini1-P1)*%
X135250000Y-98750000D02*
X135250000Y-120286116D01*
X135250000Y-98750000D02*
X136250000Y-98750000D01*
X137957106Y-98042893D02*
X139750000Y-96250000D01*
X137383883Y-122420000D02*
X138500000Y-122420000D01*
%TO.N,Net-(ESP32-C3_SuperMini1-P8)*%
X154843792Y-115156207D02*
X161043707Y-108956292D01*
X155025391Y-130040000D02*
X156500000Y-130040000D01*
X153250000Y-119003963D02*
X153250000Y-128264608D01*
X162435000Y-108380000D02*
X163250000Y-108380000D01*
%TO.N,Net-(ESP32-C3_SuperMini1-P9)*%
X162665000Y-110920000D02*
X163250000Y-110920000D01*
X161666342Y-111333657D02*
X161165000Y-111835000D01*
X159124999Y-126374999D02*
X158530330Y-126969669D01*
X160250000Y-123659009D02*
X160250000Y-114044005D01*
X157250000Y-127500000D02*
X156500000Y-127500000D01*
%TO.N,Net-(ESP32-C3_SuperMini1-P2)*%
X137381281Y-91868718D02*
X135250000Y-94000000D01*
X138288460Y-124960000D02*
X137480000Y-124960000D01*
X138288460Y-124960000D02*
X138076920Y-124960000D01*
X133500000Y-96987436D02*
X133500000Y-119906963D01*
X135250000Y-94000000D02*
X134375000Y-94875000D01*
X135738751Y-124238751D02*
X134980000Y-123480000D01*
X138875000Y-91250000D02*
X139750000Y-91250000D01*
%TO.N,Net-(ESP32-C3_SuperMini1-P6)*%
X152623963Y-135120000D02*
X156500000Y-135120000D01*
X143000000Y-127750000D02*
X148776207Y-133526207D01*
%TO.N,Net-(ESP32-C3_SuperMini1-P4)*%
X137500000Y-130040000D02*
X138500000Y-130040000D01*
X129000000Y-120286036D02*
X129000000Y-110291959D01*
X129559999Y-108939999D02*
X129632096Y-108867903D01*
X130593792Y-124133792D02*
X135792893Y-129332893D01*
X130810000Y-108380000D02*
X131500000Y-108380000D01*
%TO.N,Net-(ESP32-C3_SuperMini1-P3)*%
X139616116Y-127500000D02*
X138500000Y-127500000D01*
X144093792Y-90593792D02*
X148159009Y-94659009D01*
X141750000Y-125366116D02*
X141750000Y-112003963D01*
X152000000Y-96250000D02*
X153750000Y-96250000D01*
X140246036Y-89000000D02*
X135250000Y-89000000D01*
X153896446Y-97603553D02*
X143343792Y-108156207D01*
%TD*%
%TA.AperFunction,Conductor*%
%TO.N,GND*%
G36*
X165442539Y-85520185D02*
G01*
X165488294Y-85572989D01*
X165499500Y-85624500D01*
X165499500Y-138375500D01*
X165479815Y-138442539D01*
X165427011Y-138488294D01*
X165375500Y-138499500D01*
X158744073Y-138499500D01*
X158677034Y-138479815D01*
X158631279Y-138427011D01*
X158621335Y-138357853D01*
X158629512Y-138328047D01*
X158643690Y-138293819D01*
X158685533Y-138192802D01*
X158700500Y-138079116D01*
X158700500Y-137240884D01*
X158685533Y-137127198D01*
X158626939Y-136985741D01*
X158533731Y-136864269D01*
X158412259Y-136771061D01*
X158412258Y-136771060D01*
X158295593Y-136722736D01*
X158270802Y-136712467D01*
X158256591Y-136710596D01*
X158157123Y-136697500D01*
X158157116Y-136697500D01*
X154842884Y-136697500D01*
X154842876Y-136697500D01*
X154729198Y-136712467D01*
X154729197Y-136712467D01*
X154587741Y-136771060D01*
X154466269Y-136864269D01*
X154373060Y-136985741D01*
X154314467Y-137127197D01*
X154314467Y-137127198D01*
X154299500Y-137240876D01*
X154299500Y-138079123D01*
X154314467Y-138192801D01*
X154314467Y-138192802D01*
X154370488Y-138328047D01*
X154377957Y-138397516D01*
X154346682Y-138459996D01*
X154286593Y-138495648D01*
X154255927Y-138499500D01*
X140734765Y-138499500D01*
X140667726Y-138479815D01*
X140621971Y-138427011D01*
X140612027Y-138357853D01*
X140624429Y-138322016D01*
X140623829Y-138321768D01*
X140640197Y-138282249D01*
X140685533Y-138172802D01*
X140700500Y-138059116D01*
X140700500Y-137220884D01*
X140685533Y-137107198D01*
X140626939Y-136965741D01*
X140533731Y-136844269D01*
X140412259Y-136751061D01*
X140412258Y-136751060D01*
X140296030Y-136702917D01*
X140270802Y-136692467D01*
X140256591Y-136690596D01*
X140157123Y-136677500D01*
X140157116Y-136677500D01*
X136842884Y-136677500D01*
X136842876Y-136677500D01*
X136729198Y-136692467D01*
X136729197Y-136692467D01*
X136587741Y-136751060D01*
X136466269Y-136844269D01*
X136430422Y-136890986D01*
X136373994Y-136932189D01*
X136332046Y-136939500D01*
X135002355Y-136939500D01*
X135002339Y-136939499D01*
X134920688Y-136939499D01*
X134910962Y-136939117D01*
X134790959Y-136929675D01*
X134771740Y-136926631D01*
X134659457Y-136899676D01*
X134640950Y-136893664D01*
X134534251Y-136849469D01*
X134516913Y-136840634D01*
X134464710Y-136808644D01*
X134417835Y-136756833D01*
X134405500Y-136702917D01*
X134405500Y-135855935D01*
X134405499Y-135855933D01*
X134393868Y-135797456D01*
X134393867Y-135797455D01*
X134349552Y-135731133D01*
X134283230Y-135686818D01*
X134283229Y-135686817D01*
X134224752Y-135675186D01*
X134224748Y-135675186D01*
X132485252Y-135675186D01*
X132485247Y-135675186D01*
X132426770Y-135686817D01*
X132426769Y-135686818D01*
X132360447Y-135731133D01*
X132316132Y-135797455D01*
X132316131Y-135797456D01*
X132304500Y-135855933D01*
X132304500Y-136166229D01*
X132284815Y-136233268D01*
X132232011Y-136279023D01*
X132162853Y-136288967D01*
X132099297Y-136259942D01*
X132068118Y-136218634D01*
X131988600Y-136048108D01*
X131988599Y-136048106D01*
X131853113Y-135854612D01*
X131853108Y-135854606D01*
X131686082Y-135687580D01*
X131492578Y-135552085D01*
X131278492Y-135452256D01*
X131278486Y-135452253D01*
X131065000Y-135395050D01*
X131065000Y-136292674D01*
X131007993Y-136259761D01*
X130880826Y-136225686D01*
X130749174Y-136225686D01*
X130622007Y-136259761D01*
X130565000Y-136292674D01*
X130565000Y-135395050D01*
X130564999Y-135395050D01*
X130351513Y-135452253D01*
X130351507Y-135452256D01*
X130137422Y-135552085D01*
X130137420Y-135552086D01*
X129943926Y-135687572D01*
X129943920Y-135687577D01*
X129776891Y-135854606D01*
X129776886Y-135854612D01*
X129641400Y-136048106D01*
X129641399Y-136048108D01*
X129541570Y-136262193D01*
X129541567Y-136262199D01*
X129484364Y-136475685D01*
X129484364Y-136475686D01*
X130381988Y-136475686D01*
X130349075Y-136532693D01*
X130315000Y-136659860D01*
X130315000Y-136791512D01*
X130349075Y-136918679D01*
X130381988Y-136975686D01*
X129484364Y-136975686D01*
X129541567Y-137189172D01*
X129541570Y-137189178D01*
X129641399Y-137403264D01*
X129776894Y-137596768D01*
X129943917Y-137763791D01*
X130137421Y-137899286D01*
X130351507Y-137999115D01*
X130351516Y-137999119D01*
X130565000Y-138056320D01*
X130565000Y-137158698D01*
X130622007Y-137191611D01*
X130749174Y-137225686D01*
X130880826Y-137225686D01*
X131007993Y-137191611D01*
X131065000Y-137158698D01*
X131065000Y-138056319D01*
X131278483Y-137999119D01*
X131278492Y-137999115D01*
X131492578Y-137899286D01*
X131686082Y-137763791D01*
X131853105Y-137596768D01*
X131988599Y-137403264D01*
X132068118Y-137232737D01*
X132114290Y-137180298D01*
X132181484Y-137161146D01*
X132248365Y-137181362D01*
X132293699Y-137234527D01*
X132304500Y-137285142D01*
X132304500Y-137595438D01*
X132316131Y-137653915D01*
X132316132Y-137653916D01*
X132360447Y-137720238D01*
X132426769Y-137764553D01*
X132426770Y-137764554D01*
X132485247Y-137776185D01*
X132485250Y-137776186D01*
X132485252Y-137776186D01*
X133373521Y-137776186D01*
X133440560Y-137795871D01*
X133450829Y-137803236D01*
X133605197Y-137926339D01*
X133820257Y-138061469D01*
X134049095Y-138171669D01*
X134049098Y-138171670D01*
X134049100Y-138171671D01*
X134109489Y-138192801D01*
X134288833Y-138255554D01*
X134288842Y-138255556D01*
X134291582Y-138256346D01*
X134350553Y-138293819D01*
X134379902Y-138357226D01*
X134370312Y-138426434D01*
X134324828Y-138479471D01*
X134257890Y-138499498D01*
X134257256Y-138499500D01*
X121624500Y-138499500D01*
X121557461Y-138479815D01*
X121511706Y-138427011D01*
X121500500Y-138375500D01*
X121500500Y-135378711D01*
X122649500Y-135378711D01*
X122649500Y-135621288D01*
X122681161Y-135861785D01*
X122743947Y-136096104D01*
X122836773Y-136320205D01*
X122836776Y-136320212D01*
X122958064Y-136530289D01*
X122958066Y-136530292D01*
X122958067Y-136530293D01*
X123105733Y-136722736D01*
X123105739Y-136722743D01*
X123277256Y-136894260D01*
X123277263Y-136894266D01*
X123383372Y-136975686D01*
X123469711Y-137041936D01*
X123679788Y-137163224D01*
X123903900Y-137256054D01*
X124138211Y-137318838D01*
X124318586Y-137342584D01*
X124378711Y-137350500D01*
X124378712Y-137350500D01*
X124621289Y-137350500D01*
X124669388Y-137344167D01*
X124861789Y-137318838D01*
X125096100Y-137256054D01*
X125320212Y-137163224D01*
X125530289Y-137041936D01*
X125722738Y-136894265D01*
X125894265Y-136722738D01*
X126041936Y-136530289D01*
X126163224Y-136320212D01*
X126256054Y-136096100D01*
X126318838Y-135861789D01*
X126350500Y-135621288D01*
X126350500Y-135378712D01*
X126318838Y-135138211D01*
X126256054Y-134903900D01*
X126163224Y-134679788D01*
X126153182Y-134662395D01*
X136000000Y-134662395D01*
X136000000Y-135577605D01*
X136000001Y-135577609D01*
X136002917Y-135620632D01*
X136002917Y-135620634D01*
X136049165Y-135806602D01*
X136134307Y-135978275D01*
X136254365Y-136127633D01*
X136254366Y-136127634D01*
X136403725Y-136247692D01*
X136403724Y-136247692D01*
X136575397Y-136332834D01*
X136761361Y-136379081D01*
X136761357Y-136379081D01*
X136804395Y-136381999D01*
X136978000Y-136381999D01*
X136978000Y-136381998D01*
X137591552Y-136381998D01*
X137591553Y-136381999D01*
X139408447Y-136381999D01*
X139408447Y-136381998D01*
X138500000Y-135473552D01*
X137591552Y-136381998D01*
X136978000Y-136381998D01*
X136986010Y-136362660D01*
X136985421Y-136361581D01*
X136990405Y-136291889D01*
X137018906Y-136247542D01*
X138146448Y-135120000D01*
X138146447Y-135119999D01*
X138853551Y-135119999D01*
X139981093Y-136247541D01*
X140014578Y-136308864D01*
X140011210Y-136355951D01*
X140022000Y-136381999D01*
X140195607Y-136381999D01*
X140195609Y-136381998D01*
X140238632Y-136379082D01*
X140238634Y-136379082D01*
X140424602Y-136332834D01*
X140596275Y-136247692D01*
X140745633Y-136127634D01*
X140745634Y-136127633D01*
X140865692Y-135978275D01*
X140950834Y-135806602D01*
X140997081Y-135620640D01*
X140999999Y-135577604D01*
X140999999Y-134662394D01*
X140999998Y-134662390D01*
X140997082Y-134619367D01*
X140997082Y-134619365D01*
X140950834Y-134433397D01*
X140865692Y-134261724D01*
X140745634Y-134112366D01*
X140745633Y-134112365D01*
X140596274Y-133992307D01*
X140596275Y-133992307D01*
X140424602Y-133907165D01*
X140238638Y-133860918D01*
X140238642Y-133860918D01*
X140195605Y-133858000D01*
X140021999Y-133858000D01*
X140013988Y-133877338D01*
X140014578Y-133878418D01*
X140009594Y-133948110D01*
X139981093Y-133992457D01*
X138853551Y-135119999D01*
X138146447Y-135119999D01*
X137018904Y-133992456D01*
X136985419Y-133931133D01*
X136988786Y-133884044D01*
X136977998Y-133858000D01*
X137591551Y-133858000D01*
X138499999Y-134766447D01*
X139408446Y-133858000D01*
X137591551Y-133858000D01*
X136977998Y-133858000D01*
X136804394Y-133858000D01*
X136804390Y-133858001D01*
X136761367Y-133860917D01*
X136761365Y-133860917D01*
X136575397Y-133907165D01*
X136403724Y-133992307D01*
X136254366Y-134112365D01*
X136254365Y-134112366D01*
X136134307Y-134261724D01*
X136049165Y-134433397D01*
X136002918Y-134619359D01*
X136000000Y-134662395D01*
X126153182Y-134662395D01*
X126041936Y-134469711D01*
X125894265Y-134277262D01*
X125894260Y-134277256D01*
X125722743Y-134105739D01*
X125722736Y-134105733D01*
X125530293Y-133958067D01*
X125530292Y-133958066D01*
X125530289Y-133958064D01*
X125320212Y-133836776D01*
X125320205Y-133836773D01*
X125096104Y-133743947D01*
X124950887Y-133705036D01*
X124861789Y-133681162D01*
X124861788Y-133681161D01*
X124861785Y-133681161D01*
X124621289Y-133649500D01*
X124621288Y-133649500D01*
X124378712Y-133649500D01*
X124378711Y-133649500D01*
X124138214Y-133681161D01*
X123903895Y-133743947D01*
X123679794Y-133836773D01*
X123679785Y-133836777D01*
X123469706Y-133958067D01*
X123277263Y-134105733D01*
X123277256Y-134105739D01*
X123105739Y-134277256D01*
X123105733Y-134277263D01*
X122958067Y-134469706D01*
X122836777Y-134679785D01*
X122836773Y-134679794D01*
X122743947Y-134903895D01*
X122681161Y-135138214D01*
X122649500Y-135378711D01*
X121500500Y-135378711D01*
X121500500Y-132160876D01*
X136299500Y-132160876D01*
X136299500Y-132999123D01*
X136314467Y-133112801D01*
X136314467Y-133112802D01*
X136373060Y-133254258D01*
X136373061Y-133254259D01*
X136466269Y-133375731D01*
X136587741Y-133468939D01*
X136729198Y-133527533D01*
X136842884Y-133542500D01*
X136842891Y-133542500D01*
X140157109Y-133542500D01*
X140157116Y-133542500D01*
X140270802Y-133527533D01*
X140412259Y-133468939D01*
X140533731Y-133375731D01*
X140626939Y-133254259D01*
X140685533Y-133112802D01*
X140700500Y-132999116D01*
X140700500Y-132160884D01*
X140685533Y-132047198D01*
X140626939Y-131905741D01*
X140533731Y-131784269D01*
X140412259Y-131691061D01*
X140412258Y-131691060D01*
X140329395Y-131656737D01*
X140270802Y-131632467D01*
X140256591Y-131630596D01*
X140157123Y-131617500D01*
X140157116Y-131617500D01*
X136842884Y-131617500D01*
X136842876Y-131617500D01*
X136729198Y-131632467D01*
X136729197Y-131632467D01*
X136587741Y-131691060D01*
X136466269Y-131784269D01*
X136373060Y-131905741D01*
X136314467Y-132047197D01*
X136314467Y-132047198D01*
X136299500Y-132160876D01*
X121500500Y-132160876D01*
X121500500Y-131934240D01*
X130419311Y-131934240D01*
X130507585Y-131988897D01*
X130697678Y-132062539D01*
X130898072Y-132100000D01*
X131101928Y-132100000D01*
X131302322Y-132062539D01*
X131492412Y-131988899D01*
X131492416Y-131988897D01*
X131580686Y-131934241D01*
X131580686Y-131934240D01*
X131000001Y-131353553D01*
X131000000Y-131353553D01*
X130419311Y-131934240D01*
X121500500Y-131934240D01*
X121500500Y-130999999D01*
X129895287Y-130999999D01*
X129895287Y-131000000D01*
X129914096Y-131202989D01*
X129914097Y-131202992D01*
X129969883Y-131399063D01*
X129969886Y-131399069D01*
X130060751Y-131581551D01*
X130062533Y-131583911D01*
X130646446Y-131000000D01*
X130606950Y-130960504D01*
X130700000Y-130960504D01*
X130700000Y-131039496D01*
X130720444Y-131115796D01*
X130759940Y-131184205D01*
X130815795Y-131240060D01*
X130884204Y-131279556D01*
X130960504Y-131300000D01*
X131039496Y-131300000D01*
X131115796Y-131279556D01*
X131184205Y-131240060D01*
X131240060Y-131184205D01*
X131279556Y-131115796D01*
X131300000Y-131039496D01*
X131300000Y-131000000D01*
X131353553Y-131000000D01*
X131937465Y-131583912D01*
X131939246Y-131581554D01*
X131964499Y-131530840D01*
X132012002Y-131479603D01*
X132079665Y-131462181D01*
X132146005Y-131484106D01*
X132189961Y-131538417D01*
X132199500Y-131586111D01*
X132199500Y-131619752D01*
X132211131Y-131678229D01*
X132211132Y-131678230D01*
X132255447Y-131744552D01*
X132321769Y-131788867D01*
X132321770Y-131788868D01*
X132380247Y-131800499D01*
X132380250Y-131800500D01*
X132380252Y-131800500D01*
X133619750Y-131800500D01*
X133619751Y-131800499D01*
X133634568Y-131797552D01*
X133678229Y-131788868D01*
X133678229Y-131788867D01*
X133678231Y-131788867D01*
X133744552Y-131744552D01*
X133788867Y-131678231D01*
X133788867Y-131678229D01*
X133788868Y-131678229D01*
X133800499Y-131619752D01*
X133800500Y-131619750D01*
X133800500Y-130380249D01*
X133800499Y-130380247D01*
X133788868Y-130321770D01*
X133788867Y-130321769D01*
X133744552Y-130255447D01*
X133678230Y-130211132D01*
X133678229Y-130211131D01*
X133619752Y-130199500D01*
X133619748Y-130199500D01*
X132380252Y-130199500D01*
X132380247Y-130199500D01*
X132321770Y-130211131D01*
X132321769Y-130211132D01*
X132255447Y-130255447D01*
X132211132Y-130321769D01*
X132211131Y-130321770D01*
X132199500Y-130380247D01*
X132199500Y-130413888D01*
X132179815Y-130480927D01*
X132127011Y-130526682D01*
X132057853Y-130536626D01*
X131994297Y-130507601D01*
X131964500Y-130469160D01*
X131939249Y-130418449D01*
X131939247Y-130418447D01*
X131937465Y-130416087D01*
X131353553Y-131000000D01*
X131300000Y-131000000D01*
X131300000Y-130960504D01*
X131279556Y-130884204D01*
X131240060Y-130815795D01*
X131184205Y-130759940D01*
X131115796Y-130720444D01*
X131039496Y-130700000D01*
X130960504Y-130700000D01*
X130884204Y-130720444D01*
X130815795Y-130759940D01*
X130759940Y-130815795D01*
X130720444Y-130884204D01*
X130700000Y-130960504D01*
X130606950Y-130960504D01*
X130062533Y-130416087D01*
X130060755Y-130418442D01*
X130060754Y-130418443D01*
X129969886Y-130600930D01*
X129969883Y-130600936D01*
X129914097Y-130797007D01*
X129914096Y-130797010D01*
X129895287Y-130999999D01*
X121500500Y-130999999D01*
X121500500Y-130065758D01*
X130419311Y-130065758D01*
X131000000Y-130646446D01*
X131000001Y-130646446D01*
X131580687Y-130065758D01*
X131492413Y-130011101D01*
X131492411Y-130011100D01*
X131302321Y-129937460D01*
X131101928Y-129900000D01*
X130898072Y-129900000D01*
X130697678Y-129937460D01*
X130507588Y-130011100D01*
X130507581Y-130011104D01*
X130419312Y-130065757D01*
X130419311Y-130065758D01*
X121500500Y-130065758D01*
X121500500Y-120234696D01*
X128699490Y-120234696D01*
X128699491Y-120511636D01*
X128699492Y-120511648D01*
X128734895Y-120961456D01*
X128734897Y-120961472D01*
X128805481Y-121407111D01*
X128805483Y-121407119D01*
X128910818Y-121845863D01*
X129009637Y-122149995D01*
X129050251Y-122274989D01*
X129050255Y-122275001D01*
X129191340Y-122615606D01*
X129222923Y-122691854D01*
X129320595Y-122883544D01*
X129427772Y-123093891D01*
X129427779Y-123093902D01*
X129559554Y-123308939D01*
X129663527Y-123478607D01*
X129767016Y-123621048D01*
X129928736Y-123843637D01*
X129928747Y-123843651D01*
X130122972Y-124071060D01*
X130221780Y-124186749D01*
X130221787Y-124186756D01*
X130347944Y-124312913D01*
X130347959Y-124312930D01*
X130353331Y-124318302D01*
X130353332Y-124318303D01*
X130381304Y-124346275D01*
X130381305Y-124346277D01*
X130422024Y-124386996D01*
X130422030Y-124387001D01*
X135614646Y-129579617D01*
X135614682Y-129579648D01*
X135688211Y-129653177D01*
X135926600Y-129843287D01*
X136016858Y-129900000D01*
X136184773Y-130005509D01*
X136229299Y-130026951D01*
X136281160Y-130073772D01*
X136299500Y-130138672D01*
X136299500Y-130459123D01*
X136314467Y-130572801D01*
X136314467Y-130572802D01*
X136373060Y-130714258D01*
X136373061Y-130714259D01*
X136466269Y-130835731D01*
X136587741Y-130928939D01*
X136729198Y-130987533D01*
X136842884Y-131002500D01*
X136842891Y-131002500D01*
X140157109Y-131002500D01*
X140157116Y-131002500D01*
X140270802Y-130987533D01*
X140412259Y-130928939D01*
X140533731Y-130835731D01*
X140626939Y-130714259D01*
X140685533Y-130572802D01*
X140700500Y-130459116D01*
X140700500Y-129620884D01*
X140685533Y-129507198D01*
X140626939Y-129365741D01*
X140533731Y-129244269D01*
X140412259Y-129151061D01*
X140412258Y-129151060D01*
X140329395Y-129116737D01*
X140270802Y-129092467D01*
X140256591Y-129090596D01*
X140157123Y-129077500D01*
X140157116Y-129077500D01*
X136842884Y-129077500D01*
X136842876Y-129077500D01*
X136729198Y-129092467D01*
X136729197Y-129092467D01*
X136587741Y-129151060D01*
X136466270Y-129244267D01*
X136421883Y-129302115D01*
X136365455Y-129343317D01*
X136295709Y-129347472D01*
X136251754Y-129327758D01*
X136187797Y-129282378D01*
X136176939Y-129273719D01*
X136007909Y-129122663D01*
X136002861Y-129117890D01*
X130847002Y-123962031D01*
X130847000Y-123962028D01*
X130808025Y-123923053D01*
X130804650Y-123919543D01*
X130535568Y-123628452D01*
X130529245Y-123621048D01*
X130285374Y-123311698D01*
X130279651Y-123303822D01*
X130255391Y-123267514D01*
X130060782Y-122976262D01*
X130055706Y-122967978D01*
X129863224Y-122624277D01*
X129858805Y-122615606D01*
X129693878Y-122257853D01*
X129690152Y-122248858D01*
X129636766Y-122104151D01*
X129553796Y-121879252D01*
X129550798Y-121870023D01*
X129443861Y-121490860D01*
X129441597Y-121481429D01*
X129364735Y-121095026D01*
X129363219Y-121085452D01*
X129316911Y-120694217D01*
X129316150Y-120684545D01*
X129300596Y-120288730D01*
X129300500Y-120283861D01*
X129300500Y-113209999D01*
X130169364Y-113209999D01*
X130169364Y-113210000D01*
X131066988Y-113210000D01*
X131034075Y-113267007D01*
X131000000Y-113394174D01*
X131000000Y-113525826D01*
X131034075Y-113652993D01*
X131066988Y-113710000D01*
X130169364Y-113710000D01*
X130226567Y-113923486D01*
X130226570Y-113923492D01*
X130326399Y-114137578D01*
X130461894Y-114331082D01*
X130628917Y-114498105D01*
X130822421Y-114633600D01*
X130992948Y-114713118D01*
X131045387Y-114759290D01*
X131064539Y-114826484D01*
X131044323Y-114893365D01*
X130991158Y-114938700D01*
X130940543Y-114949500D01*
X130630247Y-114949500D01*
X130571770Y-114961131D01*
X130571769Y-114961132D01*
X130505447Y-115005447D01*
X130461132Y-115071769D01*
X130461131Y-115071770D01*
X130449500Y-115130247D01*
X130449500Y-116869752D01*
X130461131Y-116928229D01*
X130461132Y-116928230D01*
X130505447Y-116994552D01*
X130571769Y-117038867D01*
X130571770Y-117038868D01*
X130630247Y-117050499D01*
X130630250Y-117050500D01*
X130630252Y-117050500D01*
X132369750Y-117050500D01*
X132369751Y-117050499D01*
X132384568Y-117047552D01*
X132428229Y-117038868D01*
X132428229Y-117038867D01*
X132428231Y-117038867D01*
X132494552Y-116994552D01*
X132538867Y-116928231D01*
X132538867Y-116928229D01*
X132538868Y-116928229D01*
X132550499Y-116869752D01*
X132550500Y-116869750D01*
X132550500Y-115130249D01*
X132550499Y-115130247D01*
X132538868Y-115071770D01*
X132538867Y-115071769D01*
X132494552Y-115005447D01*
X132428230Y-114961132D01*
X132428229Y-114961131D01*
X132369752Y-114949500D01*
X132369748Y-114949500D01*
X132059457Y-114949500D01*
X131992418Y-114929815D01*
X131946663Y-114877011D01*
X131936719Y-114807853D01*
X131965744Y-114744297D01*
X132007052Y-114713118D01*
X132177578Y-114633600D01*
X132371082Y-114498105D01*
X132538105Y-114331082D01*
X132673600Y-114137578D01*
X132773429Y-113923492D01*
X132773432Y-113923486D01*
X132830636Y-113710000D01*
X131933012Y-113710000D01*
X131965925Y-113652993D01*
X132000000Y-113525826D01*
X132000000Y-113394174D01*
X131965925Y-113267007D01*
X131933012Y-113210000D01*
X132830636Y-113210000D01*
X132830635Y-113209999D01*
X132773432Y-112996513D01*
X132773429Y-112996507D01*
X132673600Y-112782422D01*
X132673599Y-112782420D01*
X132538113Y-112588926D01*
X132538108Y-112588920D01*
X132371082Y-112421894D01*
X132177578Y-112286399D01*
X131963492Y-112186570D01*
X131963486Y-112186567D01*
X131841349Y-112153841D01*
X131781689Y-112117476D01*
X131751160Y-112054629D01*
X131759455Y-111985253D01*
X131803940Y-111931375D01*
X131837444Y-111915407D01*
X131903954Y-111895232D01*
X132086450Y-111797685D01*
X132246410Y-111666410D01*
X132377685Y-111506450D01*
X132475232Y-111323954D01*
X132535300Y-111125934D01*
X132555583Y-110920000D01*
X132535300Y-110714066D01*
X132475232Y-110516046D01*
X132377685Y-110333550D01*
X132311082Y-110252393D01*
X132246410Y-110173589D01*
X132086452Y-110042317D01*
X132086453Y-110042317D01*
X132086450Y-110042315D01*
X131903954Y-109944768D01*
X131705934Y-109884700D01*
X131705932Y-109884699D01*
X131705934Y-109884699D01*
X131500000Y-109864417D01*
X131294067Y-109884699D01*
X131096043Y-109944769D01*
X130985898Y-110003643D01*
X130913550Y-110042315D01*
X130913548Y-110042316D01*
X130913547Y-110042317D01*
X130753589Y-110173589D01*
X130622317Y-110333547D01*
X130622315Y-110333550D01*
X130583643Y-110405898D01*
X130524769Y-110516043D01*
X130464699Y-110714067D01*
X130444417Y-110920000D01*
X130464699Y-111125932D01*
X130464700Y-111125934D01*
X130524768Y-111323954D01*
X130622315Y-111506450D01*
X130654888Y-111546141D01*
X130753589Y-111666410D01*
X130845055Y-111741473D01*
X130913550Y-111797685D01*
X131096046Y-111895232D01*
X131162551Y-111915405D01*
X131220989Y-111953702D01*
X131249446Y-112017514D01*
X131238887Y-112086581D01*
X131192663Y-112138975D01*
X131158650Y-112153841D01*
X131036514Y-112186567D01*
X131036507Y-112186570D01*
X130822422Y-112286399D01*
X130822420Y-112286400D01*
X130628926Y-112421886D01*
X130628920Y-112421891D01*
X130461891Y-112588920D01*
X130461886Y-112588926D01*
X130326400Y-112782420D01*
X130326399Y-112782422D01*
X130226570Y-112996507D01*
X130226567Y-112996513D01*
X130169364Y-113209999D01*
X129300500Y-113209999D01*
X129300500Y-110296021D01*
X129300766Y-110287908D01*
X129303094Y-110252397D01*
X129313759Y-110089744D01*
X129315876Y-110073664D01*
X129322112Y-110042317D01*
X129353834Y-109882857D01*
X129358028Y-109867208D01*
X129420566Y-109682995D01*
X129426772Y-109668014D01*
X129512818Y-109493543D01*
X129520929Y-109479496D01*
X129550273Y-109435583D01*
X129629012Y-109317749D01*
X129638884Y-109304886D01*
X129680282Y-109257685D01*
X129755736Y-109171652D01*
X129770314Y-109155030D01*
X129775843Y-109149125D01*
X129806133Y-109118839D01*
X129806133Y-109118837D01*
X129816336Y-109108636D01*
X129816340Y-109108630D01*
X129841702Y-109083267D01*
X129847591Y-109077750D01*
X129972761Y-108967977D01*
X129985607Y-108958122D01*
X130120590Y-108867930D01*
X130134630Y-108859823D01*
X130280240Y-108788016D01*
X130295211Y-108781815D01*
X130388924Y-108750003D01*
X130458732Y-108747095D01*
X130519032Y-108782389D01*
X130538138Y-108808968D01*
X130622315Y-108966450D01*
X130656969Y-109008677D01*
X130753589Y-109126410D01*
X130838537Y-109196124D01*
X130913550Y-109257685D01*
X131096046Y-109355232D01*
X131294066Y-109415300D01*
X131294065Y-109415300D01*
X131312529Y-109417118D01*
X131500000Y-109435583D01*
X131705934Y-109415300D01*
X131903954Y-109355232D01*
X132086450Y-109257685D01*
X132246410Y-109126410D01*
X132377685Y-108966450D01*
X132475232Y-108783954D01*
X132535300Y-108585934D01*
X132555583Y-108380000D01*
X132535300Y-108174066D01*
X132475232Y-107976046D01*
X132377685Y-107793550D01*
X132325702Y-107730209D01*
X132246410Y-107633589D01*
X132086452Y-107502317D01*
X132086453Y-107502317D01*
X132086450Y-107502315D01*
X131903954Y-107404768D01*
X131705934Y-107344700D01*
X131705932Y-107344699D01*
X131705934Y-107344699D01*
X131500000Y-107324417D01*
X131294067Y-107344699D01*
X131096043Y-107404769D01*
X130985898Y-107463643D01*
X130913550Y-107502315D01*
X130913548Y-107502316D01*
X130913547Y-107502317D01*
X130753589Y-107633589D01*
X130622317Y-107793547D01*
X130524767Y-107976046D01*
X130507208Y-108033931D01*
X130468910Y-108092370D01*
X130416141Y-108118826D01*
X130264799Y-108153369D01*
X130264786Y-108153373D01*
X130056347Y-108226310D01*
X130056333Y-108226316D01*
X129857363Y-108322135D01*
X129670362Y-108439636D01*
X129497688Y-108577339D01*
X129447587Y-108627440D01*
X129447587Y-108627441D01*
X129348007Y-108727020D01*
X129314141Y-108760885D01*
X129313674Y-108761416D01*
X129270302Y-108804787D01*
X129259693Y-108815395D01*
X129104763Y-109009655D01*
X129104754Y-109009668D01*
X129104753Y-109009670D01*
X129091752Y-109030359D01*
X128972541Y-109220066D01*
X128864709Y-109443965D01*
X128782636Y-109678494D01*
X128782631Y-109678511D01*
X128727334Y-109920754D01*
X128727331Y-109920769D01*
X128699502Y-110167702D01*
X128699500Y-110252395D01*
X128699500Y-110291955D01*
X128699499Y-110349534D01*
X128699500Y-110349547D01*
X128699500Y-120230832D01*
X128699499Y-120230850D01*
X128699499Y-120234666D01*
X128699490Y-120234696D01*
X121500500Y-120234696D01*
X121500500Y-98749997D01*
X128945034Y-98749997D01*
X128945034Y-98750002D01*
X128964858Y-98976599D01*
X128964860Y-98976610D01*
X129023730Y-99196317D01*
X129023735Y-99196331D01*
X129119863Y-99402478D01*
X129170974Y-99475472D01*
X129850000Y-98796446D01*
X129850000Y-98802661D01*
X129877259Y-98904394D01*
X129929920Y-98995606D01*
X130004394Y-99070080D01*
X130095606Y-99122741D01*
X130197339Y-99150000D01*
X130203553Y-99150000D01*
X129524526Y-99829025D01*
X129597513Y-99880132D01*
X129597521Y-99880136D01*
X129803668Y-99976264D01*
X129803682Y-99976269D01*
X130023389Y-100035139D01*
X130023400Y-100035141D01*
X130249998Y-100054966D01*
X130250002Y-100054966D01*
X130476599Y-100035141D01*
X130476610Y-100035139D01*
X130696317Y-99976269D01*
X130696331Y-99976264D01*
X130902478Y-99880136D01*
X130975471Y-99829024D01*
X130296447Y-99150000D01*
X130302661Y-99150000D01*
X130404394Y-99122741D01*
X130495606Y-99070080D01*
X130570080Y-98995606D01*
X130622741Y-98904394D01*
X130650000Y-98802661D01*
X130650000Y-98796447D01*
X131329024Y-99475471D01*
X131380136Y-99402478D01*
X131476264Y-99196331D01*
X131476269Y-99196317D01*
X131535139Y-98976610D01*
X131535141Y-98976599D01*
X131554966Y-98750002D01*
X131554966Y-98749997D01*
X131535141Y-98523400D01*
X131535139Y-98523389D01*
X131476269Y-98303682D01*
X131476264Y-98303668D01*
X131380136Y-98097521D01*
X131380132Y-98097513D01*
X131329025Y-98024526D01*
X130650000Y-98703551D01*
X130650000Y-98697339D01*
X130622741Y-98595606D01*
X130570080Y-98504394D01*
X130495606Y-98429920D01*
X130404394Y-98377259D01*
X130302661Y-98350000D01*
X130296445Y-98350000D01*
X130975472Y-97670974D01*
X130902478Y-97619863D01*
X130696331Y-97523735D01*
X130696317Y-97523730D01*
X130476610Y-97464860D01*
X130476599Y-97464858D01*
X130250002Y-97445034D01*
X130249998Y-97445034D01*
X130023400Y-97464858D01*
X130023389Y-97464860D01*
X129803682Y-97523730D01*
X129803673Y-97523734D01*
X129597516Y-97619866D01*
X129597512Y-97619868D01*
X129524526Y-97670973D01*
X129524526Y-97670974D01*
X130203553Y-98350000D01*
X130197339Y-98350000D01*
X130095606Y-98377259D01*
X130004394Y-98429920D01*
X129929920Y-98504394D01*
X129877259Y-98595606D01*
X129850000Y-98697339D01*
X129850000Y-98703552D01*
X129170974Y-98024526D01*
X129170973Y-98024526D01*
X129119868Y-98097512D01*
X129119866Y-98097516D01*
X129023734Y-98303673D01*
X129023730Y-98303682D01*
X128964860Y-98523389D01*
X128964858Y-98523400D01*
X128945034Y-98749997D01*
X121500500Y-98749997D01*
X121500500Y-96825916D01*
X133199498Y-96825916D01*
X133199500Y-96947874D01*
X133199500Y-119954289D01*
X133199513Y-119954508D01*
X133199513Y-120117309D01*
X133232515Y-120536674D01*
X133232516Y-120536686D01*
X133232517Y-120536687D01*
X133298323Y-120952190D01*
X133305005Y-120980023D01*
X133396524Y-121361237D01*
X133396531Y-121361260D01*
X133526523Y-121761340D01*
X133642422Y-122041149D01*
X133687510Y-122150002D01*
X133878495Y-122524833D01*
X134098300Y-122883524D01*
X134098304Y-122883530D01*
X134098314Y-122883544D01*
X134251407Y-123094259D01*
X134345570Y-123223863D01*
X134618781Y-123543752D01*
X134730983Y-123655955D01*
X134767513Y-123692485D01*
X134801169Y-123726140D01*
X135467678Y-124392649D01*
X135467680Y-124392653D01*
X135622240Y-124547213D01*
X135832093Y-124719435D01*
X135832099Y-124719439D01*
X136057822Y-124870263D01*
X136057831Y-124870268D01*
X136057833Y-124870269D01*
X136233953Y-124964407D01*
X136283797Y-125013369D01*
X136299500Y-125073765D01*
X136299500Y-125379123D01*
X136314467Y-125492801D01*
X136314467Y-125492802D01*
X136373060Y-125634258D01*
X136373061Y-125634259D01*
X136466269Y-125755731D01*
X136587741Y-125848939D01*
X136729198Y-125907533D01*
X136842884Y-125922500D01*
X136842891Y-125922500D01*
X140157109Y-125922500D01*
X140157116Y-125922500D01*
X140270802Y-125907533D01*
X140412259Y-125848939D01*
X140533731Y-125755731D01*
X140626939Y-125634259D01*
X140685533Y-125492802D01*
X140700500Y-125379116D01*
X140700500Y-124540884D01*
X140685533Y-124427198D01*
X140626939Y-124285741D01*
X140533731Y-124164269D01*
X140412259Y-124071061D01*
X140412258Y-124071060D01*
X140309711Y-124028584D01*
X140270802Y-124012467D01*
X140256591Y-124010596D01*
X140157123Y-123997500D01*
X140157116Y-123997500D01*
X136842884Y-123997500D01*
X136842876Y-123997500D01*
X136729198Y-124012467D01*
X136729197Y-124012467D01*
X136587741Y-124071060D01*
X136466268Y-124164269D01*
X136409451Y-124238315D01*
X136353023Y-124279517D01*
X136283277Y-124283672D01*
X136239324Y-124263959D01*
X136137686Y-124191843D01*
X136126829Y-124183185D01*
X135953830Y-124028584D01*
X135948776Y-124023805D01*
X135220460Y-123295489D01*
X135194197Y-123269225D01*
X135190824Y-123265716D01*
X135032001Y-123093902D01*
X134942483Y-122997062D01*
X134936165Y-122989665D01*
X134922416Y-122972225D01*
X134711168Y-122704258D01*
X134705448Y-122696384D01*
X134702420Y-122691853D01*
X134503543Y-122394211D01*
X134498457Y-122385912D01*
X134320873Y-122068810D01*
X134316456Y-122060140D01*
X134164306Y-121730098D01*
X134160584Y-121721112D01*
X134156697Y-121710576D01*
X134034795Y-121380143D01*
X134031790Y-121370893D01*
X134029073Y-121361260D01*
X133933140Y-121021101D01*
X133930870Y-121011643D01*
X133927561Y-120995008D01*
X133859970Y-120655193D01*
X133858449Y-120645587D01*
X133847640Y-120554259D01*
X133815733Y-120284663D01*
X133814971Y-120274964D01*
X133813539Y-120238520D01*
X133800596Y-119909019D01*
X133800500Y-119904150D01*
X133800501Y-119859371D01*
X133800500Y-119859367D01*
X133800500Y-97035030D01*
X133800501Y-97035027D01*
X133800500Y-96990909D01*
X133800695Y-96983959D01*
X133812050Y-96781723D01*
X133817002Y-96693526D01*
X133818556Y-96679736D01*
X133866696Y-96396383D01*
X133869783Y-96382859D01*
X133949350Y-96106669D01*
X133953936Y-96093563D01*
X134063916Y-95828042D01*
X134069947Y-95815519D01*
X134208971Y-95563971D01*
X134216352Y-95552225D01*
X134382677Y-95317810D01*
X134391318Y-95306973D01*
X134584978Y-95090267D01*
X134589741Y-95085231D01*
X134621137Y-95053834D01*
X134621136Y-95053834D01*
X134621140Y-95053831D01*
X134722619Y-94952350D01*
X134783942Y-94918866D01*
X134853634Y-94923850D01*
X134859612Y-94926549D01*
X134859641Y-94926482D01*
X134865260Y-94928809D01*
X134865268Y-94928811D01*
X134865273Y-94928814D01*
X135053868Y-94986024D01*
X135250000Y-95005341D01*
X135446132Y-94986024D01*
X135634727Y-94928814D01*
X135634737Y-94928809D01*
X135808532Y-94835913D01*
X135808538Y-94835910D01*
X135960883Y-94710883D01*
X136085910Y-94558538D01*
X136163772Y-94412868D01*
X136178811Y-94384733D01*
X136178811Y-94384732D01*
X136178814Y-94384727D01*
X136236024Y-94196132D01*
X136255341Y-94000000D01*
X136236024Y-93803868D01*
X136178814Y-93615273D01*
X136178811Y-93615268D01*
X136178809Y-93615260D01*
X136176482Y-93609641D01*
X136178596Y-93608765D01*
X136166431Y-93550358D01*
X136191427Y-93485112D01*
X136202344Y-93472625D01*
X137560113Y-92114857D01*
X137560115Y-92114856D01*
X137590899Y-92084070D01*
X137596800Y-92078543D01*
X137765856Y-91930282D01*
X137778709Y-91920418D01*
X137962285Y-91797754D01*
X137976311Y-91789657D01*
X138174322Y-91692006D01*
X138189293Y-91685805D01*
X138385642Y-91619152D01*
X138455450Y-91616243D01*
X138515750Y-91651537D01*
X138547397Y-91713829D01*
X138549500Y-91736572D01*
X138549500Y-92269752D01*
X138561131Y-92328229D01*
X138561132Y-92328230D01*
X138605447Y-92394552D01*
X138671769Y-92438867D01*
X138671770Y-92438868D01*
X138730247Y-92450499D01*
X138730250Y-92450500D01*
X138752717Y-92450500D01*
X138819756Y-92470185D01*
X138837071Y-92490168D01*
X138840397Y-92486843D01*
X139620591Y-93267037D01*
X139557007Y-93284075D01*
X139442993Y-93349901D01*
X139349901Y-93442993D01*
X139284075Y-93557007D01*
X139267037Y-93620591D01*
X138526563Y-92880117D01*
X138426267Y-93033633D01*
X138426265Y-93033637D01*
X138326412Y-93261282D01*
X138265387Y-93502261D01*
X138265385Y-93502270D01*
X138244859Y-93749994D01*
X138244859Y-93750005D01*
X138265385Y-93997729D01*
X138265387Y-93997738D01*
X138326412Y-94238717D01*
X138426267Y-94466367D01*
X138526562Y-94619881D01*
X139267037Y-93879408D01*
X139284075Y-93942993D01*
X139349901Y-94057007D01*
X139442993Y-94150099D01*
X139557007Y-94215925D01*
X139620591Y-94232962D01*
X138879943Y-94973609D01*
X138926768Y-95010055D01*
X138926771Y-95010057D01*
X139029597Y-95065703D01*
X139079188Y-95114922D01*
X139094296Y-95183139D01*
X139070126Y-95248694D01*
X139035862Y-95280182D01*
X139023441Y-95287873D01*
X139023437Y-95287876D01*
X138859020Y-95437761D01*
X138724943Y-95615308D01*
X138724938Y-95615316D01*
X138625775Y-95814461D01*
X138625769Y-95814476D01*
X138564885Y-96028462D01*
X138564884Y-96028464D01*
X138544357Y-96249999D01*
X138544357Y-96250000D01*
X138564884Y-96471535D01*
X138564885Y-96471538D01*
X138625768Y-96685523D01*
X138625771Y-96685529D01*
X138673670Y-96781723D01*
X138685931Y-96850509D01*
X138659058Y-96915004D01*
X138650351Y-96924676D01*
X137778276Y-97796751D01*
X137778270Y-97796755D01*
X137747082Y-97827944D01*
X137742029Y-97832722D01*
X137573070Y-97983715D01*
X137562197Y-97992385D01*
X137380244Y-98121488D01*
X137368471Y-98128886D01*
X137173203Y-98236809D01*
X137160673Y-98242843D01*
X136954550Y-98328221D01*
X136941426Y-98332814D01*
X136727034Y-98394580D01*
X136713477Y-98397674D01*
X136493527Y-98435045D01*
X136479709Y-98436602D01*
X136302372Y-98446561D01*
X136234334Y-98430666D01*
X136185690Y-98380511D01*
X136180855Y-98370202D01*
X136178815Y-98365279D01*
X136178814Y-98365273D01*
X136178810Y-98365265D01*
X136085913Y-98191467D01*
X136085909Y-98191460D01*
X135960883Y-98039116D01*
X135808539Y-97914090D01*
X135808532Y-97914086D01*
X135634733Y-97821188D01*
X135634727Y-97821186D01*
X135446132Y-97763976D01*
X135446129Y-97763975D01*
X135250000Y-97744659D01*
X135053870Y-97763975D01*
X134865266Y-97821188D01*
X134691467Y-97914086D01*
X134691460Y-97914090D01*
X134539116Y-98039116D01*
X134414090Y-98191460D01*
X134414086Y-98191467D01*
X134321188Y-98365266D01*
X134263975Y-98553870D01*
X134244659Y-98750000D01*
X134263975Y-98946129D01*
X134264699Y-98948515D01*
X134311729Y-99103553D01*
X134321188Y-99134733D01*
X134414086Y-99308532D01*
X134414090Y-99308539D01*
X134539116Y-99460883D01*
X134691460Y-99585909D01*
X134691467Y-99585913D01*
X134865273Y-99678814D01*
X134870897Y-99681144D01*
X134870020Y-99683260D01*
X134919917Y-99715945D01*
X134948387Y-99779751D01*
X134949500Y-99796328D01*
X134949500Y-120230913D01*
X134949499Y-120230931D01*
X134949499Y-120234750D01*
X134949494Y-120234767D01*
X134949494Y-120422833D01*
X134949495Y-120422834D01*
X134980108Y-120694522D01*
X134980109Y-120694531D01*
X134980110Y-120694535D01*
X135010467Y-120827533D01*
X135040952Y-120961095D01*
X135040954Y-120961104D01*
X135131259Y-121219176D01*
X135131261Y-121219180D01*
X135131262Y-121219183D01*
X135221764Y-121407111D01*
X135249899Y-121465533D01*
X135323401Y-121582510D01*
X135395368Y-121697044D01*
X135446644Y-121761342D01*
X135565844Y-121910814D01*
X135624518Y-121969488D01*
X135624539Y-121969511D01*
X135662513Y-122007485D01*
X135703210Y-122048181D01*
X135703270Y-122048232D01*
X135759189Y-122104151D01*
X135972959Y-122274627D01*
X136204473Y-122420098D01*
X136229298Y-122432052D01*
X136281159Y-122478872D01*
X136299500Y-122543774D01*
X136299500Y-122839123D01*
X136314467Y-122952801D01*
X136314467Y-122952802D01*
X136373060Y-123094258D01*
X136373061Y-123094259D01*
X136466269Y-123215731D01*
X136587741Y-123308939D01*
X136729198Y-123367533D01*
X136842884Y-123382500D01*
X136842891Y-123382500D01*
X140157109Y-123382500D01*
X140157116Y-123382500D01*
X140270802Y-123367533D01*
X140412259Y-123308939D01*
X140533731Y-123215731D01*
X140626939Y-123094259D01*
X140685533Y-122952802D01*
X140700500Y-122839116D01*
X140700500Y-122000884D01*
X140685533Y-121887198D01*
X140626939Y-121745741D01*
X140533731Y-121624269D01*
X140412259Y-121531061D01*
X140412258Y-121531060D01*
X140329395Y-121496737D01*
X140270802Y-121472467D01*
X140256591Y-121470596D01*
X140157123Y-121457500D01*
X140157116Y-121457500D01*
X136842884Y-121457500D01*
X136842876Y-121457500D01*
X136729198Y-121472467D01*
X136729197Y-121472467D01*
X136587741Y-121531060D01*
X136466268Y-121624269D01*
X136413656Y-121692835D01*
X136357228Y-121734037D01*
X136287482Y-121738192D01*
X136233522Y-121710576D01*
X136093566Y-121587838D01*
X136082097Y-121576369D01*
X136042362Y-121531060D01*
X135934718Y-121408316D01*
X135924847Y-121395451D01*
X135914625Y-121380153D01*
X135807068Y-121219183D01*
X135800641Y-121209564D01*
X135792531Y-121195517D01*
X135693650Y-120995008D01*
X135687443Y-120980023D01*
X135681020Y-120961103D01*
X135615579Y-120768322D01*
X135611382Y-120752657D01*
X135599820Y-120694534D01*
X135567765Y-120533385D01*
X135565649Y-120517307D01*
X135550766Y-120290262D01*
X135550500Y-120282151D01*
X135550500Y-119460876D01*
X136299500Y-119460876D01*
X136299500Y-120299123D01*
X136314467Y-120412801D01*
X136314467Y-120412802D01*
X136373060Y-120554258D01*
X136373061Y-120554259D01*
X136466269Y-120675731D01*
X136587741Y-120768939D01*
X136729198Y-120827533D01*
X136842884Y-120842500D01*
X136842891Y-120842500D01*
X140157109Y-120842500D01*
X140157116Y-120842500D01*
X140270802Y-120827533D01*
X140412259Y-120768939D01*
X140533731Y-120675731D01*
X140626939Y-120554259D01*
X140685533Y-120412802D01*
X140700500Y-120299116D01*
X140700500Y-119460884D01*
X140685533Y-119347198D01*
X140626939Y-119205741D01*
X140533731Y-119084269D01*
X140429071Y-119003961D01*
X140412258Y-118991060D01*
X140329395Y-118956737D01*
X140270802Y-118932467D01*
X140256591Y-118930596D01*
X140157123Y-118917500D01*
X140157116Y-118917500D01*
X136842884Y-118917500D01*
X136842876Y-118917500D01*
X136729198Y-118932467D01*
X136729197Y-118932467D01*
X136587741Y-118991060D01*
X136466269Y-119084269D01*
X136373060Y-119205741D01*
X136314467Y-119347197D01*
X136314467Y-119347198D01*
X136299500Y-119460876D01*
X135550500Y-119460876D01*
X135550500Y-99796328D01*
X135570185Y-99729289D01*
X135622989Y-99683534D01*
X135629131Y-99681212D01*
X135629103Y-99681144D01*
X135634723Y-99678815D01*
X135634727Y-99678814D01*
X135808538Y-99585910D01*
X135960883Y-99460883D01*
X136085910Y-99308538D01*
X136178814Y-99134727D01*
X136178815Y-99134723D01*
X136181144Y-99129103D01*
X136183252Y-99129976D01*
X136215984Y-99080053D01*
X136279801Y-99051609D01*
X136296328Y-99050503D01*
X136402459Y-99050503D01*
X136402459Y-99050502D01*
X136705448Y-99016363D01*
X137002714Y-98948514D01*
X137290513Y-98847808D01*
X137565228Y-98715512D01*
X137823402Y-98553289D01*
X138061790Y-98363180D01*
X138122815Y-98302155D01*
X145150000Y-98302155D01*
X145150000Y-99100000D01*
X145891759Y-99100000D01*
X145878822Y-99131233D01*
X145850000Y-99276131D01*
X145850000Y-99423869D01*
X145878822Y-99568767D01*
X145891759Y-99600000D01*
X145150000Y-99600000D01*
X145150000Y-100397844D01*
X145156401Y-100457372D01*
X145156403Y-100457379D01*
X145206645Y-100592086D01*
X145206649Y-100592093D01*
X145292809Y-100707187D01*
X145292812Y-100707190D01*
X145407906Y-100793350D01*
X145407913Y-100793354D01*
X145542620Y-100843596D01*
X145542627Y-100843598D01*
X145602155Y-100849999D01*
X145602172Y-100850000D01*
X147000000Y-100850000D01*
X147000000Y-100100000D01*
X147500000Y-100100000D01*
X147500000Y-100850000D01*
X148897828Y-100850000D01*
X148897844Y-100849999D01*
X148957372Y-100843598D01*
X148957379Y-100843596D01*
X149092086Y-100793354D01*
X149092093Y-100793350D01*
X149207187Y-100707190D01*
X149207190Y-100707187D01*
X149293350Y-100592093D01*
X149293354Y-100592086D01*
X149343596Y-100457379D01*
X149343598Y-100457372D01*
X149349999Y-100397844D01*
X149350000Y-100397827D01*
X149350000Y-99600000D01*
X148608241Y-99600000D01*
X148621178Y-99568767D01*
X148650000Y-99423869D01*
X148650000Y-99276131D01*
X148621178Y-99131233D01*
X148608241Y-99100000D01*
X149350000Y-99100000D01*
X149350000Y-98302172D01*
X149349999Y-98302155D01*
X149343598Y-98242627D01*
X149343596Y-98242620D01*
X149293354Y-98107913D01*
X149293350Y-98107906D01*
X149207190Y-97992812D01*
X149207187Y-97992809D01*
X149092093Y-97906649D01*
X149092086Y-97906645D01*
X148957379Y-97856403D01*
X148957372Y-97856401D01*
X148897844Y-97850000D01*
X147500000Y-97850000D01*
X147500000Y-98600000D01*
X147000000Y-98600000D01*
X147000000Y-97850000D01*
X145602155Y-97850000D01*
X145542627Y-97856401D01*
X145542620Y-97856403D01*
X145407913Y-97906645D01*
X145407906Y-97906649D01*
X145292812Y-97992809D01*
X145292809Y-97992812D01*
X145206649Y-98107906D01*
X145206645Y-98107913D01*
X145156403Y-98242620D01*
X145156401Y-98242627D01*
X145150000Y-98302155D01*
X138122815Y-98302155D01*
X138169592Y-98255378D01*
X138203247Y-98221723D01*
X138203246Y-98221723D01*
X139071488Y-97353480D01*
X139132809Y-97319997D01*
X139202501Y-97324981D01*
X139210074Y-97328269D01*
X139230612Y-97336225D01*
X139420060Y-97409618D01*
X139638757Y-97450500D01*
X139638759Y-97450500D01*
X139861241Y-97450500D01*
X139861243Y-97450500D01*
X140079940Y-97409618D01*
X140287401Y-97329247D01*
X140476562Y-97212124D01*
X140640981Y-97062236D01*
X140775058Y-96884689D01*
X140874229Y-96685528D01*
X140935115Y-96471536D01*
X140955643Y-96250000D01*
X140949858Y-96187574D01*
X140935115Y-96028464D01*
X140935114Y-96028462D01*
X140912647Y-95949500D01*
X140874229Y-95814472D01*
X140871338Y-95808666D01*
X140775061Y-95615316D01*
X140775056Y-95615308D01*
X140640979Y-95437761D01*
X140476562Y-95287876D01*
X140476561Y-95287875D01*
X140464140Y-95280184D01*
X140417505Y-95228155D01*
X140406402Y-95159173D01*
X140434356Y-95095139D01*
X140470402Y-95065703D01*
X140573230Y-95010055D01*
X140573236Y-95010051D01*
X140620055Y-94973610D01*
X140620056Y-94973609D01*
X139879408Y-94232962D01*
X139942993Y-94215925D01*
X140057007Y-94150099D01*
X140150099Y-94057007D01*
X140215925Y-93942993D01*
X140232962Y-93879409D01*
X140973435Y-94619882D01*
X141073733Y-94466364D01*
X141173587Y-94238717D01*
X141234612Y-93997738D01*
X141234614Y-93997729D01*
X141255141Y-93750005D01*
X141255141Y-93749994D01*
X141234614Y-93502270D01*
X141234612Y-93502261D01*
X141173587Y-93261282D01*
X141073732Y-93033632D01*
X140973435Y-92880116D01*
X140232962Y-93620590D01*
X140215925Y-93557007D01*
X140150099Y-93442993D01*
X140057007Y-93349901D01*
X139942993Y-93284075D01*
X139879409Y-93267037D01*
X140659602Y-92486843D01*
X140663103Y-92490344D01*
X140691120Y-92463948D01*
X140747282Y-92450500D01*
X140769750Y-92450500D01*
X140769751Y-92450499D01*
X140784568Y-92447552D01*
X140828229Y-92438868D01*
X140828229Y-92438867D01*
X140828231Y-92438867D01*
X140894552Y-92394552D01*
X140938867Y-92328231D01*
X140938867Y-92328229D01*
X140938868Y-92328229D01*
X140950499Y-92269752D01*
X140950500Y-92269750D01*
X140950500Y-90230249D01*
X140950499Y-90230247D01*
X140938868Y-90171770D01*
X140938867Y-90171769D01*
X140894552Y-90105447D01*
X140828230Y-90061132D01*
X140828229Y-90061131D01*
X140769752Y-90049500D01*
X140769748Y-90049500D01*
X138730252Y-90049500D01*
X138730247Y-90049500D01*
X138671770Y-90061131D01*
X138671769Y-90061132D01*
X138605447Y-90105447D01*
X138561132Y-90171769D01*
X138561131Y-90171770D01*
X138549500Y-90230247D01*
X138549500Y-90862843D01*
X138529815Y-90929882D01*
X138477011Y-90975637D01*
X138453094Y-90983733D01*
X138386243Y-90998992D01*
X138205965Y-91040140D01*
X138205956Y-91040142D01*
X137950156Y-91129651D01*
X137950149Y-91129654D01*
X137705972Y-91247245D01*
X137476499Y-91391435D01*
X137264612Y-91560413D01*
X137168794Y-91656234D01*
X137168793Y-91656235D01*
X135777380Y-93047647D01*
X135716057Y-93081132D01*
X135646365Y-93076148D01*
X135640386Y-93073451D01*
X135640359Y-93073518D01*
X135634739Y-93071190D01*
X135634728Y-93071186D01*
X135634727Y-93071186D01*
X135446132Y-93013976D01*
X135446129Y-93013975D01*
X135250000Y-92994659D01*
X135053870Y-93013975D01*
X134865266Y-93071188D01*
X134691467Y-93164086D01*
X134691460Y-93164090D01*
X134539116Y-93289116D01*
X134414090Y-93441460D01*
X134414086Y-93441467D01*
X134321188Y-93615266D01*
X134263975Y-93803870D01*
X134244659Y-94000000D01*
X134263975Y-94196129D01*
X134263976Y-94196132D01*
X134311729Y-94353553D01*
X134321190Y-94384739D01*
X134323518Y-94390359D01*
X134321406Y-94391233D01*
X134333565Y-94449659D01*
X134308559Y-94514901D01*
X134297648Y-94527378D01*
X134198844Y-94626184D01*
X134198802Y-94626206D01*
X134048287Y-94776720D01*
X133843343Y-95026446D01*
X133663870Y-95295048D01*
X133663868Y-95295051D01*
X133648764Y-95323310D01*
X133511582Y-95579962D01*
X133511579Y-95579968D01*
X133511579Y-95579969D01*
X133395823Y-95859435D01*
X133387957Y-95878425D01*
X133294181Y-96187569D01*
X133294180Y-96187573D01*
X133294180Y-96187574D01*
X133231158Y-96504425D01*
X133231158Y-96504428D01*
X133199498Y-96825916D01*
X121500500Y-96825916D01*
X121500500Y-93999997D01*
X128945034Y-93999997D01*
X128945034Y-94000002D01*
X128964858Y-94226599D01*
X128964860Y-94226610D01*
X129023730Y-94446317D01*
X129023735Y-94446331D01*
X129119863Y-94652478D01*
X129170974Y-94725472D01*
X129850000Y-94046446D01*
X129850000Y-94052661D01*
X129877259Y-94154394D01*
X129929920Y-94245606D01*
X130004394Y-94320080D01*
X130095606Y-94372741D01*
X130197339Y-94400000D01*
X130203553Y-94400000D01*
X129524526Y-95079025D01*
X129597513Y-95130132D01*
X129597521Y-95130136D01*
X129803668Y-95226264D01*
X129803682Y-95226269D01*
X130023389Y-95285139D01*
X130023400Y-95285141D01*
X130249998Y-95304966D01*
X130250002Y-95304966D01*
X130476599Y-95285141D01*
X130476610Y-95285139D01*
X130696317Y-95226269D01*
X130696331Y-95226264D01*
X130902478Y-95130136D01*
X130975471Y-95079024D01*
X130296447Y-94400000D01*
X130302661Y-94400000D01*
X130404394Y-94372741D01*
X130495606Y-94320080D01*
X130570080Y-94245606D01*
X130622741Y-94154394D01*
X130650000Y-94052661D01*
X130650000Y-94046447D01*
X131329024Y-94725471D01*
X131380136Y-94652478D01*
X131476264Y-94446331D01*
X131476269Y-94446317D01*
X131535139Y-94226610D01*
X131535141Y-94226599D01*
X131554966Y-94000002D01*
X131554966Y-93999997D01*
X131535141Y-93773400D01*
X131535139Y-93773389D01*
X131476269Y-93553682D01*
X131476264Y-93553668D01*
X131380136Y-93347521D01*
X131380132Y-93347513D01*
X131329025Y-93274526D01*
X130650000Y-93953551D01*
X130650000Y-93947339D01*
X130622741Y-93845606D01*
X130570080Y-93754394D01*
X130495606Y-93679920D01*
X130404394Y-93627259D01*
X130302661Y-93600000D01*
X130296445Y-93600000D01*
X130975472Y-92920974D01*
X130902478Y-92869863D01*
X130696331Y-92773735D01*
X130696317Y-92773730D01*
X130476610Y-92714860D01*
X130476599Y-92714858D01*
X130250002Y-92695034D01*
X130249998Y-92695034D01*
X130023400Y-92714858D01*
X130023389Y-92714860D01*
X129803682Y-92773730D01*
X129803673Y-92773734D01*
X129597516Y-92869866D01*
X129597512Y-92869868D01*
X129524526Y-92920973D01*
X129524526Y-92920974D01*
X130203553Y-93600000D01*
X130197339Y-93600000D01*
X130095606Y-93627259D01*
X130004394Y-93679920D01*
X129929920Y-93754394D01*
X129877259Y-93845606D01*
X129850000Y-93947339D01*
X129850000Y-93953552D01*
X129170974Y-93274526D01*
X129170973Y-93274526D01*
X129119868Y-93347512D01*
X129119866Y-93347516D01*
X129023734Y-93553673D01*
X129023730Y-93553682D01*
X128964860Y-93773389D01*
X128964858Y-93773400D01*
X128945034Y-93999997D01*
X121500500Y-93999997D01*
X121500500Y-88378711D01*
X122649500Y-88378711D01*
X122649500Y-88621288D01*
X122681161Y-88861785D01*
X122743947Y-89096104D01*
X122796479Y-89222926D01*
X122836776Y-89320212D01*
X122958064Y-89530289D01*
X122958066Y-89530292D01*
X122958067Y-89530293D01*
X123105733Y-89722736D01*
X123105739Y-89722743D01*
X123277256Y-89894260D01*
X123277262Y-89894265D01*
X123469711Y-90041936D01*
X123679788Y-90163224D01*
X123903900Y-90256054D01*
X124138211Y-90318838D01*
X124318586Y-90342584D01*
X124378711Y-90350500D01*
X124378712Y-90350500D01*
X124621289Y-90350500D01*
X124669388Y-90344167D01*
X124861789Y-90318838D01*
X125096100Y-90256054D01*
X125320212Y-90163224D01*
X125530289Y-90041936D01*
X125722738Y-89894265D01*
X125894265Y-89722738D01*
X126041936Y-89530289D01*
X126163224Y-89320212D01*
X126256054Y-89096100D01*
X126281805Y-88999997D01*
X128945034Y-88999997D01*
X128945034Y-89000002D01*
X128964858Y-89226599D01*
X128964860Y-89226610D01*
X129023730Y-89446317D01*
X129023735Y-89446331D01*
X129119863Y-89652478D01*
X129170974Y-89725472D01*
X129850000Y-89046446D01*
X129850000Y-89052661D01*
X129877259Y-89154394D01*
X129929920Y-89245606D01*
X130004394Y-89320080D01*
X130095606Y-89372741D01*
X130197339Y-89400000D01*
X130203553Y-89400000D01*
X129524526Y-90079025D01*
X129597513Y-90130132D01*
X129597521Y-90130136D01*
X129803668Y-90226264D01*
X129803682Y-90226269D01*
X130023389Y-90285139D01*
X130023400Y-90285141D01*
X130249998Y-90304966D01*
X130250002Y-90304966D01*
X130476599Y-90285141D01*
X130476610Y-90285139D01*
X130696317Y-90226269D01*
X130696331Y-90226264D01*
X130902478Y-90130136D01*
X130975471Y-90079024D01*
X130296447Y-89400000D01*
X130302661Y-89400000D01*
X130404394Y-89372741D01*
X130495606Y-89320080D01*
X130570080Y-89245606D01*
X130622741Y-89154394D01*
X130650000Y-89052661D01*
X130650000Y-89046447D01*
X131329024Y-89725471D01*
X131380136Y-89652478D01*
X131476264Y-89446331D01*
X131476269Y-89446317D01*
X131535139Y-89226610D01*
X131535141Y-89226599D01*
X131554966Y-89000002D01*
X131554966Y-89000000D01*
X134244659Y-89000000D01*
X134263975Y-89196129D01*
X134263976Y-89196132D01*
X134315125Y-89364748D01*
X134321188Y-89384733D01*
X134414086Y-89558532D01*
X134414090Y-89558539D01*
X134539116Y-89710883D01*
X134691460Y-89835909D01*
X134691467Y-89835913D01*
X134865266Y-89928811D01*
X134865269Y-89928811D01*
X134865273Y-89928814D01*
X135053868Y-89986024D01*
X135250000Y-90005341D01*
X135446132Y-89986024D01*
X135634727Y-89928814D01*
X135808538Y-89835910D01*
X135960883Y-89710883D01*
X136085910Y-89558538D01*
X136178814Y-89384727D01*
X136178815Y-89384723D01*
X136181144Y-89379103D01*
X136183260Y-89379979D01*
X136215945Y-89330083D01*
X136279751Y-89301613D01*
X136296328Y-89300500D01*
X140198439Y-89300500D01*
X140243608Y-89300500D01*
X140248476Y-89300595D01*
X140644545Y-89316160D01*
X140654218Y-89316921D01*
X141045450Y-89363228D01*
X141055024Y-89364744D01*
X141441427Y-89441607D01*
X141450858Y-89443871D01*
X141830021Y-89550807D01*
X141839249Y-89553805D01*
X142208855Y-89690161D01*
X142217850Y-89693887D01*
X142575602Y-89858814D01*
X142584266Y-89863230D01*
X142927973Y-90055716D01*
X142936275Y-90060803D01*
X143102349Y-90171770D01*
X143228488Y-90256054D01*
X143263816Y-90279659D01*
X143271692Y-90285382D01*
X143581042Y-90529253D01*
X143588446Y-90535576D01*
X143879722Y-90804829D01*
X143883232Y-90808204D01*
X143922025Y-90846997D01*
X143922031Y-90847002D01*
X147908529Y-94833500D01*
X147908539Y-94833511D01*
X147910175Y-94835146D01*
X147910196Y-94835184D01*
X147910201Y-94835180D01*
X147946520Y-94871498D01*
X147946520Y-94871499D01*
X148105782Y-95030760D01*
X148105787Y-95030764D01*
X148105800Y-95030776D01*
X148448295Y-95323294D01*
X148448309Y-95323305D01*
X148448315Y-95323310D01*
X148812745Y-95588083D01*
X149196825Y-95823447D01*
X149598188Y-96027951D01*
X149983554Y-96187574D01*
X150014364Y-96200336D01*
X150167216Y-96250000D01*
X150442772Y-96339533D01*
X150880785Y-96444690D01*
X151325699Y-96515158D01*
X151774770Y-96550500D01*
X151960438Y-96550500D01*
X152993712Y-96550500D01*
X153060751Y-96570185D01*
X153106506Y-96622989D01*
X153112978Y-96640565D01*
X153125769Y-96685523D01*
X153125771Y-96685528D01*
X153125774Y-96685534D01*
X153224936Y-96884679D01*
X153224943Y-96884691D01*
X153359020Y-97062238D01*
X153500464Y-97191181D01*
X153523438Y-97212124D01*
X153599992Y-97259524D01*
X153646627Y-97311552D01*
X153657731Y-97380534D01*
X153629778Y-97444568D01*
X153622395Y-97452632D01*
X143097929Y-107977098D01*
X143097527Y-107977555D01*
X142971817Y-108103264D01*
X142971802Y-108103280D01*
X142678775Y-108446364D01*
X142678759Y-108446384D01*
X142413567Y-108811381D01*
X142413550Y-108811407D01*
X142177790Y-109196124D01*
X142177780Y-109196141D01*
X141972945Y-109598142D01*
X141972939Y-109598157D01*
X141800264Y-110015021D01*
X141660832Y-110444137D01*
X141660831Y-110444141D01*
X141573331Y-110808596D01*
X141555494Y-110882888D01*
X141484907Y-111328536D01*
X141449502Y-111778351D01*
X141449501Y-111778363D01*
X141449500Y-112003959D01*
X141449500Y-112003960D01*
X141449499Y-112061543D01*
X141449500Y-112061556D01*
X141449500Y-125362061D01*
X141449234Y-125370172D01*
X141434345Y-125597306D01*
X141432228Y-125613387D01*
X141388611Y-125832656D01*
X141384413Y-125848323D01*
X141312550Y-126060021D01*
X141306343Y-126075006D01*
X141207463Y-126275514D01*
X141199353Y-126289561D01*
X141075148Y-126475447D01*
X141065274Y-126488315D01*
X140917838Y-126656433D01*
X140906369Y-126667902D01*
X140766481Y-126790581D01*
X140703099Y-126819984D01*
X140633883Y-126810452D01*
X140586346Y-126772839D01*
X140533731Y-126704269D01*
X140412259Y-126611061D01*
X140412258Y-126611060D01*
X140307379Y-126567618D01*
X140270802Y-126552467D01*
X140256591Y-126550596D01*
X140157123Y-126537500D01*
X140157116Y-126537500D01*
X136842884Y-126537500D01*
X136842876Y-126537500D01*
X136729198Y-126552467D01*
X136729197Y-126552467D01*
X136587741Y-126611060D01*
X136466269Y-126704269D01*
X136373060Y-126825741D01*
X136314467Y-126967197D01*
X136314467Y-126967198D01*
X136299500Y-127080876D01*
X136299500Y-127919123D01*
X136314467Y-128032801D01*
X136314467Y-128032802D01*
X136373060Y-128174258D01*
X136373061Y-128174259D01*
X136466269Y-128295731D01*
X136587741Y-128388939D01*
X136729198Y-128447533D01*
X136842884Y-128462500D01*
X136842891Y-128462500D01*
X140157109Y-128462500D01*
X140157116Y-128462500D01*
X140270802Y-128447533D01*
X140412259Y-128388939D01*
X140533731Y-128295731D01*
X140626939Y-128174259D01*
X140685533Y-128032802D01*
X140700500Y-127919116D01*
X140700500Y-127750000D01*
X142494353Y-127750000D01*
X142514834Y-127892456D01*
X142527013Y-127919123D01*
X142574623Y-128023373D01*
X142668872Y-128132143D01*
X142789947Y-128209953D01*
X142789950Y-128209954D01*
X142789949Y-128209954D01*
X142897107Y-128241417D01*
X142925280Y-128249690D01*
X142928036Y-128250499D01*
X142928038Y-128250500D01*
X143024167Y-128250500D01*
X143091206Y-128270185D01*
X143111848Y-128286819D01*
X148525727Y-133700698D01*
X148525748Y-133700721D01*
X148563708Y-133738680D01*
X148563723Y-133738694D01*
X148597545Y-133772516D01*
X148597672Y-133772627D01*
X148723257Y-133898212D01*
X149066360Y-134191249D01*
X149431397Y-134456464D01*
X149431401Y-134456466D01*
X149431406Y-134456470D01*
X149816100Y-134692211D01*
X149816106Y-134692214D01*
X149816117Y-134692221D01*
X150218149Y-134897067D01*
X150635012Y-135069739D01*
X151064138Y-135209172D01*
X151502881Y-135314507D01*
X151948536Y-135385094D01*
X152398356Y-135420498D01*
X152569962Y-135420498D01*
X152569968Y-135420500D01*
X152623961Y-135420500D01*
X152671556Y-135420501D01*
X152671559Y-135420500D01*
X154175587Y-135420500D01*
X154242626Y-135440185D01*
X154288381Y-135492989D01*
X154299322Y-135536393D01*
X154299500Y-135539123D01*
X154314467Y-135652801D01*
X154314467Y-135652802D01*
X154373060Y-135794258D01*
X154373061Y-135794259D01*
X154466269Y-135915731D01*
X154587741Y-136008939D01*
X154729198Y-136067533D01*
X154842884Y-136082500D01*
X154842891Y-136082500D01*
X158157109Y-136082500D01*
X158157116Y-136082500D01*
X158270802Y-136067533D01*
X158412259Y-136008939D01*
X158533731Y-135915731D01*
X158626939Y-135794259D01*
X158685533Y-135652802D01*
X158700500Y-135539116D01*
X158700500Y-135378711D01*
X160649500Y-135378711D01*
X160649500Y-135621288D01*
X160681161Y-135861785D01*
X160743947Y-136096104D01*
X160836773Y-136320205D01*
X160836776Y-136320212D01*
X160958064Y-136530289D01*
X160958066Y-136530292D01*
X160958067Y-136530293D01*
X161105733Y-136722736D01*
X161105739Y-136722743D01*
X161277256Y-136894260D01*
X161277263Y-136894266D01*
X161383372Y-136975686D01*
X161469711Y-137041936D01*
X161679788Y-137163224D01*
X161903900Y-137256054D01*
X162138211Y-137318838D01*
X162318586Y-137342584D01*
X162378711Y-137350500D01*
X162378712Y-137350500D01*
X162621289Y-137350500D01*
X162669388Y-137344167D01*
X162861789Y-137318838D01*
X163096100Y-137256054D01*
X163320212Y-137163224D01*
X163530289Y-137041936D01*
X163722738Y-136894265D01*
X163894265Y-136722738D01*
X164041936Y-136530289D01*
X164163224Y-136320212D01*
X164256054Y-136096100D01*
X164318838Y-135861789D01*
X164350500Y-135621288D01*
X164350500Y-135378712D01*
X164318838Y-135138211D01*
X164256054Y-134903900D01*
X164163224Y-134679788D01*
X164041936Y-134469711D01*
X163894265Y-134277262D01*
X163894260Y-134277256D01*
X163722743Y-134105739D01*
X163722736Y-134105733D01*
X163530293Y-133958067D01*
X163530292Y-133958066D01*
X163530289Y-133958064D01*
X163320212Y-133836776D01*
X163320205Y-133836773D01*
X163096104Y-133743947D01*
X162950887Y-133705036D01*
X162861789Y-133681162D01*
X162861788Y-133681161D01*
X162861785Y-133681161D01*
X162621289Y-133649500D01*
X162621288Y-133649500D01*
X162378712Y-133649500D01*
X162378711Y-133649500D01*
X162138214Y-133681161D01*
X161903895Y-133743947D01*
X161679794Y-133836773D01*
X161679785Y-133836777D01*
X161469706Y-133958067D01*
X161277263Y-134105733D01*
X161277256Y-134105739D01*
X161105739Y-134277256D01*
X161105733Y-134277263D01*
X160958067Y-134469706D01*
X160836777Y-134679785D01*
X160836773Y-134679794D01*
X160743947Y-134903895D01*
X160681161Y-135138214D01*
X160649500Y-135378711D01*
X158700500Y-135378711D01*
X158700500Y-134700884D01*
X158685533Y-134587198D01*
X158626939Y-134445741D01*
X158533731Y-134324269D01*
X158412259Y-134231061D01*
X158412258Y-134231060D01*
X158316131Y-134191243D01*
X158270802Y-134172467D01*
X158256591Y-134170596D01*
X158157123Y-134157500D01*
X158157116Y-134157500D01*
X154842884Y-134157500D01*
X154842876Y-134157500D01*
X154729198Y-134172467D01*
X154729197Y-134172467D01*
X154587741Y-134231060D01*
X154466269Y-134324269D01*
X154373060Y-134445741D01*
X154314467Y-134587197D01*
X154314467Y-134587198D01*
X154299500Y-134700876D01*
X154299322Y-134703607D01*
X154299040Y-134704376D01*
X154298970Y-134704909D01*
X154298850Y-134704893D01*
X154275297Y-134769216D01*
X154219614Y-134811421D01*
X154175587Y-134819500D01*
X152626391Y-134819500D01*
X152621522Y-134819404D01*
X152225471Y-134803840D01*
X152215765Y-134803076D01*
X151824570Y-134756773D01*
X151814953Y-134755250D01*
X151428589Y-134678396D01*
X151419122Y-134676123D01*
X151370443Y-134662394D01*
X151039993Y-134569195D01*
X151030734Y-134566188D01*
X150661143Y-134429837D01*
X150652148Y-134426111D01*
X150294397Y-134261185D01*
X150285722Y-134256764D01*
X149942034Y-134064289D01*
X149933732Y-134059202D01*
X149606188Y-133840344D01*
X149598311Y-133834621D01*
X149433933Y-133705036D01*
X149288946Y-133590737D01*
X149281546Y-133584417D01*
X149236199Y-133542499D01*
X149055790Y-133375730D01*
X148990277Y-133315170D01*
X148986766Y-133311794D01*
X148950720Y-133275747D01*
X148950697Y-133275726D01*
X147835847Y-132160876D01*
X154299500Y-132160876D01*
X154299500Y-132999123D01*
X154314467Y-133112801D01*
X154314467Y-133112802D01*
X154373060Y-133254258D01*
X154373061Y-133254259D01*
X154466269Y-133375731D01*
X154587741Y-133468939D01*
X154729198Y-133527533D01*
X154842884Y-133542500D01*
X154842891Y-133542500D01*
X158157109Y-133542500D01*
X158157116Y-133542500D01*
X158270802Y-133527533D01*
X158412259Y-133468939D01*
X158533731Y-133375731D01*
X158626939Y-133254259D01*
X158685533Y-133112802D01*
X158700500Y-132999116D01*
X158700500Y-132160884D01*
X158685533Y-132047198D01*
X158626939Y-131905741D01*
X158533731Y-131784269D01*
X158412259Y-131691061D01*
X158412258Y-131691060D01*
X158329395Y-131656737D01*
X158270802Y-131632467D01*
X158256591Y-131630596D01*
X158157123Y-131617500D01*
X158157116Y-131617500D01*
X154842884Y-131617500D01*
X154842876Y-131617500D01*
X154729198Y-131632467D01*
X154729197Y-131632467D01*
X154587741Y-131691060D01*
X154466269Y-131784269D01*
X154373060Y-131905741D01*
X154314467Y-132047197D01*
X154314467Y-132047198D01*
X154299500Y-132160876D01*
X147835847Y-132160876D01*
X143888225Y-128213254D01*
X152949497Y-128213254D01*
X152949497Y-128381193D01*
X152975602Y-128612869D01*
X152975604Y-128612881D01*
X153027486Y-128840194D01*
X153027490Y-128840206D01*
X153104492Y-129060263D01*
X153104494Y-129060267D01*
X153104495Y-129060270D01*
X153132244Y-129117890D01*
X153205660Y-129270340D01*
X153232374Y-129312854D01*
X153329708Y-129467760D01*
X153418936Y-129579648D01*
X153475080Y-129650050D01*
X153519518Y-129694488D01*
X153519539Y-129694511D01*
X153557513Y-129732485D01*
X153598223Y-129773194D01*
X153598255Y-129773221D01*
X153639951Y-129814917D01*
X153822242Y-129960289D01*
X154019662Y-130084337D01*
X154229302Y-130185295D01*
X154281161Y-130232118D01*
X154299500Y-130297015D01*
X154299500Y-130459123D01*
X154314467Y-130572801D01*
X154314467Y-130572802D01*
X154373060Y-130714258D01*
X154373061Y-130714259D01*
X154466269Y-130835731D01*
X154587741Y-130928939D01*
X154729198Y-130987533D01*
X154842884Y-131002500D01*
X154842891Y-131002500D01*
X158157109Y-131002500D01*
X158157116Y-131002500D01*
X158270802Y-130987533D01*
X158412259Y-130928939D01*
X158533731Y-130835731D01*
X158626939Y-130714259D01*
X158685533Y-130572802D01*
X158700500Y-130459116D01*
X158700500Y-129620884D01*
X158685533Y-129507198D01*
X158626939Y-129365741D01*
X158533731Y-129244269D01*
X158412259Y-129151061D01*
X158412258Y-129151060D01*
X158329395Y-129116737D01*
X158270802Y-129092467D01*
X158256591Y-129090596D01*
X158157123Y-129077500D01*
X158157116Y-129077500D01*
X154842884Y-129077500D01*
X154842876Y-129077500D01*
X154729198Y-129092467D01*
X154729197Y-129092467D01*
X154587741Y-129151060D01*
X154466269Y-129244269D01*
X154373059Y-129365742D01*
X154355280Y-129408664D01*
X154311438Y-129463067D01*
X154245143Y-129485130D01*
X154177444Y-129467849D01*
X154171829Y-129464311D01*
X154134294Y-129439231D01*
X154121426Y-129429357D01*
X153988580Y-129312854D01*
X153977111Y-129301385D01*
X153860637Y-129168572D01*
X153850763Y-129155703D01*
X153752615Y-129008813D01*
X153744505Y-128994767D01*
X153666363Y-128836312D01*
X153660158Y-128821334D01*
X153603360Y-128654015D01*
X153599170Y-128638375D01*
X153564700Y-128465083D01*
X153562584Y-128449008D01*
X153562487Y-128447533D01*
X153550766Y-128268709D01*
X153550500Y-128260599D01*
X153550500Y-127080876D01*
X154299500Y-127080876D01*
X154299500Y-127919123D01*
X154314467Y-128032801D01*
X154314467Y-128032802D01*
X154373060Y-128174258D01*
X154373061Y-128174259D01*
X154466269Y-128295731D01*
X154587741Y-128388939D01*
X154729198Y-128447533D01*
X154842884Y-128462500D01*
X154842891Y-128462500D01*
X158157109Y-128462500D01*
X158157116Y-128462500D01*
X158270802Y-128447533D01*
X158412259Y-128388939D01*
X158533731Y-128295731D01*
X158626939Y-128174259D01*
X158685533Y-128032802D01*
X158700500Y-127919116D01*
X158700500Y-127275832D01*
X158720185Y-127208793D01*
X158736806Y-127188163D01*
X158742808Y-127182162D01*
X158742811Y-127182160D01*
X158761854Y-127163116D01*
X158776467Y-127148504D01*
X158776467Y-127148502D01*
X158786670Y-127138300D01*
X158786673Y-127138295D01*
X159365460Y-126559510D01*
X159365461Y-126559507D01*
X159372510Y-126552459D01*
X159372532Y-126552433D01*
X159465343Y-126459623D01*
X159697802Y-126182589D01*
X159905232Y-125886349D01*
X160086054Y-125573157D01*
X160238891Y-125245398D01*
X160362580Y-124905565D01*
X160456181Y-124556246D01*
X160518980Y-124200097D01*
X160550500Y-123839831D01*
X160550500Y-123659010D01*
X160550500Y-123611415D01*
X160550500Y-123611414D01*
X160550500Y-114047056D01*
X160550649Y-114040972D01*
X160563797Y-113773334D01*
X160564990Y-113761224D01*
X160581044Y-113652993D01*
X160603859Y-113499185D01*
X160606232Y-113487256D01*
X160629548Y-113394174D01*
X160670601Y-113230280D01*
X160674122Y-113218669D01*
X160763379Y-112969212D01*
X160768030Y-112957987D01*
X160881292Y-112718518D01*
X160887027Y-112707787D01*
X160958269Y-112588926D01*
X161023221Y-112480559D01*
X161029961Y-112470471D01*
X161187787Y-112257668D01*
X161195490Y-112248282D01*
X161375400Y-112049782D01*
X161379583Y-112045389D01*
X161428573Y-111996397D01*
X161428573Y-111996396D01*
X161827733Y-111597235D01*
X161827740Y-111597231D01*
X161875386Y-111549584D01*
X161882522Y-111542986D01*
X162004082Y-111439163D01*
X162019803Y-111427741D01*
X162141502Y-111353163D01*
X162208947Y-111334919D01*
X162275549Y-111356035D01*
X162315649Y-111400437D01*
X162372315Y-111506450D01*
X162404888Y-111546141D01*
X162503589Y-111666410D01*
X162595055Y-111741473D01*
X162663550Y-111797685D01*
X162846046Y-111895232D01*
X162912551Y-111915405D01*
X162970989Y-111953702D01*
X162999446Y-112017514D01*
X162988887Y-112086581D01*
X162942663Y-112138975D01*
X162908650Y-112153841D01*
X162786514Y-112186567D01*
X162786507Y-112186570D01*
X162572422Y-112286399D01*
X162572420Y-112286400D01*
X162378926Y-112421886D01*
X162378920Y-112421891D01*
X162211891Y-112588920D01*
X162211886Y-112588926D01*
X162076400Y-112782420D01*
X162076399Y-112782422D01*
X161976570Y-112996507D01*
X161976567Y-112996513D01*
X161919364Y-113209999D01*
X161919364Y-113210000D01*
X162816988Y-113210000D01*
X162784075Y-113267007D01*
X162750000Y-113394174D01*
X162750000Y-113525826D01*
X162784075Y-113652993D01*
X162816988Y-113710000D01*
X161919364Y-113710000D01*
X161976567Y-113923486D01*
X161976570Y-113923492D01*
X162076399Y-114137578D01*
X162211894Y-114331082D01*
X162378917Y-114498105D01*
X162572421Y-114633600D01*
X162742948Y-114713118D01*
X162795387Y-114759290D01*
X162814539Y-114826484D01*
X162794323Y-114893365D01*
X162741158Y-114938700D01*
X162690543Y-114949500D01*
X162380247Y-114949500D01*
X162321770Y-114961131D01*
X162321769Y-114961132D01*
X162255447Y-115005447D01*
X162211132Y-115071769D01*
X162211131Y-115071770D01*
X162199500Y-115130247D01*
X162199500Y-116869752D01*
X162211131Y-116928229D01*
X162211132Y-116928230D01*
X162255447Y-116994552D01*
X162321769Y-117038867D01*
X162321770Y-117038868D01*
X162380247Y-117050499D01*
X162380250Y-117050500D01*
X162380252Y-117050500D01*
X164119750Y-117050500D01*
X164119751Y-117050499D01*
X164134568Y-117047552D01*
X164178229Y-117038868D01*
X164178229Y-117038867D01*
X164178231Y-117038867D01*
X164244552Y-116994552D01*
X164288867Y-116928231D01*
X164288867Y-116928229D01*
X164288868Y-116928229D01*
X164300499Y-116869752D01*
X164300500Y-116869750D01*
X164300500Y-115130249D01*
X164300499Y-115130247D01*
X164288868Y-115071770D01*
X164288867Y-115071769D01*
X164244552Y-115005447D01*
X164178230Y-114961132D01*
X164178229Y-114961131D01*
X164119752Y-114949500D01*
X164119748Y-114949500D01*
X163809457Y-114949500D01*
X163742418Y-114929815D01*
X163696663Y-114877011D01*
X163686719Y-114807853D01*
X163715744Y-114744297D01*
X163757052Y-114713118D01*
X163927578Y-114633600D01*
X164121082Y-114498105D01*
X164288105Y-114331082D01*
X164423600Y-114137578D01*
X164523429Y-113923492D01*
X164523432Y-113923486D01*
X164580636Y-113710000D01*
X163683012Y-113710000D01*
X163715925Y-113652993D01*
X163750000Y-113525826D01*
X163750000Y-113394174D01*
X163715925Y-113267007D01*
X163683012Y-113210000D01*
X164580636Y-113210000D01*
X164580635Y-113209999D01*
X164523432Y-112996513D01*
X164523429Y-112996507D01*
X164423600Y-112782422D01*
X164423599Y-112782420D01*
X164288113Y-112588926D01*
X164288108Y-112588920D01*
X164121082Y-112421894D01*
X163927578Y-112286399D01*
X163713492Y-112186570D01*
X163713486Y-112186567D01*
X163591349Y-112153841D01*
X163531689Y-112117476D01*
X163501160Y-112054629D01*
X163509455Y-111985253D01*
X163553940Y-111931375D01*
X163587444Y-111915407D01*
X163653954Y-111895232D01*
X163836450Y-111797685D01*
X163996410Y-111666410D01*
X164127685Y-111506450D01*
X164225232Y-111323954D01*
X164285300Y-111125934D01*
X164305583Y-110920000D01*
X164285300Y-110714066D01*
X164225232Y-110516046D01*
X164127685Y-110333550D01*
X164061082Y-110252393D01*
X163996410Y-110173589D01*
X163836452Y-110042317D01*
X163836453Y-110042317D01*
X163836450Y-110042315D01*
X163653954Y-109944768D01*
X163455934Y-109884700D01*
X163455932Y-109884699D01*
X163455934Y-109884699D01*
X163250000Y-109864417D01*
X163044067Y-109884699D01*
X162846043Y-109944769D01*
X162735898Y-110003643D01*
X162663550Y-110042315D01*
X162663548Y-110042316D01*
X162663547Y-110042317D01*
X162503589Y-110173589D01*
X162372317Y-110333547D01*
X162372315Y-110333550D01*
X162331061Y-110410730D01*
X162274768Y-110516045D01*
X162246038Y-110610751D01*
X162207740Y-110669189D01*
X162159474Y-110694528D01*
X162113256Y-110706913D01*
X161905809Y-110792841D01*
X161711361Y-110905107D01*
X161533234Y-111041792D01*
X161533231Y-111041795D01*
X161481830Y-111093197D01*
X160988835Y-111586194D01*
X160988830Y-111586196D01*
X160833552Y-111741473D01*
X160620102Y-112001562D01*
X160620092Y-112001576D01*
X160433169Y-112281326D01*
X160433158Y-112281344D01*
X160274558Y-112578066D01*
X160274551Y-112578080D01*
X160145793Y-112888930D01*
X160048118Y-113210924D01*
X160048115Y-113210935D01*
X159982478Y-113540920D01*
X159960212Y-113767007D01*
X159951044Y-113860099D01*
X159949500Y-113875773D01*
X159949500Y-123655955D01*
X159949351Y-123662040D01*
X159932749Y-123999955D01*
X159931556Y-124012065D01*
X159882362Y-124343696D01*
X159879988Y-124355631D01*
X159798524Y-124680853D01*
X159794992Y-124692497D01*
X159734434Y-124861746D01*
X159685598Y-124998235D01*
X159682049Y-125008153D01*
X159677392Y-125019396D01*
X159534043Y-125322480D01*
X159528306Y-125333212D01*
X159355951Y-125620768D01*
X159349191Y-125630886D01*
X159149468Y-125900181D01*
X159141748Y-125909587D01*
X158914531Y-126160283D01*
X158910339Y-126164686D01*
X158892443Y-126182584D01*
X158892438Y-126182589D01*
X158507408Y-126567618D01*
X158446085Y-126601103D01*
X158376393Y-126596119D01*
X158372275Y-126594498D01*
X158270805Y-126552468D01*
X158270803Y-126552467D01*
X158270802Y-126552467D01*
X158256591Y-126550596D01*
X158157123Y-126537500D01*
X158157116Y-126537500D01*
X154842884Y-126537500D01*
X154842876Y-126537500D01*
X154729198Y-126552467D01*
X154729197Y-126552467D01*
X154587741Y-126611060D01*
X154466269Y-126704269D01*
X154373060Y-126825741D01*
X154314467Y-126967197D01*
X154314467Y-126967198D01*
X154299500Y-127080876D01*
X153550500Y-127080876D01*
X153550500Y-124540876D01*
X154299500Y-124540876D01*
X154299500Y-125379123D01*
X154314467Y-125492801D01*
X154314467Y-125492802D01*
X154373060Y-125634258D01*
X154373061Y-125634259D01*
X154466269Y-125755731D01*
X154587741Y-125848939D01*
X154729198Y-125907533D01*
X154842884Y-125922500D01*
X154842891Y-125922500D01*
X158157109Y-125922500D01*
X158157116Y-125922500D01*
X158270802Y-125907533D01*
X158412259Y-125848939D01*
X158533731Y-125755731D01*
X158626939Y-125634259D01*
X158685533Y-125492802D01*
X158700500Y-125379116D01*
X158700500Y-124540884D01*
X158685533Y-124427198D01*
X158626939Y-124285741D01*
X158533731Y-124164269D01*
X158412259Y-124071061D01*
X158412258Y-124071060D01*
X158309711Y-124028584D01*
X158270802Y-124012467D01*
X158256591Y-124010596D01*
X158157123Y-123997500D01*
X158157116Y-123997500D01*
X154842884Y-123997500D01*
X154842876Y-123997500D01*
X154729198Y-124012467D01*
X154729197Y-124012467D01*
X154587741Y-124071060D01*
X154466269Y-124164269D01*
X154373060Y-124285741D01*
X154314467Y-124427197D01*
X154314467Y-124427198D01*
X154299500Y-124540876D01*
X153550500Y-124540876D01*
X153550500Y-122000876D01*
X154299500Y-122000876D01*
X154299500Y-122839123D01*
X154314467Y-122952801D01*
X154314467Y-122952802D01*
X154373060Y-123094258D01*
X154373061Y-123094259D01*
X154466269Y-123215731D01*
X154587741Y-123308939D01*
X154729198Y-123367533D01*
X154842884Y-123382500D01*
X154842891Y-123382500D01*
X158157109Y-123382500D01*
X158157116Y-123382500D01*
X158270802Y-123367533D01*
X158412259Y-123308939D01*
X158533731Y-123215731D01*
X158626939Y-123094259D01*
X158685533Y-122952802D01*
X158700500Y-122839116D01*
X158700500Y-122000884D01*
X158685533Y-121887198D01*
X158626939Y-121745741D01*
X158533731Y-121624269D01*
X158412259Y-121531061D01*
X158412258Y-121531060D01*
X158329395Y-121496737D01*
X158270802Y-121472467D01*
X158256591Y-121470596D01*
X158157123Y-121457500D01*
X158157116Y-121457500D01*
X154842884Y-121457500D01*
X154842876Y-121457500D01*
X154729198Y-121472467D01*
X154729197Y-121472467D01*
X154587741Y-121531060D01*
X154466269Y-121624269D01*
X154373060Y-121745741D01*
X154314467Y-121887197D01*
X154314467Y-121887198D01*
X154299500Y-122000876D01*
X153550500Y-122000876D01*
X153550500Y-119460876D01*
X154299500Y-119460876D01*
X154299500Y-120299123D01*
X154314467Y-120412801D01*
X154314467Y-120412802D01*
X154373060Y-120554258D01*
X154373061Y-120554259D01*
X154466269Y-120675731D01*
X154587741Y-120768939D01*
X154729198Y-120827533D01*
X154842884Y-120842500D01*
X154842891Y-120842500D01*
X158157109Y-120842500D01*
X158157116Y-120842500D01*
X158270802Y-120827533D01*
X158412259Y-120768939D01*
X158533731Y-120675731D01*
X158626939Y-120554259D01*
X158685533Y-120412802D01*
X158700500Y-120299116D01*
X158700500Y-119460884D01*
X158685533Y-119347198D01*
X158626939Y-119205741D01*
X158533731Y-119084269D01*
X158429071Y-119003961D01*
X158412258Y-118991060D01*
X158329395Y-118956737D01*
X158270802Y-118932467D01*
X158256591Y-118930596D01*
X158157123Y-118917500D01*
X158157116Y-118917500D01*
X154842884Y-118917500D01*
X154842876Y-118917500D01*
X154729198Y-118932467D01*
X154729197Y-118932467D01*
X154587741Y-118991060D01*
X154466269Y-119084269D01*
X154373060Y-119205741D01*
X154314467Y-119347197D01*
X154314467Y-119347198D01*
X154299500Y-119460876D01*
X153550500Y-119460876D01*
X153550500Y-119006387D01*
X153550596Y-119001518D01*
X153551007Y-118991060D01*
X153566160Y-118605453D01*
X153566921Y-118595785D01*
X153613229Y-118204548D01*
X153614744Y-118194985D01*
X153691607Y-117808587D01*
X153693878Y-117799129D01*
X153800810Y-117419989D01*
X153803819Y-117410730D01*
X153936718Y-117050500D01*
X153940171Y-117041139D01*
X153943883Y-117032178D01*
X154108821Y-116674406D01*
X154113229Y-116665755D01*
X154305724Y-116322039D01*
X154310800Y-116313755D01*
X154529680Y-115986185D01*
X154535390Y-115978328D01*
X154779279Y-115668963D01*
X154785590Y-115661573D01*
X155055374Y-115369729D01*
X155058725Y-115366245D01*
X155089930Y-115335041D01*
X155089930Y-115335039D01*
X155100133Y-115324837D01*
X155100136Y-115324832D01*
X161253332Y-109171637D01*
X161259240Y-109166105D01*
X161324772Y-109108636D01*
X161414030Y-109030358D01*
X161426889Y-109020490D01*
X161594707Y-108908359D01*
X161608742Y-108900257D01*
X161789759Y-108810989D01*
X161804706Y-108804797D01*
X161995854Y-108739912D01*
X162011487Y-108735724D01*
X162136464Y-108710865D01*
X162206052Y-108717092D01*
X162261230Y-108759955D01*
X162271681Y-108778695D01*
X162271896Y-108778581D01*
X162274768Y-108783954D01*
X162372315Y-108966450D01*
X162406969Y-109008677D01*
X162503589Y-109126410D01*
X162588537Y-109196124D01*
X162663550Y-109257685D01*
X162846046Y-109355232D01*
X163044066Y-109415300D01*
X163044065Y-109415300D01*
X163062529Y-109417118D01*
X163250000Y-109435583D01*
X163455934Y-109415300D01*
X163653954Y-109355232D01*
X163836450Y-109257685D01*
X163996410Y-109126410D01*
X164127685Y-108966450D01*
X164225232Y-108783954D01*
X164285300Y-108585934D01*
X164305583Y-108380000D01*
X164285300Y-108174066D01*
X164225232Y-107976046D01*
X164127685Y-107793550D01*
X164075702Y-107730209D01*
X163996410Y-107633589D01*
X163836452Y-107502317D01*
X163836453Y-107502317D01*
X163836450Y-107502315D01*
X163653954Y-107404768D01*
X163455934Y-107344700D01*
X163455932Y-107344699D01*
X163455934Y-107344699D01*
X163250000Y-107324417D01*
X163044067Y-107344699D01*
X162846043Y-107404769D01*
X162735898Y-107463643D01*
X162663550Y-107502315D01*
X162663548Y-107502316D01*
X162663547Y-107502317D01*
X162503589Y-107633589D01*
X162372317Y-107793547D01*
X162274768Y-107976045D01*
X162264798Y-108008911D01*
X162226500Y-108067349D01*
X162162687Y-108095805D01*
X162160022Y-108096134D01*
X162054496Y-108108024D01*
X162054480Y-108108026D01*
X161806130Y-108164710D01*
X161806124Y-108164712D01*
X161565672Y-108248848D01*
X161565668Y-108248850D01*
X161336162Y-108359373D01*
X161120456Y-108494910D01*
X161120443Y-108494919D01*
X160921294Y-108653734D01*
X160831223Y-108743805D01*
X160797567Y-108777460D01*
X154597929Y-114977098D01*
X154597527Y-114977555D01*
X154471817Y-115103264D01*
X154471802Y-115103280D01*
X154178775Y-115446364D01*
X154178759Y-115446384D01*
X153913567Y-115811381D01*
X153913550Y-115811407D01*
X153677790Y-116196124D01*
X153677780Y-116196141D01*
X153472945Y-116598142D01*
X153472939Y-116598157D01*
X153300264Y-117015021D01*
X153160832Y-117444137D01*
X153160831Y-117444141D01*
X153073331Y-117808596D01*
X153055494Y-117882888D01*
X152984907Y-118328536D01*
X152949502Y-118778351D01*
X152949501Y-118778363D01*
X152949500Y-119003959D01*
X152949500Y-119003960D01*
X152949499Y-119061543D01*
X152949500Y-119061556D01*
X152949500Y-128213244D01*
X152949497Y-128213254D01*
X143888225Y-128213254D01*
X143539395Y-127864424D01*
X143505910Y-127803101D01*
X143504339Y-127759094D01*
X143505647Y-127750000D01*
X143485165Y-127607543D01*
X143425377Y-127476627D01*
X143331128Y-127367857D01*
X143210053Y-127290047D01*
X143210051Y-127290046D01*
X143210049Y-127290045D01*
X143210050Y-127290045D01*
X143071963Y-127249500D01*
X143071961Y-127249500D01*
X142928039Y-127249500D01*
X142928036Y-127249500D01*
X142789949Y-127290045D01*
X142668873Y-127367856D01*
X142574623Y-127476626D01*
X142574622Y-127476628D01*
X142514834Y-127607543D01*
X142494353Y-127750000D01*
X140700500Y-127750000D01*
X140700500Y-127623780D01*
X140720185Y-127556741D01*
X140770699Y-127512059D01*
X140795529Y-127500103D01*
X141027044Y-127354632D01*
X141240815Y-127184155D01*
X141293620Y-127131349D01*
X141293623Y-127131347D01*
X141303830Y-127121140D01*
X141303831Y-127121140D01*
X141337486Y-127087486D01*
X141371140Y-127053831D01*
X141371140Y-127053829D01*
X141378648Y-127046322D01*
X141378695Y-127046266D01*
X141434151Y-126990811D01*
X141604628Y-126777040D01*
X141750098Y-126545527D01*
X141868733Y-126299181D01*
X141959040Y-126041102D01*
X142019884Y-125774534D01*
X142050499Y-125502830D01*
X142050500Y-125366118D01*
X142050501Y-125318524D01*
X142050500Y-125318520D01*
X142050500Y-120000000D01*
X142500000Y-120000000D01*
X152500000Y-120000000D01*
X152500000Y-115000000D01*
X142500000Y-115000000D01*
X142500000Y-120000000D01*
X142050500Y-120000000D01*
X142050500Y-112006387D01*
X142050596Y-112001518D01*
X142058606Y-111797682D01*
X142066160Y-111605453D01*
X142066921Y-111595785D01*
X142113229Y-111204548D01*
X142114744Y-111194985D01*
X142191607Y-110808587D01*
X142193878Y-110799129D01*
X142195652Y-110792841D01*
X142300810Y-110419986D01*
X142303819Y-110410730D01*
X142362234Y-110252393D01*
X142440171Y-110041139D01*
X142443883Y-110032178D01*
X142608821Y-109674406D01*
X142613229Y-109665755D01*
X142805724Y-109322039D01*
X142810800Y-109313755D01*
X143029680Y-108986185D01*
X143035390Y-108978328D01*
X143044753Y-108966452D01*
X143226649Y-108735722D01*
X143279279Y-108668963D01*
X143285590Y-108661573D01*
X143555374Y-108369729D01*
X143558725Y-108366245D01*
X143565597Y-108359373D01*
X143589930Y-108335041D01*
X143589930Y-108335039D01*
X143600133Y-108324837D01*
X143600136Y-108324832D01*
X154136906Y-97788064D01*
X154136906Y-97788063D01*
X154147115Y-97777855D01*
X154147118Y-97777849D01*
X154178802Y-97746167D01*
X154299111Y-97589379D01*
X154352952Y-97496121D01*
X154403516Y-97447908D01*
X154437549Y-97436235D01*
X154579940Y-97409618D01*
X154787401Y-97329247D01*
X154976562Y-97212124D01*
X155140981Y-97062236D01*
X155275058Y-96884689D01*
X155374229Y-96685528D01*
X155435115Y-96471536D01*
X155455643Y-96250000D01*
X155449858Y-96187574D01*
X155435115Y-96028464D01*
X155435114Y-96028462D01*
X155412647Y-95949500D01*
X155374229Y-95814472D01*
X155371338Y-95808666D01*
X155275061Y-95615316D01*
X155275056Y-95615308D01*
X155140979Y-95437761D01*
X154976562Y-95287876D01*
X154976560Y-95287874D01*
X154787404Y-95170754D01*
X154787398Y-95170752D01*
X154579940Y-95090382D01*
X154361243Y-95049500D01*
X154138757Y-95049500D01*
X153920060Y-95090382D01*
X153788864Y-95141207D01*
X153712601Y-95170752D01*
X153712595Y-95170754D01*
X153523439Y-95287874D01*
X153523437Y-95287876D01*
X153359020Y-95437761D01*
X153224943Y-95615308D01*
X153224936Y-95615320D01*
X153125774Y-95814465D01*
X153125770Y-95814474D01*
X153112978Y-95859435D01*
X153075698Y-95918528D01*
X153012389Y-95948085D01*
X152993712Y-95949500D01*
X152002425Y-95949500D01*
X151997557Y-95949404D01*
X151963987Y-95948085D01*
X151602267Y-95933872D01*
X151592562Y-95933109D01*
X151202085Y-95886894D01*
X151192468Y-95885370D01*
X150806854Y-95808666D01*
X150797387Y-95806393D01*
X150418981Y-95699672D01*
X150409721Y-95696664D01*
X150040839Y-95560577D01*
X150031843Y-95556851D01*
X149674779Y-95392243D01*
X149666104Y-95387822D01*
X149323051Y-95195703D01*
X149314750Y-95190616D01*
X148987832Y-94972178D01*
X148979977Y-94966472D01*
X148671187Y-94723042D01*
X148663792Y-94716726D01*
X148373394Y-94448287D01*
X148369883Y-94444911D01*
X148333522Y-94408549D01*
X148333499Y-94408528D01*
X145174965Y-91249994D01*
X152744859Y-91249994D01*
X152744859Y-91250005D01*
X152765385Y-91497729D01*
X152765387Y-91497738D01*
X152826412Y-91738717D01*
X152926267Y-91966367D01*
X153026562Y-92119881D01*
X153767037Y-91379408D01*
X153784075Y-91442993D01*
X153849901Y-91557007D01*
X153942993Y-91650099D01*
X154057007Y-91715925D01*
X154120591Y-91732962D01*
X153379943Y-92473609D01*
X153426768Y-92510055D01*
X153426771Y-92510057D01*
X153645385Y-92628364D01*
X153645396Y-92628369D01*
X153880506Y-92709083D01*
X154125707Y-92750000D01*
X154374293Y-92750000D01*
X154619493Y-92709083D01*
X154854603Y-92628369D01*
X154854614Y-92628364D01*
X155073230Y-92510056D01*
X155073236Y-92510051D01*
X155120055Y-92473610D01*
X155120056Y-92473609D01*
X154379408Y-91732962D01*
X154442993Y-91715925D01*
X154557007Y-91650099D01*
X154650099Y-91557007D01*
X154715925Y-91442993D01*
X154732962Y-91379409D01*
X155473435Y-92119882D01*
X155573733Y-91966364D01*
X155673587Y-91738717D01*
X155734612Y-91497738D01*
X155734614Y-91497729D01*
X155755141Y-91250005D01*
X155755141Y-91249994D01*
X155734614Y-91002270D01*
X155734612Y-91002261D01*
X155673587Y-90761282D01*
X155573732Y-90533632D01*
X155473435Y-90380116D01*
X154732962Y-91120590D01*
X154715925Y-91057007D01*
X154650099Y-90942993D01*
X154557007Y-90849901D01*
X154442993Y-90784075D01*
X154379409Y-90767037D01*
X155120055Y-90026389D01*
X155120055Y-90026388D01*
X155073236Y-89989947D01*
X155073231Y-89989944D01*
X154854614Y-89871635D01*
X154854603Y-89871630D01*
X154619493Y-89790916D01*
X154374293Y-89750000D01*
X154125707Y-89750000D01*
X153880506Y-89790916D01*
X153645396Y-89871630D01*
X153645385Y-89871635D01*
X153426770Y-89989943D01*
X153379943Y-90026389D01*
X154120591Y-90767037D01*
X154057007Y-90784075D01*
X153942993Y-90849901D01*
X153849901Y-90942993D01*
X153784075Y-91057007D01*
X153767037Y-91120591D01*
X153026563Y-90380117D01*
X152926267Y-90533633D01*
X152926265Y-90533637D01*
X152826412Y-90761282D01*
X152765387Y-91002261D01*
X152765385Y-91002270D01*
X152744859Y-91249994D01*
X145174965Y-91249994D01*
X144347001Y-90422030D01*
X144346999Y-90422027D01*
X144306283Y-90381311D01*
X144306277Y-90381306D01*
X144278303Y-90353332D01*
X144278302Y-90353331D01*
X144272640Y-90347669D01*
X144272509Y-90347554D01*
X144146749Y-90221794D01*
X144146742Y-90221787D01*
X144146734Y-90221780D01*
X144146723Y-90221770D01*
X143803657Y-89928765D01*
X143803630Y-89928744D01*
X143523850Y-89725472D01*
X143438601Y-89663535D01*
X143438598Y-89663533D01*
X143438591Y-89663528D01*
X143053897Y-89427787D01*
X143053886Y-89427781D01*
X143053885Y-89427780D01*
X143053881Y-89427778D01*
X142651850Y-89222932D01*
X142651836Y-89222926D01*
X142234998Y-89050265D01*
X142234991Y-89050262D01*
X142234987Y-89050261D01*
X141805860Y-88910828D01*
X141367117Y-88805493D01*
X141367109Y-88805491D01*
X140921470Y-88734907D01*
X140921454Y-88734905D01*
X140471647Y-88699502D01*
X140471635Y-88699501D01*
X140285599Y-88699500D01*
X140285598Y-88699500D01*
X140246039Y-88699500D01*
X140246033Y-88699499D01*
X140198443Y-88699499D01*
X140198442Y-88699499D01*
X140188455Y-88699499D01*
X140188443Y-88699500D01*
X136296328Y-88699500D01*
X136229289Y-88679815D01*
X136183534Y-88627011D01*
X136181212Y-88620868D01*
X136181144Y-88620897D01*
X136178814Y-88615273D01*
X136085913Y-88441467D01*
X136085909Y-88441460D01*
X135960883Y-88289116D01*
X135808539Y-88164090D01*
X135808532Y-88164086D01*
X135634733Y-88071188D01*
X135634727Y-88071186D01*
X135446132Y-88013976D01*
X135446129Y-88013975D01*
X135250000Y-87994659D01*
X135053870Y-88013975D01*
X134865266Y-88071188D01*
X134691467Y-88164086D01*
X134691460Y-88164090D01*
X134539116Y-88289116D01*
X134414090Y-88441460D01*
X134414086Y-88441467D01*
X134321188Y-88615266D01*
X134263975Y-88803870D01*
X134244659Y-89000000D01*
X131554966Y-89000000D01*
X131554966Y-88999997D01*
X131535141Y-88773400D01*
X131535139Y-88773389D01*
X131476269Y-88553682D01*
X131476264Y-88553668D01*
X131380136Y-88347521D01*
X131380132Y-88347513D01*
X131329025Y-88274526D01*
X130650000Y-88953551D01*
X130650000Y-88947339D01*
X130622741Y-88845606D01*
X130570080Y-88754394D01*
X130495606Y-88679920D01*
X130404394Y-88627259D01*
X130302661Y-88600000D01*
X130296445Y-88600000D01*
X130975472Y-87920974D01*
X130902478Y-87869863D01*
X130696331Y-87773735D01*
X130696317Y-87773730D01*
X130476610Y-87714860D01*
X130476599Y-87714858D01*
X130250002Y-87695034D01*
X130249998Y-87695034D01*
X130023400Y-87714858D01*
X130023389Y-87714860D01*
X129803682Y-87773730D01*
X129803673Y-87773734D01*
X129597516Y-87869866D01*
X129597512Y-87869868D01*
X129524526Y-87920973D01*
X129524526Y-87920974D01*
X130203553Y-88600000D01*
X130197339Y-88600000D01*
X130095606Y-88627259D01*
X130004394Y-88679920D01*
X129929920Y-88754394D01*
X129877259Y-88845606D01*
X129850000Y-88947339D01*
X129850000Y-88953552D01*
X129170974Y-88274526D01*
X129170973Y-88274526D01*
X129119868Y-88347512D01*
X129119866Y-88347516D01*
X129023734Y-88553673D01*
X129023730Y-88553682D01*
X128964860Y-88773389D01*
X128964858Y-88773400D01*
X128945034Y-88999997D01*
X126281805Y-88999997D01*
X126318838Y-88861789D01*
X126350500Y-88621288D01*
X126350500Y-88378712D01*
X126318838Y-88138211D01*
X126256054Y-87903900D01*
X126163224Y-87679788D01*
X126041936Y-87469711D01*
X125894265Y-87277262D01*
X125894260Y-87277256D01*
X125722743Y-87105739D01*
X125722736Y-87105733D01*
X125718073Y-87102155D01*
X145150000Y-87102155D01*
X145150000Y-87900000D01*
X145891759Y-87900000D01*
X145878822Y-87931233D01*
X145850000Y-88076131D01*
X145850000Y-88223869D01*
X145878822Y-88368767D01*
X145891759Y-88400000D01*
X145150000Y-88400000D01*
X145150000Y-89197844D01*
X145156401Y-89257372D01*
X145156403Y-89257379D01*
X145206645Y-89392086D01*
X145206649Y-89392093D01*
X145292809Y-89507187D01*
X145292812Y-89507190D01*
X145407906Y-89593350D01*
X145407913Y-89593354D01*
X145542620Y-89643596D01*
X145542627Y-89643598D01*
X145602155Y-89649999D01*
X145602172Y-89650000D01*
X147000000Y-89650000D01*
X147000000Y-88900000D01*
X147500000Y-88900000D01*
X147500000Y-89650000D01*
X148897828Y-89650000D01*
X148897844Y-89649999D01*
X148957372Y-89643598D01*
X148957379Y-89643596D01*
X149092086Y-89593354D01*
X149092093Y-89593350D01*
X149207187Y-89507190D01*
X149207190Y-89507187D01*
X149293350Y-89392093D01*
X149293354Y-89392086D01*
X149343596Y-89257379D01*
X149343598Y-89257372D01*
X149349999Y-89197844D01*
X149350000Y-89197827D01*
X149350000Y-88400000D01*
X148608241Y-88400000D01*
X148617059Y-88378711D01*
X160649500Y-88378711D01*
X160649500Y-88621288D01*
X160681161Y-88861785D01*
X160743947Y-89096104D01*
X160796479Y-89222926D01*
X160836776Y-89320212D01*
X160958064Y-89530289D01*
X160958066Y-89530292D01*
X160958067Y-89530293D01*
X161105733Y-89722736D01*
X161105739Y-89722743D01*
X161277256Y-89894260D01*
X161277262Y-89894265D01*
X161469711Y-90041936D01*
X161679788Y-90163224D01*
X161903900Y-90256054D01*
X162138211Y-90318838D01*
X162318586Y-90342584D01*
X162378711Y-90350500D01*
X162378712Y-90350500D01*
X162621289Y-90350500D01*
X162669388Y-90344167D01*
X162861789Y-90318838D01*
X163096100Y-90256054D01*
X163320212Y-90163224D01*
X163530289Y-90041936D01*
X163722738Y-89894265D01*
X163894265Y-89722738D01*
X164041936Y-89530289D01*
X164163224Y-89320212D01*
X164256054Y-89096100D01*
X164318838Y-88861789D01*
X164350500Y-88621288D01*
X164350500Y-88378712D01*
X164318838Y-88138211D01*
X164256054Y-87903900D01*
X164163224Y-87679788D01*
X164041936Y-87469711D01*
X163894265Y-87277262D01*
X163894260Y-87277256D01*
X163722743Y-87105739D01*
X163722736Y-87105733D01*
X163530293Y-86958067D01*
X163530292Y-86958066D01*
X163530289Y-86958064D01*
X163320212Y-86836776D01*
X163320205Y-86836773D01*
X163096104Y-86743947D01*
X162861785Y-86681161D01*
X162621289Y-86649500D01*
X162621288Y-86649500D01*
X162378712Y-86649500D01*
X162378711Y-86649500D01*
X162138214Y-86681161D01*
X161903895Y-86743947D01*
X161679794Y-86836773D01*
X161679785Y-86836777D01*
X161469706Y-86958067D01*
X161277263Y-87105733D01*
X161277256Y-87105739D01*
X161105739Y-87277256D01*
X161105733Y-87277263D01*
X160958067Y-87469706D01*
X160836777Y-87679785D01*
X160836773Y-87679794D01*
X160743947Y-87903895D01*
X160681161Y-88138214D01*
X160649500Y-88378711D01*
X148617059Y-88378711D01*
X148621178Y-88368767D01*
X148650000Y-88223869D01*
X148650000Y-88076131D01*
X148621178Y-87931233D01*
X148608241Y-87900000D01*
X149350000Y-87900000D01*
X149350000Y-87102172D01*
X149349999Y-87102155D01*
X149343598Y-87042627D01*
X149343596Y-87042620D01*
X149293354Y-86907913D01*
X149293350Y-86907906D01*
X149207190Y-86792812D01*
X149207187Y-86792809D01*
X149092093Y-86706649D01*
X149092086Y-86706645D01*
X148957379Y-86656403D01*
X148957372Y-86656401D01*
X148897844Y-86650000D01*
X147500000Y-86650000D01*
X147500000Y-87400000D01*
X147000000Y-87400000D01*
X147000000Y-86650000D01*
X145602155Y-86650000D01*
X145542627Y-86656401D01*
X145542620Y-86656403D01*
X145407913Y-86706645D01*
X145407906Y-86706649D01*
X145292812Y-86792809D01*
X145292809Y-86792812D01*
X145206649Y-86907906D01*
X145206645Y-86907913D01*
X145156403Y-87042620D01*
X145156401Y-87042627D01*
X145150000Y-87102155D01*
X125718073Y-87102155D01*
X125530293Y-86958067D01*
X125530292Y-86958066D01*
X125530289Y-86958064D01*
X125320212Y-86836776D01*
X125320205Y-86836773D01*
X125096104Y-86743947D01*
X124861785Y-86681161D01*
X124621289Y-86649500D01*
X124621288Y-86649500D01*
X124378712Y-86649500D01*
X124378711Y-86649500D01*
X124138214Y-86681161D01*
X123903895Y-86743947D01*
X123679794Y-86836773D01*
X123679785Y-86836777D01*
X123469706Y-86958067D01*
X123277263Y-87105733D01*
X123277256Y-87105739D01*
X123105739Y-87277256D01*
X123105733Y-87277263D01*
X122958067Y-87469706D01*
X122836777Y-87679785D01*
X122836773Y-87679794D01*
X122743947Y-87903895D01*
X122681161Y-88138214D01*
X122649500Y-88378711D01*
X121500500Y-88378711D01*
X121500500Y-85624500D01*
X121520185Y-85557461D01*
X121572989Y-85511706D01*
X121624500Y-85500500D01*
X165375500Y-85500500D01*
X165442539Y-85520185D01*
G37*
%TD.AperFunction*%
%TD*%
M02*
