%TF.GenerationSoftware,KiCad,Pcbnew,8.0.7*%
%TF.CreationDate,2025-01-02T11:10:57+09:00*%
%TF.ProjectId,rusty-hangulclock,72757374-792d-4686-916e-67756c636c6f,rev?*%
%TF.SameCoordinates,Original*%
%TF.FileFunction,Copper,L1,Top*%
%TF.FilePolarity,Positive*%
%FSLAX46Y46*%
G04 Gerber Fmt 4.6, Leading zero omitted, Abs format (unit mm)*
G04 Created by KiCad (PCBNEW 8.0.7) date 2025-01-02 11:10:57*
%MOMM*%
%LPD*%
G01*
G04 APERTURE LIST*
G04 Aperture macros list*
%AMRoundRect*
0 Rectangle with rounded corners*
0 $1 Rounding radius*
0 $2 $3 $4 $5 $6 $7 $8 $9 X,Y pos of 4 corners*
0 Add a 4 corners polygon primitive as box body*
4,1,4,$2,$3,$4,$5,$6,$7,$8,$9,$2,$3,0*
0 Add four circle primitives for the rounded corners*
1,1,$1+$1,$2,$3*
1,1,$1+$1,$4,$5*
1,1,$1+$1,$6,$7*
1,1,$1+$1,$8,$9*
0 Add four rect primitives between the rounded corners*
20,1,$1+$1,$2,$3,$4,$5,0*
20,1,$1+$1,$4,$5,$6,$7,0*
20,1,$1+$1,$6,$7,$8,$9,0*
20,1,$1+$1,$8,$9,$2,$3,0*%
G04 Aperture macros list end*
%TA.AperFunction,ComponentPad*%
%ADD10R,1.700000X1.700000*%
%TD*%
%TA.AperFunction,ComponentPad*%
%ADD11O,1.700000X1.700000*%
%TD*%
%TA.AperFunction,ComponentPad*%
%ADD12C,2.340000*%
%TD*%
%TA.AperFunction,ComponentPad*%
%ADD13R,1.800000X1.800000*%
%TD*%
%TA.AperFunction,ComponentPad*%
%ADD14C,1.800000*%
%TD*%
%TA.AperFunction,SMDPad,CuDef*%
%ADD15RoundRect,0.381000X-1.619000X-0.381000X1.619000X-0.381000X1.619000X0.381000X-1.619000X0.381000X0*%
%TD*%
%TA.AperFunction,ComponentPad*%
%ADD16C,1.400000*%
%TD*%
%TA.AperFunction,ComponentPad*%
%ADD17O,1.400000X1.400000*%
%TD*%
%TA.AperFunction,ComponentPad*%
%ADD18R,1.200000X1.200000*%
%TD*%
%TA.AperFunction,ComponentPad*%
%ADD19C,1.200000*%
%TD*%
%TA.AperFunction,ComponentPad*%
%ADD20C,2.000000*%
%TD*%
%TA.AperFunction,ViaPad*%
%ADD21C,0.600000*%
%TD*%
%TA.AperFunction,Conductor*%
%ADD22C,1.000000*%
%TD*%
%TA.AperFunction,Conductor*%
%ADD23C,0.200000*%
%TD*%
G04 APERTURE END LIST*
D10*
%TO.P,J1,1,Pin_1*%
%TO.N,+3V3*%
X126500000Y-123195000D03*
D11*
%TO.P,J1,2,Pin_2*%
%TO.N,GND*%
X126500000Y-120655000D03*
%TO.P,J1,3,Pin_3*%
%TO.N,Net-(J1-Pin_3)*%
X126500000Y-118115000D03*
%TO.P,J1,4,Pin_4*%
%TO.N,Net-(J1-Pin_4)*%
X126500000Y-115575000D03*
%TO.P,J1,5,Pin_5*%
%TO.N,Net-(J1-Pin_5)*%
X126500000Y-113035000D03*
%TD*%
D12*
%TO.P,RV1,1,1*%
%TO.N,+3V3*%
X137500000Y-121595000D03*
%TO.P,RV1,2,2*%
%TO.N,Net-(M1-P1)*%
X147500000Y-119095000D03*
%TO.P,RV1,3,3*%
%TO.N,GND*%
X137500000Y-116595000D03*
%TD*%
D13*
%TO.P,D1,1,K*%
%TO.N,GND*%
X131230000Y-97000000D03*
D14*
%TO.P,D1,2,A*%
%TO.N,Net-(D1-A)*%
X133770000Y-97000000D03*
%TD*%
D10*
%TO.P,J3,1,Pin_1*%
%TO.N,+5V*%
X157775000Y-124125000D03*
D11*
%TO.P,J3,2,Pin_2*%
%TO.N,GND*%
X155235000Y-124125000D03*
%TD*%
D15*
%TO.P,M1,0,P0*%
%TO.N,unconnected-(M1-P0-Pad0)*%
X159500000Y-99860000D03*
%TO.P,M1,1,P1*%
%TO.N,Net-(M1-P1)*%
X159500000Y-97320000D03*
%TO.P,M1,2,P2*%
%TO.N,Net-(M1-P2)*%
X159500000Y-94780000D03*
%TO.P,M1,3,P3*%
%TO.N,Net-(M1-P3)*%
X159500000Y-92240000D03*
%TO.P,M1,3V3,3V3*%
%TO.N,+3V3*%
X159500000Y-87160000D03*
%TO.P,M1,4,P4*%
%TO.N,Net-(J2-Pin_4)*%
X159500000Y-89700000D03*
%TO.P,M1,5,P5*%
%TO.N,Net-(J2-Pin_5)*%
X139500000Y-82080000D03*
%TO.P,M1,5V,5V*%
%TO.N,+5V*%
X159500000Y-82100000D03*
%TO.P,M1,6,P6*%
%TO.N,Net-(J2-Pin_3)*%
X139500000Y-84620000D03*
%TO.P,M1,7,P7*%
%TO.N,Net-(J2-Pin_6)*%
X139500000Y-87160000D03*
%TO.P,M1,8,P8*%
%TO.N,Net-(J1-Pin_3)*%
X139500000Y-89700000D03*
%TO.P,M1,9,P9*%
%TO.N,Net-(J1-Pin_4)*%
X139500000Y-92240000D03*
%TO.P,M1,10,P10*%
%TO.N,Net-(J1-Pin_5)*%
X139500000Y-94780000D03*
%TO.P,M1,20,P20*%
%TO.N,unconnected-(M1-P20-Pad20)*%
X139500000Y-97320000D03*
%TO.P,M1,21,P21*%
%TO.N,unconnected-(M1-P21-Pad21)*%
X139500000Y-99860000D03*
%TO.P,M1,G,GND*%
%TO.N,GND*%
X159500000Y-84620000D03*
%TD*%
D10*
%TO.P,J2,1,Pin_1*%
%TO.N,+5V*%
X126500000Y-106540000D03*
D11*
%TO.P,J2,2,Pin_2*%
%TO.N,GND*%
X126500000Y-104000000D03*
%TO.P,J2,3,Pin_3*%
%TO.N,Net-(J2-Pin_3)*%
X126500000Y-101460000D03*
%TO.P,J2,4,Pin_4*%
%TO.N,Net-(J2-Pin_4)*%
X126500000Y-98920000D03*
%TO.P,J2,5,Pin_5*%
%TO.N,Net-(J2-Pin_5)*%
X126500000Y-96380000D03*
%TO.P,J2,6,Pin_6*%
%TO.N,Net-(J2-Pin_6)*%
X126500000Y-93840000D03*
%TD*%
D16*
%TO.P,R1,1*%
%TO.N,Net-(M1-P3)*%
X132500000Y-109120000D03*
D17*
%TO.P,R1,2*%
%TO.N,Net-(D1-A)*%
X132500000Y-101500000D03*
%TD*%
D18*
%TO.P,C1,1*%
%TO.N,+5V*%
X157472600Y-118000000D03*
D19*
%TO.P,C1,2*%
%TO.N,GND*%
X155472600Y-118000000D03*
%TD*%
D20*
%TO.P,SW1,1,1*%
%TO.N,Net-(M1-P2)*%
X162000000Y-112500000D03*
X162000000Y-106000000D03*
%TO.P,SW1,2,2*%
%TO.N,GND*%
X166500000Y-112500000D03*
X166500000Y-106000000D03*
%TD*%
D21*
%TO.N,GND*%
X159500000Y-84620000D03*
%TO.N,+5V*%
X159500000Y-82100000D03*
%TO.N,Net-(J2-Pin_3)*%
X139500000Y-84620000D03*
%TO.N,Net-(J2-Pin_4)*%
X139500000Y-104500000D03*
X159500000Y-89700000D03*
%TO.N,Net-(M1-P3)*%
X159500000Y-92240000D03*
%TD*%
D22*
%TO.N,GND*%
X134778963Y-116595000D02*
X137500000Y-116595000D01*
X155472600Y-117524991D02*
X155472600Y-117831991D01*
X163970556Y-115029443D02*
X166500000Y-112500000D01*
X129159732Y-119960267D02*
X130931207Y-118188792D01*
X156374355Y-116623236D02*
X160122800Y-116623236D01*
X127482500Y-120655000D02*
X126500000Y-120655000D01*
X155235000Y-118405608D02*
X155235000Y-124125000D01*
X134778963Y-116595000D02*
G75*
G03*
X130931236Y-118188821I37J-5441500D01*
G01*
X155736718Y-116887354D02*
G75*
G03*
X155472607Y-117524991I637682J-637646D01*
G01*
X155353800Y-118118800D02*
G75*
G03*
X155235004Y-118405608I286800J-286800D01*
G01*
X129159732Y-119960267D02*
G75*
G02*
X127482500Y-120654989I-1677232J1677267D01*
G01*
X155472600Y-117831991D02*
G75*
G02*
X155353803Y-118118803I-405600J-9D01*
G01*
X156374355Y-116623236D02*
G75*
G03*
X155736739Y-116887375I45J-901764D01*
G01*
X163970556Y-115029443D02*
G75*
G02*
X160122800Y-116623240I-3847756J3847743D01*
G01*
D23*
%TO.N,Net-(J1-Pin_5)*%
X130831036Y-113035000D02*
X126500000Y-113035000D01*
X144000000Y-99047766D02*
X144000000Y-99866036D01*
X142406207Y-103713792D02*
X134678792Y-111441207D01*
X142750000Y-96030000D02*
X142207106Y-95487106D01*
X140500000Y-94780000D02*
X139500000Y-94780000D01*
X142750000Y-96030000D02*
G75*
G02*
X144000014Y-99047766I-3017800J-3017800D01*
G01*
X144000000Y-99866036D02*
G75*
G02*
X142406200Y-103713785I-5441600J36D01*
G01*
X134678792Y-111441207D02*
G75*
G02*
X130831036Y-113035010I-3847792J3847807D01*
G01*
X142207106Y-95487106D02*
G75*
G03*
X140500000Y-94779996I-1707106J-1707094D01*
G01*
%TO.N,Net-(J1-Pin_4)*%
X142207106Y-92947106D02*
X143406207Y-94146207D01*
X128856722Y-115575000D02*
X126500000Y-115575000D01*
X140500000Y-92240000D02*
X139500000Y-92240000D01*
X143406207Y-103279478D02*
X132704478Y-113981207D01*
X145000000Y-99431722D02*
X145000000Y-97993963D01*
X132704478Y-113981207D02*
G75*
G02*
X128856722Y-115575000I-3847778J3847807D01*
G01*
X145000000Y-99431722D02*
G75*
G02*
X143406207Y-103279478I-5441600J22D01*
G01*
X142207106Y-92947106D02*
G75*
G03*
X140500000Y-92239996I-1707106J-1707094D01*
G01*
X143406207Y-94146207D02*
G75*
G02*
X145000011Y-97993963I-3847807J-3847793D01*
G01*
%TO.N,Net-(J1-Pin_3)*%
X127818186Y-118115000D02*
X126500000Y-118115000D01*
X144406207Y-93026207D02*
X141638614Y-90258614D01*
X140290000Y-89700000D02*
X139500000Y-89700000D01*
X146000000Y-96873963D02*
X146000000Y-98997408D01*
X130068470Y-117182901D02*
X144406207Y-102845164D01*
X141638614Y-90258614D02*
G75*
G03*
X140290000Y-89699992I-1348614J-1348586D01*
G01*
X130068470Y-117182901D02*
G75*
G02*
X127818186Y-118114984I-2250270J2250301D01*
G01*
X146000000Y-98997408D02*
G75*
G02*
X144406214Y-102845171I-5441600J8D01*
G01*
X144406207Y-93026207D02*
G75*
G02*
X146000011Y-96873963I-3847807J-3847793D01*
G01*
D22*
%TO.N,+3V3*%
X131156370Y-121595000D02*
X137500000Y-121595000D01*
X145906207Y-113188792D02*
X137500000Y-121595000D01*
X152553036Y-87160000D02*
X159500000Y-87160000D01*
X127462500Y-123195000D02*
X126500000Y-123195000D01*
X147500000Y-92213036D02*
X147500000Y-109341036D01*
X129224999Y-122394999D02*
X129105590Y-122514409D01*
X129105590Y-122514409D02*
G75*
G02*
X127462500Y-123194994I-1643090J1643109D01*
G01*
X152553036Y-87160000D02*
G75*
G03*
X148979989Y-88639989I-36J-5053000D01*
G01*
X148980000Y-88640000D02*
G75*
G03*
X147500015Y-92213036I3573000J-3573000D01*
G01*
X147500000Y-109341036D02*
G75*
G02*
X145906200Y-113188785I-5441600J36D01*
G01*
X131156370Y-121595000D02*
G75*
G03*
X129225009Y-122395009I30J-2731400D01*
G01*
%TO.N,+5V*%
X157775000Y-118516229D02*
X157775000Y-124125000D01*
X157623800Y-118151200D02*
X157472600Y-118000000D01*
X157623800Y-118151200D02*
G75*
G02*
X157774988Y-118516229I-365000J-365000D01*
G01*
D23*
%TO.N,Net-(J2-Pin_5)*%
X131526207Y-83673792D02*
X125049568Y-90150431D01*
X124760832Y-96380000D02*
X126500000Y-96380000D01*
X123600000Y-93650000D02*
X123600000Y-95219167D01*
X135373963Y-82080000D02*
X139500000Y-82080000D01*
X123940000Y-96040000D02*
G75*
G03*
X124760832Y-96379986I820800J820800D01*
G01*
X123600000Y-95219167D02*
G75*
G03*
X123939990Y-96040010I1160800J-33D01*
G01*
X125049568Y-90150431D02*
G75*
G03*
X123599988Y-93650000I3499532J-3499569D01*
G01*
X135373963Y-82080000D02*
G75*
G03*
X131526236Y-83673821I37J-5441500D01*
G01*
%TO.N,Net-(J2-Pin_6)*%
X137270000Y-87160000D02*
X139500000Y-87160000D01*
X127430000Y-93840000D02*
X126500000Y-93840000D01*
X133463151Y-88736847D02*
X129017609Y-93182390D01*
X137270000Y-87160000D02*
G75*
G03*
X133463151Y-88736847I0J-5383700D01*
G01*
X129017609Y-93182390D02*
G75*
G02*
X127430000Y-93840005I-1587609J1587590D01*
G01*
%TO.N,Net-(J2-Pin_4)*%
X129883883Y-102883883D02*
X130250000Y-103250000D01*
X129000000Y-99910121D02*
X129000000Y-100750000D01*
X133267766Y-104500000D02*
X139500000Y-104500000D01*
X128009878Y-98920000D02*
X126500000Y-98920000D01*
X128710000Y-99210000D02*
G75*
G03*
X128009878Y-98920009I-700100J-700100D01*
G01*
X128710000Y-99210000D02*
G75*
G02*
X128999991Y-99910121I-700100J-700100D01*
G01*
X130250000Y-103250000D02*
G75*
G03*
X133267766Y-104500014I3017800J3017800D01*
G01*
X129000000Y-100750000D02*
G75*
G03*
X129883876Y-102883890I3017800J0D01*
G01*
%TO.N,Net-(M1-P1)*%
X155000000Y-109341036D02*
X155000000Y-101587766D01*
X158500000Y-97320000D02*
X159500000Y-97320000D01*
X153406207Y-113188792D02*
X147500000Y-119095000D01*
X156249999Y-98569999D02*
X156792893Y-98027106D01*
X156249999Y-98569999D02*
G75*
G03*
X154999985Y-101587766I3017801J-3017801D01*
G01*
X158500000Y-97320000D02*
G75*
G03*
X156792896Y-98027109I0J-2414200D01*
G01*
X155000000Y-109341036D02*
G75*
G02*
X153406200Y-113188785I-5441600J36D01*
G01*
%TO.N,Net-(M1-P2)*%
X163500000Y-96862670D02*
X163500000Y-103439339D01*
X161417329Y-94780000D02*
X159500000Y-94780000D01*
X162750000Y-105250000D02*
X162000000Y-106000000D01*
X162890000Y-95390000D02*
G75*
G02*
X163500012Y-96862670I-1472700J-1472700D01*
G01*
X162890000Y-95390000D02*
G75*
G03*
X161417329Y-94779988I-1472700J-1472700D01*
G01*
X163500000Y-103439339D02*
G75*
G02*
X162749988Y-105249988I-2560700J39D01*
G01*
%TD*%
M02*
