%TF.GenerationSoftware,KiCad,Pcbnew,8.0.7*%
%TF.CreationDate,2025-01-02T11:10:57+09:00*%
%TF.ProjectId,rusty-hangulclock,72757374-792d-4686-916e-67756c636c6f,rev?*%
%TF.SameCoordinates,Original*%
%TF.FileFunction,Soldermask,Top*%
%TF.FilePolarity,Negative*%
%FSLAX46Y46*%
G04 Gerber Fmt 4.6, Leading zero omitted, Abs format (unit mm)*
G04 Created by KiCad (PCBNEW 8.0.7) date 2025-01-02 11:10:57*
%MOMM*%
%LPD*%
G01*
G04 APERTURE LIST*
G04 Aperture macros list*
%AMRoundRect*
0 Rectangle with rounded corners*
0 $1 Rounding radius*
0 $2 $3 $4 $5 $6 $7 $8 $9 X,Y pos of 4 corners*
0 Add a 4 corners polygon primitive as box body*
4,1,4,$2,$3,$4,$5,$6,$7,$8,$9,$2,$3,0*
0 Add four circle primitives for the rounded corners*
1,1,$1+$1,$2,$3*
1,1,$1+$1,$4,$5*
1,1,$1+$1,$6,$7*
1,1,$1+$1,$8,$9*
0 Add four rect primitives between the rounded corners*
20,1,$1+$1,$2,$3,$4,$5,0*
20,1,$1+$1,$4,$5,$6,$7,0*
20,1,$1+$1,$6,$7,$8,$9,0*
20,1,$1+$1,$8,$9,$2,$3,0*%
G04 Aperture macros list end*
%ADD10R,1.700000X1.700000*%
%ADD11O,1.700000X1.700000*%
%ADD12C,2.340000*%
%ADD13R,1.800000X1.800000*%
%ADD14C,1.800000*%
%ADD15C,3.200000*%
%ADD16RoundRect,0.381000X-1.619000X-0.381000X1.619000X-0.381000X1.619000X0.381000X-1.619000X0.381000X0*%
%ADD17C,1.400000*%
%ADD18O,1.400000X1.400000*%
%ADD19R,1.200000X1.200000*%
%ADD20C,1.200000*%
%ADD21C,2.000000*%
G04 APERTURE END LIST*
D10*
%TO.C,J1*%
X126500000Y-123195000D03*
D11*
X126500000Y-120655000D03*
X126500000Y-118115000D03*
X126500000Y-115575000D03*
X126500000Y-113035000D03*
%TD*%
D12*
%TO.C,RV1*%
X137500000Y-121595000D03*
X147500000Y-119095000D03*
X137500000Y-116595000D03*
%TD*%
D13*
%TO.C,D1*%
X131230000Y-97000000D03*
D14*
X133770000Y-97000000D03*
%TD*%
D15*
%TO.C,H4*%
X119500000Y-131000000D03*
%TD*%
D10*
%TO.C,J3*%
X157775000Y-124125000D03*
D11*
X155235000Y-124125000D03*
%TD*%
D15*
%TO.C,H2*%
X166000000Y-84500000D03*
%TD*%
D16*
%TO.C,M1*%
X159500000Y-99860000D03*
X159500000Y-97320000D03*
X159500000Y-94780000D03*
X159500000Y-92240000D03*
X159500000Y-87160000D03*
X159500000Y-89700000D03*
X139500000Y-82080000D03*
X159500000Y-82100000D03*
X139500000Y-84620000D03*
X139500000Y-87160000D03*
X139500000Y-89700000D03*
X139500000Y-92240000D03*
X139500000Y-94780000D03*
X139500000Y-97320000D03*
X139500000Y-99860000D03*
X159500000Y-84620000D03*
%TD*%
D10*
%TO.C,J2*%
X126500000Y-106540000D03*
D11*
X126500000Y-104000000D03*
X126500000Y-101460000D03*
X126500000Y-98920000D03*
X126500000Y-96380000D03*
X126500000Y-93840000D03*
%TD*%
D17*
%TO.C,R1*%
X132500000Y-109120000D03*
D18*
X132500000Y-101500000D03*
%TD*%
D15*
%TO.C,H1*%
X166000000Y-131000000D03*
%TD*%
D19*
%TO.C,C1*%
X157472600Y-118000000D03*
D20*
X155472600Y-118000000D03*
%TD*%
D15*
%TO.C,H3*%
X119500000Y-84500000D03*
%TD*%
D21*
%TO.C,SW1*%
X162000000Y-112500000D03*
X162000000Y-106000000D03*
X166500000Y-112500000D03*
X166500000Y-106000000D03*
%TD*%
M02*
