%TF.GenerationSoftware,KiCad,Pcbnew,8.0.7*%
%TF.CreationDate,2025-01-02T11:10:57+09:00*%
%TF.ProjectId,rusty-hangulclock,72757374-792d-4686-916e-67756c636c6f,rev?*%
%TF.SameCoordinates,Original*%
%TF.FileFunction,Copper,L2,Bot*%
%TF.FilePolarity,Positive*%
%FSLAX46Y46*%
G04 Gerber Fmt 4.6, Leading zero omitted, Abs format (unit mm)*
G04 Created by KiCad (PCBNEW 8.0.7) date 2025-01-02 11:10:57*
%MOMM*%
%LPD*%
G01*
G04 APERTURE LIST*
%TA.AperFunction,ComponentPad*%
%ADD10R,1.700000X1.700000*%
%TD*%
%TA.AperFunction,ComponentPad*%
%ADD11O,1.700000X1.700000*%
%TD*%
%TA.AperFunction,ComponentPad*%
%ADD12C,2.340000*%
%TD*%
%TA.AperFunction,ComponentPad*%
%ADD13R,1.800000X1.800000*%
%TD*%
%TA.AperFunction,ComponentPad*%
%ADD14C,1.800000*%
%TD*%
%TA.AperFunction,ComponentPad*%
%ADD15C,1.400000*%
%TD*%
%TA.AperFunction,ComponentPad*%
%ADD16O,1.400000X1.400000*%
%TD*%
%TA.AperFunction,ComponentPad*%
%ADD17R,1.200000X1.200000*%
%TD*%
%TA.AperFunction,ComponentPad*%
%ADD18C,1.200000*%
%TD*%
%TA.AperFunction,ComponentPad*%
%ADD19C,2.000000*%
%TD*%
%TA.AperFunction,ViaPad*%
%ADD20C,0.600000*%
%TD*%
%TA.AperFunction,Conductor*%
%ADD21C,0.200000*%
%TD*%
%TA.AperFunction,Conductor*%
%ADD22C,1.000000*%
%TD*%
G04 APERTURE END LIST*
D10*
%TO.P,J1,1,Pin_1*%
%TO.N,+3V3*%
X126500000Y-123195000D03*
D11*
%TO.P,J1,2,Pin_2*%
%TO.N,GND*%
X126500000Y-120655000D03*
%TO.P,J1,3,Pin_3*%
%TO.N,Net-(J1-Pin_3)*%
X126500000Y-118115000D03*
%TO.P,J1,4,Pin_4*%
%TO.N,Net-(J1-Pin_4)*%
X126500000Y-115575000D03*
%TO.P,J1,5,Pin_5*%
%TO.N,Net-(J1-Pin_5)*%
X126500000Y-113035000D03*
%TD*%
D12*
%TO.P,RV1,1,1*%
%TO.N,+3V3*%
X137500000Y-121595000D03*
%TO.P,RV1,2,2*%
%TO.N,Net-(M1-P1)*%
X147500000Y-119095000D03*
%TO.P,RV1,3,3*%
%TO.N,GND*%
X137500000Y-116595000D03*
%TD*%
D13*
%TO.P,D1,1,K*%
%TO.N,GND*%
X131230000Y-97000000D03*
D14*
%TO.P,D1,2,A*%
%TO.N,Net-(D1-A)*%
X133770000Y-97000000D03*
%TD*%
D10*
%TO.P,J3,1,Pin_1*%
%TO.N,+5V*%
X157775000Y-124125000D03*
D11*
%TO.P,J3,2,Pin_2*%
%TO.N,GND*%
X155235000Y-124125000D03*
%TD*%
D10*
%TO.P,J2,1,Pin_1*%
%TO.N,+5V*%
X126500000Y-106540000D03*
D11*
%TO.P,J2,2,Pin_2*%
%TO.N,GND*%
X126500000Y-104000000D03*
%TO.P,J2,3,Pin_3*%
%TO.N,Net-(J2-Pin_3)*%
X126500000Y-101460000D03*
%TO.P,J2,4,Pin_4*%
%TO.N,Net-(J2-Pin_4)*%
X126500000Y-98920000D03*
%TO.P,J2,5,Pin_5*%
%TO.N,Net-(J2-Pin_5)*%
X126500000Y-96380000D03*
%TO.P,J2,6,Pin_6*%
%TO.N,Net-(J2-Pin_6)*%
X126500000Y-93840000D03*
%TD*%
D15*
%TO.P,R1,1*%
%TO.N,Net-(M1-P3)*%
X132500000Y-109120000D03*
D16*
%TO.P,R1,2*%
%TO.N,Net-(D1-A)*%
X132500000Y-101500000D03*
%TD*%
D17*
%TO.P,C1,1*%
%TO.N,+5V*%
X157472600Y-118000000D03*
D18*
%TO.P,C1,2*%
%TO.N,GND*%
X155472600Y-118000000D03*
%TD*%
D19*
%TO.P,SW1,1,1*%
%TO.N,Net-(M1-P2)*%
X162000000Y-112500000D03*
X162000000Y-106000000D03*
%TO.P,SW1,2,2*%
%TO.N,GND*%
X166500000Y-112500000D03*
X166500000Y-106000000D03*
%TD*%
D20*
%TO.N,GND*%
X159500000Y-84620000D03*
%TO.N,+5V*%
X159500000Y-82100000D03*
%TO.N,Net-(J2-Pin_3)*%
X139500000Y-84620000D03*
%TO.N,Net-(J2-Pin_4)*%
X139500000Y-104500000D03*
X159500000Y-89700000D03*
%TO.N,Net-(M1-P3)*%
X159500000Y-92240000D03*
%TD*%
D21*
%TO.N,Net-(D1-A)*%
X133770000Y-99331974D02*
X133770000Y-97000000D01*
X133135000Y-100865000D02*
X132500000Y-101500000D01*
X133770000Y-99331974D02*
G75*
G02*
X133135008Y-100865008I-2168000J-26D01*
G01*
D22*
%TO.N,GND*%
X160376036Y-116370000D02*
X137884099Y-116370000D01*
X122000000Y-118683291D02*
X122000000Y-108267766D01*
X166500000Y-106000000D02*
X166500000Y-112500000D01*
X126500000Y-104000000D02*
X125500000Y-104000000D01*
X166500000Y-106000000D02*
X166500000Y-93873963D01*
X130365000Y-97865000D02*
X131230000Y-97000000D01*
X159500000Y-84620000D02*
X164906207Y-90026207D01*
X123971708Y-120655000D02*
X126500000Y-120655000D01*
X123249999Y-105249999D02*
X123792893Y-104707106D01*
X126500000Y-104000000D02*
X128646446Y-104000000D01*
X129500000Y-99953294D02*
X129500000Y-103146446D01*
X137612500Y-116482500D02*
X137500000Y-116595000D01*
X164223792Y-114776207D02*
X166500000Y-112500000D01*
X137884099Y-116370000D02*
G75*
G03*
X137612500Y-116482500I1J-384100D01*
G01*
X130365000Y-97865000D02*
G75*
G03*
X129499998Y-99953294I2088300J-2088300D01*
G01*
X129250000Y-103750000D02*
G75*
G02*
X128646446Y-104000019I-603600J603600D01*
G01*
X122577500Y-120077500D02*
G75*
G03*
X123971708Y-120654997I1394200J1394200D01*
G01*
X122000000Y-118683291D02*
G75*
G03*
X122577498Y-120077502I1971700J-9D01*
G01*
X123249999Y-105249999D02*
G75*
G03*
X121999985Y-108267766I3017801J-3017801D01*
G01*
X125500000Y-104000000D02*
G75*
G03*
X123792896Y-104707109I0J-2414200D01*
G01*
X129500000Y-103146446D02*
G75*
G02*
X129249986Y-103749986I-853600J46D01*
G01*
X164223792Y-114776207D02*
G75*
G02*
X160376036Y-116370010I-3847792J3847807D01*
G01*
X164906207Y-90026207D02*
G75*
G02*
X166500011Y-93873963I-3847807J-3847793D01*
G01*
%TO.N,+5V*%
X146146447Y-94887766D02*
X136088006Y-104946207D01*
X131500000Y-121746036D02*
X131500000Y-113793963D01*
X157032537Y-126967462D02*
X156637500Y-127362500D01*
X157775000Y-125175000D02*
X157775000Y-124125000D01*
X133093792Y-125593792D02*
X134406207Y-126906207D01*
X153000000Y-90205786D02*
X153000000Y-84694802D01*
X129906207Y-109946207D02*
X126500000Y-106540000D01*
X149207107Y-93620000D02*
X149585786Y-93620000D01*
X153891332Y-128500000D02*
X138253963Y-128500000D01*
X155594802Y-82100000D02*
X159500000Y-82100000D01*
X126500000Y-106540000D02*
X132240250Y-106540000D01*
X134406207Y-126906207D02*
G75*
G03*
X138253963Y-128500011I3847793J3847807D01*
G01*
X149207107Y-93620000D02*
G75*
G03*
X146146450Y-94887769I-7J-4328400D01*
G01*
X155594802Y-82100000D02*
G75*
G03*
X153759999Y-82859999I-2J-2594800D01*
G01*
X129906207Y-109946207D02*
G75*
G02*
X131500011Y-113793963I-3847807J-3847793D01*
G01*
X156637500Y-127362500D02*
G75*
G02*
X153891332Y-128500013I-2746200J2746200D01*
G01*
X152000000Y-92620000D02*
G75*
G02*
X149585786Y-93619994I-2414200J2414200D01*
G01*
X157775000Y-125175000D02*
G75*
G02*
X157032532Y-126967457I-2534900J0D01*
G01*
X136088006Y-104946207D02*
G75*
G02*
X132240250Y-106540020I-3847806J3847807D01*
G01*
X131500000Y-121746036D02*
G75*
G03*
X133093800Y-125593784I5441600J36D01*
G01*
X153760000Y-82860000D02*
G75*
G03*
X153000001Y-84694802I1834800J-1834800D01*
G01*
X153000000Y-90205786D02*
G75*
G02*
X152000004Y-92620004I-3414200J-14D01*
G01*
D21*
%TO.N,Net-(J2-Pin_3)*%
X127020000Y-101460000D02*
X126500000Y-101460000D01*
X128500000Y-91373963D02*
X128500000Y-99821177D01*
X135253963Y-84620000D02*
X139500000Y-84620000D01*
X131406206Y-86213792D02*
X130093792Y-87526207D01*
X127907695Y-101092304D02*
X128020000Y-100980000D01*
X127907695Y-101092304D02*
G75*
G02*
X127020000Y-101459997I-887695J887704D01*
G01*
X130093792Y-87526207D02*
G75*
G03*
X128499959Y-91373963I3847708J-3847793D01*
G01*
X135253963Y-84620000D02*
G75*
G03*
X131406215Y-86213801I37J-5441600D01*
G01*
X128500000Y-99821177D02*
G75*
G02*
X128020007Y-100980007I-1638800J-23D01*
G01*
%TO.N,Net-(J2-Pin_4)*%
X157198959Y-90301040D02*
X153737436Y-93762563D01*
X159500000Y-89700000D02*
X158650000Y-89700000D01*
X147762563Y-96237436D02*
X139500000Y-104500000D01*
X153737436Y-93762563D02*
G75*
G02*
X150750000Y-94999992I-2987436J2987463D01*
G01*
X158650000Y-89700000D02*
G75*
G03*
X157198956Y-90301037I0J-2052100D01*
G01*
X150750000Y-95000000D02*
G75*
G03*
X147762558Y-96237431I0J-4224900D01*
G01*
%TO.N,Net-(M1-P2)*%
X162000000Y-106000000D02*
X162000000Y-112500000D01*
%TO.N,Net-(M1-P3)*%
X140366036Y-109120000D02*
X132500000Y-109120000D01*
X144213792Y-107526207D02*
X159500000Y-92240000D01*
X144213792Y-107526207D02*
G75*
G02*
X140366036Y-109120010I-3847792J3847807D01*
G01*
%TD*%
M02*
